<svg width="588" height="111" viewBox="0 0 588 111" fill="none" xmlns="http://www.w3.org/2000/svg">
<path d="M25.4354 22.0027C57.5685 7.8581 80.4 30.0457 80.4 30.0457L98.8154 9.24483C92.9901 5.73179 79.9302 0 65.3669 0C51.7432 0 36.7102 5.08465 25.4354 22.0027Z" fill="#149678"/>
<path d="M20.2144 96.9416C32.3348 107.388 48.4953 112.196 64.4679 109.977C77.7157 108.128 92.7488 101.749 101.299 91.857L79.0311 77.7124C69.3536 92.1343 48.3074 105.17 20.2144 96.9416Z" fill="#8001D8"/>
<path d="M1.10084 62.4587C5.5168 79.7466 20.174 96.2024 43.4752 91.3026C34.3614 81.5031 12.8454 55.2478 15.7581 31.3037C16.8855 21.874 21.6773 13.6461 29.9455 6.89734C11.2481 17.9911 -4.34863 41.0107 1.10084 62.4587Z" fill="#005BD7"/>
<path d="M145.502 55.1993C145.502 35.4722 160.392 22.1017 179.06 22.1017C192.728 22.1017 200.728 28.787 205.617 36.4586L195.839 41.3903C192.728 36.1298 186.505 32.0748 178.949 32.0748C166.615 32.0748 157.058 41.7191 157.058 55.1993C157.058 68.6794 166.615 78.3237 178.949 78.3237C186.394 78.3237 192.728 74.3783 195.839 69.0082L205.617 73.9399C200.617 81.6115 192.616 88.2968 179.06 88.2968C160.392 88.2968 145.502 74.9263 145.502 55.1993Z" fill="#33415C"/>
<path d="M247.287 63.3093H235.953V87.2009H224.508V23.1976H253.065C265.955 23.1976 274.289 31.4172 274.289 43.2534C274.289 54.6513 266.733 60.7886 258.955 62.1037L274.845 87.3105H261.733L247.287 63.3093ZM251.51 33.0611H235.953V53.4457H251.51C257.955 53.4457 262.622 49.3907 262.622 43.2534C262.622 37.1161 257.955 33.0611 251.51 33.0611Z" fill="#33415C"/>
<path d="M295.401 23.1976H306.846V61.5557C306.846 71.748 312.625 78.3237 323.514 78.3237C334.293 78.3237 340.071 71.748 340.071 61.5557V23.1976H351.516V61.8845C351.516 77.7757 342.293 88.4064 323.514 88.4064C304.624 88.4064 295.401 77.7757 295.401 61.9941V23.1976Z" fill="#33415C"/>
<path d="M386.52 40.5136V87.2009H375.074V23.1976H386.742L419.966 68.5698V23.1976H431.301V87.2009H420.3L386.52 40.5136Z" fill="#33415C"/>
<path d="M451.968 55.1993C451.968 35.4722 466.858 22.1017 485.526 22.1017C499.194 22.1017 507.194 28.787 512.084 36.4586L502.305 41.3903C499.194 36.1298 492.971 32.0748 485.415 32.0748C473.081 32.0748 463.525 41.7191 463.525 55.1993C463.525 68.6794 473.081 78.3237 485.415 78.3237C492.86 78.3237 499.194 74.3783 502.305 69.0082L512.084 73.9399C507.083 81.6115 499.083 88.2968 485.526 88.2968C466.858 88.2968 451.968 74.9263 451.968 55.1993Z" fill="#33415C"/>
<path d="M576.199 59.2543H542.419V87.2009H531.085V23.1976H542.419V49.3907H576.199V23.1976H587.534V87.2009H576.199V59.2543Z" fill="#33415C"/>
</svg>
