<svg width="709" height="119" viewBox="0 0 709 119" fill="none" xmlns="http://www.w3.org/2000/svg">
<g clip-path="url(#clip0_130_654)">
<mask id="mask0_130_654" style="mask-type:luminance" maskUnits="userSpaceOnUse" x="0" y="8" width="47" height="93">
<path d="M1.2 68.2C5.9 86.9 21.5 104.7 46.3 99.4C36.6 88.8 13.7 60.4 16.8 34.5C18 24.3 23.1 15.4 31.9 8.09998C12 20.1 -4.6 45 1.2 68.2Z" fill="white"/>
</mask>
<g mask="url(#mask0_130_654)">
<path d="M-24 12.2L-2.5 114.8L65.6 100.5L44.1 -2.09998L-24 12.2Z" fill="url(#paint0_linear_130_654)"/>
</g>
<mask id="mask1_130_654" style="mask-type:luminance" maskUnits="userSpaceOnUse" x="21" y="83" width="87" height="37">
<path d="M21.3 104.7C34.2 116 51.4 121.2 68.4 118.8C82.5 116.8 98.5 109.9 107.6 99.2L83.9 83.9C73.6 99.5 51.2 113.6 21.3 104.7Z" fill="white"/>
</mask>
<g mask="url(#mask1_130_654)">
<path d="M72 163.7L126 99.3L57 41.4L2.99998 105.8L72 163.7Z" fill="url(#paint1_linear_130_654)"/>
</g>
<path d="M26.8553 23.9847C61.352 8.79975 85.8628 32.6193 85.8628 32.6193L105.633 10.2885C99.379 6.51704 85.3584 0.363647 69.724 0.363647C55.0982 0.363647 38.9594 5.8223 26.8553 23.9847Z" fill="#149678"/>
<path d="M21.2502 104.436C34.2621 115.651 51.6113 120.812 68.7588 118.43C82.9811 116.445 99.1199 109.597 108.299 98.9772L84.3932 83.7922C74.0039 99.275 51.4096 113.269 21.2502 104.436Z" fill="#8001D8"/>
<path d="M0.730767 67.4165C5.47154 85.976 21.2069 103.642 46.222 98.382C36.4379 87.8617 13.3392 59.6752 16.4661 33.9699C17.6765 23.8465 22.8207 15.0134 31.6971 7.76831C11.6245 19.6781 -5.11955 44.3909 0.730767 67.4165Z" fill="#005BD7"/>
<path d="M145.3 60.1C145.3 42.1 158.7 29.9 175.5 29.9C187.8 29.9 195 36 199.4 43L190.6 47.5C187.8 42.7 182.2 39 175.4 39C164.3 39 155.7 47.8 155.7 60.1C155.7 72.4 164.3 81.2 175.4 81.2C182.1 81.2 187.8 77.6 190.6 72.7L199.4 77.2C194.9 84.2 187.7 90.3 175.5 90.3C158.7 90.3 145.3 78.1 145.3 60.1Z" fill="#33415C"/>
<path d="M236.9 67.5H226.7V89.3H216.4V30.9H242.1C253.7 30.9 261.2 38.4 261.2 49.2C261.2 59.6 254.4 65.2 247.4 66.4L261.7 89.4H249.9L236.9 67.5ZM240.7 39.9H226.7V58.5H240.7C246.5 58.5 250.7 54.8 250.7 49.2C250.7 43.6 246.5 39.9 240.7 39.9Z" fill="#33415C"/>
<path d="M280.2 30.9H290.5V65.9C290.5 75.2 295.7 81.2 305.5 81.2C315.2 81.2 320.4 75.2 320.4 65.9V30.9H330.7V66.2C330.7 80.7 322.4 90.4 305.5 90.4C288.5 90.4 280.2 80.7 280.2 66.3V30.9Z" fill="#33415C"/>
<path d="M362.2 46.7V89.3H351.9V30.9H362.4L392.3 72.3V30.9H402.5V89.3H392.6L362.2 46.7Z" fill="#33415C"/>
<path d="M421.1 60.1C421.1 42.1 434.5 29.9 451.3 29.9C463.6 29.9 470.8 36 475.2 43L466.4 47.5C463.6 42.7 458 39 451.2 39C440.1 39 431.5 47.8 431.5 60.1C431.5 72.4 440.1 81.2 451.2 81.2C457.9 81.2 463.6 77.6 466.4 72.7L475.2 77.2C470.7 84.2 463.5 90.3 451.3 90.3C434.5 90.3 421.1 78.1 421.1 60.1Z" fill="#33415C"/>
<path d="M532.9 63.8H502.5V89.3H492.3V30.9H502.5V54.8H532.9V30.9H543.1V89.3H532.9V63.8Z" fill="#33415C"/>
<path d="M568.8 78C572.1 78 574.9 80.8 574.9 84.1C574.9 87.4 572.1 90.2 568.8 90.2C565.5 90.2 562.7 87.4 562.7 84.1C562.7 80.8 565.5 78 568.8 78Z" fill="#33415C"/>
<path d="M594.6 30.9H604.8V89.3H594.6V30.9Z" fill="#33415C"/>
<path d="M653.3 29.9C670.8 29.9 683.2 42.7 683.2 60.1C683.2 77.5 670.8 90.3 653.3 90.3C635.8 90.3 623.4 77.5 623.4 60.1C623.4 42.7 635.7 29.9 653.3 29.9ZM653.3 39C641.5 39 633.9 48 633.9 60.1C633.9 72.1 641.4 81.2 653.3 81.2C665 81.2 672.7 72.1 672.7 60.1C672.6 48 665 39 653.3 39Z" fill="#33415C"/>
</g>
<defs>
<linearGradient id="paint0_linear_130_654" x1="11.5764" y1="12.3535" x2="30.5299" y2="102.688" gradientUnits="userSpaceOnUse">
<stop stop-color="#215FAB"/>
<stop offset="0.14" stop-color="#215FAB"/>
<stop offset="0.29" stop-color="#1955A5"/>
<stop offset="0.74" stop-color="#20438D"/>
<stop offset="1" stop-color="#253D82"/>
</linearGradient>
<linearGradient id="paint1_linear_130_654" x1="45.5878" y1="125.066" x2="84.0143" y2="79.2836" gradientUnits="userSpaceOnUse">
<stop stop-color="#471852"/>
<stop offset="0.09" stop-color="#471852"/>
<stop offset="0.18" stop-color="#592467"/>
<stop offset="0.29" stop-color="#672977"/>
<stop offset="0.42" stop-color="#6F297F"/>
<stop offset="0.6" stop-color="#732A80"/>
<stop offset="1" stop-color="#732A80"/>
</linearGradient>
<clipPath id="clip0_130_654">
<rect width="708.2" height="119" fill="white"/>
</clipPath>
</defs>
</svg>
