<?xml version="1.0" encoding="UTF-8"?><svg id="Layer_1" xmlns="http://www.w3.org/2000/svg" viewBox="0 0 1133.73 160.88"><defs><style>.cls-1{fill:#04b1e0;stroke-width:0px;}</style></defs><path class="cls-1" d="m114.89,78.87v39.79c0,.87-.7,1.57-1.57,1.57h-21.82c-.87,0-1.57-.7-1.57-1.57V40.3c0-.87.7-1.57,1.57-1.57h21.82c.87,0,1.57.7,1.57,1.57v11.17c4.01-10.99,11.03-14.48,17.8-14.48,19.02,0,27.22,13.79,27.22,32.8v48.86c0,.87-.7,1.57-1.57,1.57h-21.82c-.87,0-1.57-.7-1.57-1.57v-39.79c0-12.74-4.36-18.32-9.94-18.32s-10.12,5.58-10.12,18.32Z"/><path class="cls-1" d="m204.96,121.97c-20.94,0-38.39-16.93-38.39-42.57s17.45-42.4,38.39-42.4,38.38,16.75,38.38,42.4-17.45,42.57-38.38,42.57Zm0-22.16c8.03,0,13.44-9.07,13.44-20.41s-5.41-20.24-13.44-20.24-13.44,8.9-13.44,20.24,5.06,20.41,13.44,20.41Z"/><path class="cls-1" d="m290.83,38.74h15.35c.72,0,1.35.49,1.52,1.19l11.05,45.22,11.4-45.23c.18-.7.8-1.18,1.52-1.18h22.63c1.06,0,1.81,1.03,1.49,2.04l-24.99,78.35c-.21.65-.81,1.09-1.49,1.09h-18.92c-.72,0-1.34-.49-1.52-1.18l-10.35-40.87-10.52,40.88c-.18.69-.8,1.18-1.52,1.18h-18.75c-.68,0-1.29-.44-1.49-1.09l-25-78.35c-.32-1.01.43-2.04,1.49-2.04h22.63c.72,0,1.35.49,1.52,1.19l11.22,45.23,11.22-45.23c.17-.7.8-1.19,1.52-1.19Z"/><path class="cls-1" d="m363.56,0h21.82c.86,0,1.57.7,1.57,1.57v117.09c0,.86-.7,1.57-1.57,1.57h-21.82c-.86,0-1.57-.7-1.57-1.57V1.57C361.99.7,362.69,0,363.56,0Z"/><path class="cls-1" d="m855.93,36.99c-20.94,0-38.39,16.75-38.39,42.4s17.45,42.57,38.39,42.57,38.38-16.93,38.38-42.57-17.45-42.4-38.38-42.4Zm0,62.82c-8.38,0-13.44-9.07-13.44-20.41s5.06-20.24,13.44-20.24,13.44,8.9,13.44,20.24-5.41,20.41-13.44,20.41Z"/><path class="cls-1" d="m945.58,80.09v-39.79c0-.87.7-1.57,1.57-1.57h21.82c.87,0,1.57.7,1.57,1.57v78.35c0,.87-.7,1.57-1.57,1.57h-21.82c-.87,0-1.57-.7-1.57-1.57v-11.52c-4.01,11.17-12.38,14.83-18.49,14.83-19.2,0-26.53-15.35-26.53-32.8v-48.86c0-.87.7-1.57,1.57-1.57h21.99c.87,0,1.57.7,1.57,1.57v39.79c0,12.74,2.62,18.32,9.95,18.32,5.58,0,9.94-5.58,9.94-18.32Z"/><path class="cls-1" d="m1004.56,78.87v39.79c0,.87-.7,1.57-1.57,1.57h-21.82c-.87,0-1.57-.7-1.57-1.57V40.3c0-.87.7-1.57,1.57-1.57h21.82c.87,0,1.57.7,1.57,1.57v11.17c4.01-10.99,11.54-14.48,17.8-14.48,19.02,0,27.22,13.79,27.22,32.8v48.86c0,.87-.7,1.57-1.57,1.57h-21.82c-.87,0-1.57-.7-1.57-1.57v-39.79c0-12.74-4.36-18.32-9.94-18.32s-10.12,5.58-10.12,18.32Z"/><path class="cls-1" d="m1110.34,120.22c-.87,0-1.57-.7-1.57-1.57v-11.34c-3.84,9.42-11.52,14.66-20.59,14.66-19.02,0-31.76-16.93-31.76-42.57s12.74-42.4,31.76-42.4c9.07,0,16.75,5.06,20.59,14.48V1.57c0-.87.7-1.57,1.57-1.57h21.82c.87,0,1.57.7,1.57,1.57v117.09c0,.87-.7,1.57-1.57,1.57h-21.82Zm-15.52-59.5c-7.33,0-13.44,7.33-13.44,18.5s6.11,19.19,13.44,19.19,13.96-7.15,13.96-19.19-7.15-18.5-13.96-18.5Z"/><path class="cls-1" d="m808.58,0h-22.35c-.86,0-1.56.7-1.56,1.56v117.1c0,.86.7,1.56,1.56,1.56h22.35c.86,0,1.56-.7,1.56-1.56V1.56c0-.86-.7-1.56-1.56-1.56Z"/><path class="cls-1" d="m551.22,0h-21.82c-.87,0-1.57.7-1.57,1.57v49.91c-3.84-9.42-11.52-14.48-20.59-14.48-19.02,0-31.76,16.75-31.76,42.4s12.74,42.57,31.76,42.57c9.07,0,16.75-5.23,20.59-14.66v11.34c0,.87.7,1.57,1.57,1.57h21.82c.87,0,1.57-.7,1.57-1.57V1.57C552.79.7,552.09,0,551.22,0Zm-37.34,98.41c-7.33,0-13.44-8.03-13.44-19.19s6.11-18.5,13.44-18.5c6.8,0,13.96,6.28,13.96,18.5s-6.63,19.19-13.96,19.19Z"/><path class="cls-1" d="m635.68,38.74h-22c-.86,0-1.56.7-1.56,1.56v11.18c-3.66-9.42-11.34-14.48-20.42-14.48-19.02,0-31.76,16.75-31.76,42.4s12.74,42.57,31.76,42.57c10.82,0,16.75-5.23,20.42-14.66v6.28c0,20.24-9.07,25.82-16.4,25.82-8.58,0-14.52,8.49-14.52,16.31v3.36c0,.84.66,1.53,1.5,1.54,3.58.07,11.59.25,13.9.25,23.73,0,40.66-13.96,40.66-52.35V40.3c0-.86-.7-1.56-1.56-1.56Zm-37.35,59.68c-7.33,0-13.44-8.03-13.44-19.19s6.11-18.5,13.44-18.5c6.8,0,13.78,6.28,13.78,18.5s-6.45,19.19-13.78,19.19Z"/><path class="cls-1" d="m762.86,57.73c-6.12,0-9.15-1.13-11.36-2.16-3.58-1.65-6.76-4.2-9.24-7.33-.83-1.02-.67-2.53.36-3.35,1.02-.83,2.53-.67,3.35.36.05.07.11.15.16.22,1.44,2.26,3.31,4.27,5.51,5.87.46.33,1.11-.02,1.11-.59V1.56c0-.86-.7-1.56-1.56-1.56h-22.35c-.86,0-1.56.7-1.56,1.56v117.1c0,.86.7,1.56,1.56,1.56h22.35c.86,0,1.56-.7,1.56-1.56v-35.1c0-7.93,2.46-10.48,9.22-10.48s17.84-4.89,17.84-22.62v-5.5c-3.1,7.96-8.08,12.47-16.94,12.78Z"/><path class="cls-1" d="m39.38,59.99l44.68,57.48c.8,1.03.07,2.53-1.24,2.53h-27.36c-.5,0-.97-.24-1.26-.64l-28.79-39.07v38.14c0,.87-.7,1.57-1.57,1.57H1.57C.7,120,0,119.29,0,118.43V1.57C0,.7.7,0,1.57,0h22.29c.87,0,1.57.7,1.57,1.57v38.14L54.21.64C54.51.24,54.97,0,55.47,0h27.36c1.3,0,2.04,1.5,1.24,2.53l-44.68,57.46Z"/><path class="cls-1" d="m469.19,79.22c0-25.83-16.06-42.23-37.52-42.23s-38.56,16.4-38.56,42.23,16.93,42.75,38.56,42.75c13.13,0,27.36-5.47,34.49-23.5,0,0,.04-.09.09-.21.99-2.61-4.07-4.35-4.07-4.35-8.33-3.18-15.91-.35-19.77,3.08-3.08,2.74-6.53,4.05-10.22,4.05-9.07,0-13.96-9.25-13.96-14.31h50.78c.18-1.74.18-5.76.18-7.5Zm-51.12-6.98c0-10.29,7.85-14.13,13.43-14.13s12.92,4.01,12.92,14.13h-26.35Z"/><path class="cls-1" d="m720.18,79.22c0-25.83-16.06-42.23-37.52-42.23s-38.56,16.4-38.56,42.23,16.93,42.75,38.56,42.75c13.13,0,27.36-5.47,34.49-23.5,0,0,.04-.09.09-.21.99-2.61-4.07-4.35-4.07-4.35-8.33-3.18-15.91-.35-19.77,3.08-3.08,2.74-6.53,4.05-10.22,4.05-9.07,0-13.96-9.25-13.96-14.31h50.78c.18-1.74.18-5.76.18-7.5Zm-51.12-6.98c0-10.29,7.85-14.13,13.43-14.13s12.92,4.01,12.92,14.13h-26.35Z"/></svg>