<svg width="280" height="206" viewBox="0 0 280 206" fill="none" xmlns="http://www.w3.org/2000/svg">
<path d="M271.824 0.407043H8.10698C3.85452 0.407043 0.407227 3.85434 0.407227 8.1068V197.713C0.407227 201.966 3.85452 205.413 8.10698 205.413H271.824C276.076 205.413 279.523 201.966 279.523 197.713V8.1068C279.523 3.85434 276.076 0.407043 271.824 0.407043Z" fill="white" stroke="#E2E8F0" stroke-width="0.81412"/>
<path d="M0.84375 7.68219C0.84375 3.8162 3.97776 0.68219 7.84375 0.68219H249.671V17.3459H0.84375V7.68219Z" fill="#006B46"/>
<path d="M279.121 7.68219C279.121 3.8162 275.987 0.68219 272.121 0.68219H249.671V17.3459H279.121V7.68219Z" fill="#003CAB"/>
<g clip-path="url(#clip0_125_4119)">
<path d="M26.7222 32.0435V175.623" stroke="#CBD5E1" stroke-width="0.723354" stroke-linecap="square"/>
<path d="M26.0703 175.623H253.07" stroke="#CBD5E1" stroke-width="0.723354" stroke-linecap="square"/>
<path d="M55.8298 63.7026H45.4031C43.9634 63.7026 42.7964 64.8329 42.7964 66.2272V173.098C42.7964 174.493 43.9634 175.623 45.4031 175.623H55.8298C57.2694 175.623 58.4365 174.493 58.4365 173.098V66.2272C58.4365 64.8329 57.2694 63.7026 55.8298 63.7026Z" fill="#005BD7"/>
<path d="M71.0353 40.982H60.6086C59.169 40.982 58.002 42.1123 58.002 43.5065V173.098C58.002 174.493 59.169 175.623 60.6086 175.623H71.0353C72.475 175.623 73.642 174.493 73.642 173.098V43.5065C73.642 42.1123 72.475 40.982 71.0353 40.982Z" fill="#8001D8"/>
<path d="M86.6755 72.9592H76.2488C74.8091 72.9592 73.6421 74.0894 73.6421 75.4837V173.098C73.6421 174.492 74.8091 175.623 76.2488 175.623H86.6755C88.1151 175.623 89.2822 174.492 89.2822 173.098V75.4837C89.2822 74.0894 88.1151 72.9592 86.6755 72.9592Z" fill="#31CAA8"/>
<path d="M130.989 101.57H120.562C119.123 101.57 117.956 102.701 117.956 104.095V173.098C117.956 174.492 119.123 175.623 120.562 175.623H130.989C132.429 175.623 133.596 174.492 133.596 173.098V104.095C133.596 102.701 132.429 101.57 130.989 101.57Z" fill="#005BD7"/>
<path d="M146.195 87.2648H135.768C134.328 87.2648 133.161 88.395 133.161 89.7893V173.098C133.161 174.493 134.328 175.623 135.768 175.623H146.195C147.634 175.623 148.801 174.493 148.801 173.098V89.7893C148.801 88.395 147.634 87.2648 146.195 87.2648Z" fill="#8001D8"/>
<path d="M161.401 72.9592H150.974C149.534 72.9592 148.367 74.0894 148.367 75.4837V173.098C148.367 174.492 149.534 175.623 150.974 175.623H161.401C162.84 175.623 164.007 174.492 164.007 173.098V75.4837C164.007 74.0894 162.84 72.9592 161.401 72.9592Z" fill="#31CAA8"/>
<path d="M207.017 56.9706H196.591C195.151 56.9706 193.984 58.1008 193.984 59.4951V173.098C193.984 174.493 195.151 175.623 196.591 175.623H207.017C208.457 175.623 209.624 174.493 209.624 173.098V59.4951C209.624 58.1008 208.457 56.9706 207.017 56.9706Z" fill="#005BD7"/>
<path d="M222.223 72.9592H211.796C210.357 72.9592 209.189 74.0894 209.189 75.4837V173.098C209.189 174.492 210.357 175.623 211.796 175.623H222.223C223.662 175.623 224.83 174.492 224.83 173.098V75.4837C224.83 74.0894 223.662 72.9592 222.223 72.9592Z" fill="#8001D8"/>
<path d="M236.994 40.982H226.567C225.127 40.982 223.96 42.1123 223.96 43.5065V173.098C223.96 174.493 225.127 175.623 226.567 175.623H236.994C238.433 175.623 239.601 174.493 239.601 173.098V43.5065C239.601 42.1123 238.433 40.982 236.994 40.982Z" fill="#31CAA8"/>
</g>
<defs>
<clipPath id="clip0_125_4119">
<rect width="227" height="144" fill="white" transform="translate(26.0703 32.0435)"/>
</clipPath>
</defs>
</svg>
