<svg width="405" height="288" viewBox="0 0 405 288" fill="none" xmlns="http://www.w3.org/2000/svg">
<path d="M271.824 81.7357H8.10698C3.85452 81.7357 0.407227 85.183 0.407227 89.4354V279.042C0.407227 283.294 3.85452 286.742 8.10698 286.742H271.824C276.076 286.742 279.523 283.294 279.523 279.042V89.4354C279.523 85.183 276.076 81.7357 271.824 81.7357Z" fill="white" stroke="#E2E8F0" stroke-width="0.81412"/>
<path d="M131.303 93.2853H77.4049C76.3418 93.2853 75.48 94.1471 75.48 95.2102V98.0976C75.48 99.1607 76.3418 100.023 77.4049 100.023H131.303C132.366 100.023 133.228 99.1607 133.228 98.0976V95.2102C133.228 94.1471 132.366 93.2853 131.303 93.2853Z" fill="#31CAA8"/>
<path d="M196.751 93.2853H142.853C141.79 93.2853 140.928 94.1471 140.928 95.2102V98.0976C140.928 99.1607 141.79 100.023 142.853 100.023H196.751C197.814 100.023 198.676 99.1607 198.676 98.0976V95.2102C198.676 94.1471 197.814 93.2853 196.751 93.2853Z" fill="#31CAA8"/>
<path d="M262.199 93.2853H208.301C207.238 93.2853 206.376 94.1471 206.376 95.2102V98.0976C206.376 99.1607 207.238 100.023 208.301 100.023H262.199C263.262 100.023 264.124 99.1607 264.124 98.0976V95.2102C264.124 94.1471 263.262 93.2853 262.199 93.2853Z" fill="#31CAA8"/>
<path d="M65.8555 114.46H11.9572C10.8941 114.46 10.0322 115.321 10.0322 116.385V119.272C10.0322 120.335 10.8941 121.197 11.9572 121.197H65.8555C66.9186 121.197 67.7804 120.335 67.7804 119.272V116.385C67.7804 115.321 66.9186 114.46 65.8555 114.46Z" fill="#31CAA8"/>
<path d="M100.504 114.46H77.4049C76.3418 114.46 75.48 115.321 75.48 116.385V119.272C75.48 120.335 76.3418 121.197 77.4049 121.197H100.504C101.567 121.197 102.429 120.335 102.429 119.272V116.385C102.429 115.321 101.567 114.46 100.504 114.46Z" fill="#E2E8F0"/>
<path d="M165.952 114.46H142.853C141.79 114.46 140.928 115.321 140.928 116.385V119.272C140.928 120.335 141.79 121.197 142.853 121.197H165.952C167.015 121.197 167.877 120.335 167.877 119.272V116.385C167.877 115.321 167.015 114.46 165.952 114.46Z" fill="#E2E8F0"/>
<path d="M231.4 114.46H208.301C207.238 114.46 206.376 115.321 206.376 116.385V119.272C206.376 120.335 207.238 121.197 208.301 121.197H231.4C232.463 121.197 233.325 120.335 233.325 119.272V116.385C233.325 115.321 232.463 114.46 231.4 114.46Z" fill="#E2E8F0"/>
<path d="M65.8555 135.634H11.9572C10.8941 135.634 10.0322 136.496 10.0322 137.559V140.446C10.0322 141.509 10.8941 142.371 11.9572 142.371H65.8555C66.9186 142.371 67.7804 141.509 67.7804 140.446V137.559C67.7804 136.496 66.9186 135.634 65.8555 135.634Z" fill="#31CAA8"/>
<path d="M100.504 135.634H77.4049C76.3418 135.634 75.48 136.496 75.48 137.559V140.446C75.48 141.509 76.3418 142.371 77.4049 142.371H100.504C101.567 142.371 102.429 141.509 102.429 140.446V137.559C102.429 136.496 101.567 135.634 100.504 135.634Z" fill="#E2E8F0"/>
<path d="M165.952 135.634H142.853C141.79 135.634 140.928 136.496 140.928 137.559V140.446C140.928 141.509 141.79 142.371 142.853 142.371H165.952C167.015 142.371 167.877 141.509 167.877 140.446V137.559C167.877 136.496 167.015 135.634 165.952 135.634Z" fill="#E2E8F0"/>
<path d="M231.4 135.634H208.301C207.238 135.634 206.376 136.496 206.376 137.559V140.446C206.376 141.509 207.238 142.371 208.301 142.371H231.4C232.463 142.371 233.325 141.509 233.325 140.446V137.559C233.325 136.496 232.463 135.634 231.4 135.634Z" fill="#E2E8F0"/>
<path d="M65.8555 156.808H11.9572C10.8941 156.808 10.0322 157.67 10.0322 158.733V161.621C10.0322 162.684 10.8941 163.546 11.9572 163.546H65.8555C66.9186 163.546 67.7804 162.684 67.7804 161.621V158.733C67.7804 157.67 66.9186 156.808 65.8555 156.808Z" fill="#31CAA8"/>
<path d="M100.504 156.808H77.4049C76.3418 156.808 75.48 157.67 75.48 158.733V161.621C75.48 162.684 76.3418 163.546 77.4049 163.546H100.504C101.567 163.546 102.429 162.684 102.429 161.621V158.733C102.429 157.67 101.567 156.808 100.504 156.808Z" fill="#E2E8F0"/>
<path d="M165.952 156.808H142.853C141.79 156.808 140.928 157.67 140.928 158.733V161.621C140.928 162.684 141.79 163.546 142.853 163.546H165.952C167.015 163.546 167.877 162.684 167.877 161.621V158.733C167.877 157.67 167.015 156.808 165.952 156.808Z" fill="#E2E8F0"/>
<path d="M231.4 156.808H208.301C207.238 156.808 206.376 157.67 206.376 158.733V161.621C206.376 162.684 207.238 163.546 208.301 163.546H231.4C232.463 163.546 233.325 162.684 233.325 161.621V158.733C233.325 157.67 232.463 156.808 231.4 156.808Z" fill="#E2E8F0"/>
<path d="M65.8555 177.983H11.9572C10.8941 177.983 10.0322 178.844 10.0322 179.908V182.795C10.0322 183.858 10.8941 184.72 11.9572 184.72H65.8555C66.9186 184.72 67.7804 183.858 67.7804 182.795V179.908C67.7804 178.844 66.9186 177.983 65.8555 177.983Z" fill="#31CAA8"/>
<path d="M100.504 177.983H77.4049C76.3418 177.983 75.48 178.844 75.48 179.908V182.795C75.48 183.858 76.3418 184.72 77.4049 184.72H100.504C101.567 184.72 102.429 183.858 102.429 182.795V179.908C102.429 178.844 101.567 177.983 100.504 177.983Z" fill="#E2E8F0"/>
<path d="M165.952 177.983H142.853C141.79 177.983 140.928 178.844 140.928 179.908V182.795C140.928 183.858 141.79 184.72 142.853 184.72H165.952C167.015 184.72 167.877 183.858 167.877 182.795V179.908C167.877 178.844 167.015 177.983 165.952 177.983Z" fill="#E2E8F0"/>
<path d="M231.4 177.983H208.301C207.238 177.983 206.376 178.844 206.376 179.908V182.795C206.376 183.858 207.238 184.72 208.301 184.72H231.4C232.463 184.72 233.325 183.858 233.325 182.795V179.908C233.325 178.844 232.463 177.983 231.4 177.983Z" fill="#E2E8F0"/>
<path d="M65.8555 199.157H11.9572C10.8941 199.157 10.0322 200.019 10.0322 201.082V203.969C10.0322 205.032 10.8941 205.894 11.9572 205.894H65.8555C66.9186 205.894 67.7804 205.032 67.7804 203.969V201.082C67.7804 200.019 66.9186 199.157 65.8555 199.157Z" fill="#31CAA8"/>
<path d="M100.504 199.157H77.4049C76.3418 199.157 75.48 200.019 75.48 201.082V203.969C75.48 205.032 76.3418 205.894 77.4049 205.894H100.504C101.567 205.894 102.429 205.032 102.429 203.969V201.082C102.429 200.019 101.567 199.157 100.504 199.157Z" fill="#E2E8F0"/>
<path d="M165.952 199.157H142.853C141.79 199.157 140.928 200.019 140.928 201.082V203.969C140.928 205.032 141.79 205.894 142.853 205.894H165.952C167.015 205.894 167.877 205.032 167.877 203.969V201.082C167.877 200.019 167.015 199.157 165.952 199.157Z" fill="#E2E8F0"/>
<path d="M231.4 199.157H208.301C207.238 199.157 206.376 200.019 206.376 201.082V203.969C206.376 205.032 207.238 205.894 208.301 205.894H231.4C232.463 205.894 233.325 205.032 233.325 203.969V201.082C233.325 200.019 232.463 199.157 231.4 199.157Z" fill="#E2E8F0"/>
<path d="M65.8555 220.331H11.9572C10.8941 220.331 10.0322 221.193 10.0322 222.256V225.144C10.0322 226.207 10.8941 227.069 11.9572 227.069H65.8555C66.9186 227.069 67.7804 226.207 67.7804 225.144V222.256C67.7804 221.193 66.9186 220.331 65.8555 220.331Z" fill="#31CAA8"/>
<path d="M100.504 220.331H77.4049C76.3418 220.331 75.48 221.193 75.48 222.256V225.144C75.48 226.207 76.3418 227.069 77.4049 227.069H100.504C101.567 227.069 102.429 226.207 102.429 225.144V222.256C102.429 221.193 101.567 220.331 100.504 220.331Z" fill="#E2E8F0"/>
<path d="M165.952 220.331H142.853C141.79 220.331 140.928 221.193 140.928 222.256V225.144C140.928 226.207 141.79 227.069 142.853 227.069H165.952C167.015 227.069 167.877 226.207 167.877 225.144V222.256C167.877 221.193 167.015 220.331 165.952 220.331Z" fill="#E2E8F0"/>
<path d="M231.4 220.331H208.301C207.238 220.331 206.376 221.193 206.376 222.256V225.144C206.376 226.207 207.238 227.069 208.301 227.069H231.4C232.463 227.069 233.325 226.207 233.325 225.144V222.256C233.325 221.193 232.463 220.331 231.4 220.331Z" fill="#E2E8F0"/>
<path d="M65.8555 241.506H11.9572C10.8941 241.506 10.0322 242.368 10.0322 243.431V246.318C10.0322 247.381 10.8941 248.243 11.9572 248.243H65.8555C66.9186 248.243 67.7804 247.381 67.7804 246.318V243.431C67.7804 242.368 66.9186 241.506 65.8555 241.506Z" fill="#31CAA8"/>
<path d="M100.504 241.506H77.4049C76.3418 241.506 75.48 242.368 75.48 243.431V246.318C75.48 247.381 76.3418 248.243 77.4049 248.243H100.504C101.567 248.243 102.429 247.381 102.429 246.318V243.431C102.429 242.368 101.567 241.506 100.504 241.506Z" fill="#E2E8F0"/>
<path d="M165.952 241.506H142.853C141.79 241.506 140.928 242.368 140.928 243.431V246.318C140.928 247.381 141.79 248.243 142.853 248.243H165.952C167.015 248.243 167.877 247.381 167.877 246.318V243.431C167.877 242.368 167.015 241.506 165.952 241.506Z" fill="#E2E8F0"/>
<path d="M231.4 241.506H208.301C207.238 241.506 206.376 242.368 206.376 243.431V246.318C206.376 247.381 207.238 248.243 208.301 248.243H231.4C232.463 248.243 233.325 247.381 233.325 246.318V243.431C233.325 242.368 232.463 241.506 231.4 241.506Z" fill="#E2E8F0"/>
<path d="M65.8555 262.68H11.9572C10.8941 262.68 10.0322 263.542 10.0322 264.605V267.492C10.0322 268.555 10.8941 269.417 11.9572 269.417H65.8555C66.9186 269.417 67.7804 268.555 67.7804 267.492V264.605C67.7804 263.542 66.9186 262.68 65.8555 262.68Z" fill="#31CAA8"/>
<path d="M100.504 262.68H77.4049C76.3418 262.68 75.48 263.542 75.48 264.605V267.492C75.48 268.555 76.3418 269.417 77.4049 269.417H100.504C101.567 269.417 102.429 268.555 102.429 267.492V264.605C102.429 263.542 101.567 262.68 100.504 262.68Z" fill="#E2E8F0"/>
<path d="M165.952 262.68H142.853C141.79 262.68 140.928 263.542 140.928 264.605V267.492C140.928 268.555 141.79 269.417 142.853 269.417H165.952C167.015 269.417 167.877 268.555 167.877 267.492V264.605C167.877 263.542 167.015 262.68 165.952 262.68Z" fill="#E2E8F0"/>
<path d="M231.4 262.68H208.301C207.238 262.68 206.376 263.542 206.376 264.605V267.492C206.376 268.555 207.238 269.417 208.301 269.417H231.4C232.463 269.417 233.325 268.555 233.325 267.492V264.605C233.325 263.542 232.463 262.68 231.4 262.68Z" fill="#E2E8F0"/>
<g filter="url(#filter0_d_125_4089)">
<rect x="226.812" y="227.069" width="62" height="40" rx="8" fill="#149678"/>
<path d="M239.633 253.169C238.933 253.169 238.353 252.609 238.353 251.889C238.353 251.169 238.933 250.609 239.633 250.609C240.333 250.609 240.913 251.169 240.913 251.889C240.913 252.609 240.333 253.169 239.633 253.169ZM243.017 253.069L246.757 247.689L243.257 242.609H245.197L247.757 246.409L250.297 242.609H252.097L248.637 247.569L252.457 253.069H250.497L247.677 248.849L244.797 253.069H243.017ZM254.743 253.069V237.609H256.423V253.069H254.743ZM263.061 253.249C260.561 253.249 259.061 251.989 258.961 249.849H260.581C260.701 251.089 261.361 251.869 263.041 251.869C264.621 251.869 265.321 251.329 265.321 250.209C265.321 249.109 264.501 248.749 262.881 248.449C260.161 247.949 259.241 247.189 259.241 245.369C259.241 243.429 261.141 242.429 262.781 242.429C264.661 242.429 266.281 243.189 266.561 245.449H264.961C264.721 244.309 264.081 243.809 262.761 243.809C261.561 243.809 260.781 244.409 260.781 245.309C260.781 246.249 261.301 246.629 263.221 246.969C265.381 247.369 266.901 247.849 266.901 250.069C266.901 251.969 265.601 253.249 263.061 253.249ZM268.212 253.069L271.952 247.689L268.452 242.609H270.392L272.952 246.409L275.492 242.609H277.292L273.832 247.569L277.652 253.069H275.692L272.872 248.849L269.992 253.069H268.212Z" fill="white"/>
</g>
<path d="M362.154 201.343H108.046C105.479 201.343 103.397 203.398 103.397 205.932V208.992C103.397 211.526 105.479 213.581 108.046 213.581H362.154C364.721 213.581 366.802 211.526 366.802 208.992V205.932C366.802 203.398 364.721 201.343 362.154 201.343Z" fill="#E6E8ED" stroke="#E6E8ED"/>
<path d="M377.658 0.407043H113.941C109.689 0.407043 106.242 3.85434 106.242 8.1068V197.713C106.242 201.966 109.689 205.413 113.941 205.413H377.658C381.911 205.413 385.358 201.966 385.358 197.713V8.1068C385.358 3.85434 381.911 0.407043 377.658 0.407043Z" fill="white" stroke="#E2E8F0" stroke-width="0.81412"/>
<g clip-path="url(#clip0_125_4089)">
<path d="M133.059 25.2645V177.817" stroke="#CBD5E1" stroke-width="0.723354" stroke-linecap="square"/>
<path d="M132.407 177.817H359.407" stroke="#CBD5E1" stroke-width="0.723354" stroke-linecap="square"/>
<path d="M162.167 58.9023H151.74C150.3 58.9023 149.133 60.1032 149.133 61.5846V175.135C149.133 176.617 150.3 177.817 151.74 177.817H162.167C163.606 177.817 164.773 176.617 164.773 175.135V61.5846C164.773 60.1032 163.606 58.9023 162.167 58.9023Z" fill="#005BD7"/>
<path d="M177.372 34.7616H166.946C165.506 34.7616 164.339 35.9625 164.339 37.4439V175.135C164.339 176.617 165.506 177.817 166.946 177.817H177.372C178.812 177.817 179.979 176.617 179.979 175.135V37.4439C179.979 35.9625 178.812 34.7616 177.372 34.7616Z" fill="#8001D8"/>
<path d="M193.012 68.7374H182.586C181.146 68.7374 179.979 69.9383 179.979 71.4197V175.135C179.979 176.617 181.146 177.817 182.586 177.817H193.012C194.452 177.817 195.619 176.617 195.619 175.135V71.4197C195.619 69.9383 194.452 68.7374 193.012 68.7374Z" fill="#31CAA8"/>
<path d="M237.326 99.1367H226.899C225.46 99.1367 224.292 100.338 224.292 101.819V175.135C224.292 176.617 225.46 177.817 226.899 177.817H237.326C238.766 177.817 239.933 176.617 239.933 175.135V101.819C239.933 100.338 238.766 99.1367 237.326 99.1367Z" fill="#005BD7"/>
<path d="M252.531 83.937H242.105C240.665 83.937 239.498 85.1379 239.498 86.6193V175.135C239.498 176.616 240.665 177.817 242.105 177.817H252.531C253.971 177.817 255.138 176.616 255.138 175.135V86.6193C255.138 85.1379 253.971 83.937 252.531 83.937Z" fill="#8001D8"/>
<path d="M267.737 68.7374H257.311C255.871 68.7374 254.704 69.9383 254.704 71.4197V175.135C254.704 176.617 255.871 177.817 257.311 177.817H267.737C269.177 177.817 270.344 176.617 270.344 175.135V71.4197C270.344 69.9383 269.177 68.7374 267.737 68.7374Z" fill="#31CAA8"/>
<path d="M313.354 51.7495H302.927C301.488 51.7495 300.321 52.9504 300.321 54.4317V175.135C300.321 176.617 301.488 177.817 302.927 177.817H313.354C314.794 177.817 315.961 176.617 315.961 175.135V54.4317C315.961 52.9504 314.794 51.7495 313.354 51.7495Z" fill="#005BD7"/>
<path d="M328.56 68.7374H318.133C316.693 68.7374 315.526 69.9383 315.526 71.4197V175.135C315.526 176.617 316.693 177.817 318.133 177.817H328.56C329.999 177.817 331.166 176.617 331.166 175.135V71.4197C331.166 69.9383 329.999 68.7374 328.56 68.7374Z" fill="#8001D8"/>
<path d="M343.331 34.7616H332.904C331.464 34.7616 330.297 35.9625 330.297 37.4439V175.135C330.297 176.617 331.464 177.817 332.904 177.817H343.331C344.77 177.817 345.937 176.617 345.937 175.135V37.4439C345.937 35.9625 344.77 34.7616 343.331 34.7616Z" fill="#31CAA8"/>
</g>
<g filter="url(#filter1_d_125_4089)">
<rect x="329.841" y="139.901" width="69" height="40" rx="8" fill="#B18107"/>
<path d="M342.661 166.001C341.961 166.001 341.381 165.441 341.381 164.721C341.381 164.001 341.961 163.441 342.661 163.441C343.361 163.441 343.941 164.001 343.941 164.721C343.941 165.441 343.361 166.001 342.661 166.001ZM347.166 169.541V155.441H348.826V157.201C349.426 156.181 350.846 155.261 352.366 155.261C355.106 155.261 357.126 157.261 357.126 160.521V160.681C357.126 163.881 355.246 166.081 352.366 166.081C350.646 166.081 349.426 165.221 348.826 164.181V169.541H347.166ZM352.206 164.701C354.286 164.701 355.406 163.301 355.406 160.761V160.601C355.406 157.961 353.946 156.641 352.186 156.641C350.246 156.641 348.766 157.921 348.766 160.601V160.761C348.766 163.441 350.166 164.701 352.206 164.701ZM359.705 169.541V155.441H361.365V157.201C361.965 156.181 363.385 155.261 364.905 155.261C367.645 155.261 369.665 157.261 369.665 160.521V160.681C369.665 163.881 367.785 166.081 364.905 166.081C363.185 166.081 361.965 165.221 361.365 164.181V169.541H359.705ZM364.745 164.701C366.825 164.701 367.945 163.301 367.945 160.761V160.601C367.945 157.961 366.485 156.641 364.725 156.641C362.785 156.641 361.305 157.921 361.305 160.601V160.761C361.305 163.441 362.705 164.701 364.745 164.701ZM375.424 166.041C373.524 166.041 372.604 164.921 372.604 163.281V156.841H371.104V155.441H372.604V153.061H374.264V155.441H376.704V156.841H374.264V163.121C374.264 164.141 374.724 164.641 375.564 164.641C376.084 164.641 376.484 164.561 376.844 164.421V165.821C376.504 165.941 376.104 166.041 375.424 166.041ZM378.233 165.901L381.973 160.521L378.473 155.441H380.413L382.973 159.241L385.513 155.441H387.313L383.853 160.401L387.673 165.901H385.713L382.893 161.681L380.013 165.901H378.233Z" fill="white"/>
</g>
<defs>
<filter id="filter0_d_125_4089" x="210.812" y="213.069" width="94" height="72" filterUnits="userSpaceOnUse" color-interpolation-filters="sRGB">
<feFlood flood-opacity="0" result="BackgroundImageFix"/>
<feColorMatrix in="SourceAlpha" type="matrix" values="0 0 0 0 0 0 0 0 0 0 0 0 0 0 0 0 0 0 127 0" result="hardAlpha"/>
<feOffset dy="2"/>
<feGaussianBlur stdDeviation="8"/>
<feComposite in2="hardAlpha" operator="out"/>
<feColorMatrix type="matrix" values="0 0 0 0 0.2 0 0 0 0 0.254902 0 0 0 0 0.360784 0 0 0 0.24 0"/>
<feBlend mode="normal" in2="BackgroundImageFix" result="effect1_dropShadow_125_4089"/>
<feBlend mode="normal" in="SourceGraphic" in2="effect1_dropShadow_125_4089" result="shape"/>
</filter>
<filter id="filter1_d_125_4089" x="323.841" y="139.901" width="81" height="52" filterUnits="userSpaceOnUse" color-interpolation-filters="sRGB">
<feFlood flood-opacity="0" result="BackgroundImageFix"/>
<feColorMatrix in="SourceAlpha" type="matrix" values="0 0 0 0 0 0 0 0 0 0 0 0 0 0 0 0 0 0 127 0" result="hardAlpha"/>
<feOffset dy="6"/>
<feGaussianBlur stdDeviation="3"/>
<feComposite in2="hardAlpha" operator="out"/>
<feColorMatrix type="matrix" values="0 0 0 0 0.2 0 0 0 0 0.254902 0 0 0 0 0.360784 0 0 0 0.08 0"/>
<feBlend mode="normal" in2="BackgroundImageFix" result="effect1_dropShadow_125_4089"/>
<feBlend mode="normal" in="SourceGraphic" in2="effect1_dropShadow_125_4089" result="shape"/>
</filter>
<clipPath id="clip0_125_4089">
<rect width="227" height="153" fill="white" transform="translate(132.407 25.2645)"/>
</clipPath>
</defs>
</svg>
