<svg width="361" height="276" viewBox="0 0 361 276" fill="none" xmlns="http://www.w3.org/2000/svg">
<path fill-rule="evenodd" clip-rule="evenodd" d="M73.3109 40.7718L72.7305 40.7679C113.196 40.7679 146 72.3319 146 111.268C146 150.118 113.342 181.628 73 181.767L73.0001 138.685C73.0072 138.685 73.0142 138.685 73.0212 138.685C88.5973 138.685 101.224 126.535 101.224 111.548C101.224 96.654 88.7545 84.5627 73.3127 84.4122L73.3109 40.7718Z" fill="#8001D8"/>
<path fill-rule="evenodd" clip-rule="evenodd" d="M73.698 40.7718L73.6971 84.4122C58.0407 84.5625 45.3976 96.6539 45.3976 111.548C45.3976 126.535 58.1999 138.685 73.9923 138.685C73.9949 138.685 73.9976 138.685 74.0003 138.685L73.9997 181.767C33.1043 181.62 0 150.113 0 111.268C0 72.3319 33.2594 40.7679 74.287 40.7679L73.698 40.7718Z" fill="#005BD7"/>
<path d="M188.599 5.08105V125.628" stroke="#CCD1DB" stroke-linecap="square"/>
<path d="M188.599 124.185H357.509" stroke="#CCD1DB" stroke-linecap="square"/>
<path d="M190.042 36.1201H357.509" stroke="#DDE1E7" stroke-dasharray="3 2"/>
<path d="M190.042 67.8811H357.509" stroke="#DDE1E7" stroke-dasharray="3 2"/>
<path d="M190.042 99.642H357.509" stroke="#DDE1E7" stroke-dasharray="3 2"/>
<path d="M195.817 82.3178L217.039 96.7546L253.131 68.6029L294.853 83.4006L356.065 18.796" stroke="#005BD7" stroke-width="2" stroke-linecap="round" stroke-linejoin="round"/>
<path d="M195.817 85.927C197.811 85.927 199.426 84.3111 199.426 82.3178C199.426 80.3245 197.811 78.7086 195.817 78.7086C193.824 78.7086 192.208 80.3245 192.208 82.3178C192.208 84.3111 193.824 85.927 195.817 85.927Z" fill="white" stroke="#005BD7" stroke-width="1.5"/>
<path d="M217.039 100.364C219.032 100.364 220.648 98.7479 220.648 96.7546C220.648 94.7613 219.032 93.1454 217.039 93.1454C215.046 93.1454 213.43 94.7613 213.43 96.7546C213.43 98.7479 215.046 100.364 217.039 100.364Z" fill="white" stroke="#005BD7" stroke-width="1.5"/>
<path d="M253.131 72.2121C255.124 72.2121 256.74 70.5962 256.74 68.6029C256.74 66.6096 255.124 64.9937 253.131 64.9937C251.138 64.9937 249.522 66.6096 249.522 68.6029C249.522 70.5962 251.138 72.2121 253.131 72.2121Z" fill="white" stroke="#005BD7" stroke-width="1.5"/>
<path d="M294.853 87.0098C296.847 87.0098 298.463 85.3939 298.463 83.4006C298.463 81.4073 296.847 79.7914 294.853 79.7914C292.86 79.7914 291.244 81.4073 291.244 83.4006C291.244 85.3939 292.86 87.0098 294.853 87.0098Z" fill="white" stroke="#005BD7" stroke-width="1.5"/>
<path d="M356.065 22.4052C358.059 22.4052 359.674 20.7893 359.674 18.796C359.674 16.8027 358.059 15.1868 356.065 15.1868C354.072 15.1868 352.456 16.8027 352.456 18.796C352.456 20.7893 354.072 22.4052 356.065 22.4052Z" fill="white" stroke="#005BD7" stroke-width="1.5"/>
<path d="M198.704 66.8705L216.173 86.6489L251.832 57.3422L293.698 77.1206L354.622 34.6765" stroke="#8001D8" stroke-width="2" stroke-linecap="round" stroke-linejoin="round"/>
<path d="M198.704 70.4797C200.698 70.4797 202.314 68.8638 202.314 66.8705C202.314 64.8772 200.698 63.2613 198.704 63.2613C196.711 63.2613 195.095 64.8772 195.095 66.8705C195.095 68.8638 196.711 70.4797 198.704 70.4797Z" fill="white" stroke="#8001D8" stroke-width="1.5"/>
<path d="M216.173 90.2581C218.166 90.2581 219.782 88.6422 219.782 86.6489C219.782 84.6556 218.166 83.0397 216.173 83.0397C214.18 83.0397 212.564 84.6556 212.564 86.6489C212.564 88.6422 214.18 90.2581 216.173 90.2581Z" fill="white" stroke="#8001D8" stroke-width="1.5"/>
<path d="M251.832 60.9514C253.825 60.9514 255.441 59.3355 255.441 57.3422C255.441 55.3489 253.825 53.733 251.832 53.733C249.839 53.733 248.223 55.3489 248.223 57.3422C248.223 59.3355 249.839 60.9514 251.832 60.9514Z" fill="white" stroke="#8001D8" stroke-width="1.5"/>
<path d="M293.699 80.7298C295.692 80.7298 297.308 79.1139 297.308 77.1206C297.308 75.1273 295.692 73.5114 293.699 73.5114C291.705 73.5114 290.089 75.1273 290.089 77.1206C290.089 79.1139 291.705 80.7298 293.699 80.7298Z" fill="white" stroke="#8001D8" stroke-width="1.5"/>
<path d="M354.622 38.2856C356.615 38.2856 358.231 36.6697 358.231 34.6764C358.231 32.6831 356.615 31.0672 354.622 31.0672C352.628 31.0672 351.012 32.6831 351.012 34.6764C351.012 36.6697 352.628 38.2856 354.622 38.2856Z" fill="white" stroke="#8001D8" stroke-width="1.5"/>
<path d="M198.704 73.8002L216.173 114.079L253.131 48.5358L293.698 100.508L354.622 4.35922" stroke="#31CAA8" stroke-width="2" stroke-linecap="round" stroke-linejoin="round"/>
<path d="M198.704 77.4093C200.698 77.4093 202.314 75.7934 202.314 73.8001C202.314 71.8068 200.698 70.1909 198.704 70.1909C196.711 70.1909 195.095 71.8068 195.095 73.8001C195.095 75.7934 196.711 77.4093 198.704 77.4093Z" fill="white" stroke="#31CAA8" stroke-width="1.5"/>
<path d="M216.173 117.688C218.166 117.688 219.782 116.072 219.782 114.079C219.782 112.085 218.166 110.47 216.173 110.47C214.18 110.47 212.564 112.085 212.564 114.079C212.564 116.072 214.18 117.688 216.173 117.688Z" fill="white" stroke="#31CAA8" stroke-width="1.5"/>
<path d="M253.131 52.145C255.124 52.145 256.74 50.5291 256.74 48.5358C256.74 46.5425 255.124 44.9266 253.131 44.9266C251.138 44.9266 249.522 46.5425 249.522 48.5358C249.522 50.5291 251.138 52.145 253.131 52.145Z" fill="white" stroke="#31CAA8" stroke-width="1.5"/>
<path d="M293.699 104.117C295.692 104.117 297.308 102.501 297.308 100.508C297.308 98.5148 295.692 96.899 293.699 96.899C291.705 96.899 290.089 98.5148 290.089 100.508C290.089 102.501 291.705 104.117 293.699 104.117Z" fill="white" stroke="#31CAA8" stroke-width="1.5"/>
<path d="M354.622 7.96839C356.615 7.96839 358.231 6.3525 358.231 4.3592C358.231 2.36589 356.615 0.75 354.622 0.75C352.628 0.75 351.012 2.36589 351.012 4.3592C351.012 6.3525 352.628 7.96839 354.622 7.96839Z" fill="white" stroke="#31CAA8" stroke-width="1.5"/>
<g clip-path="url(#clip0_125_3156)">
<path d="M162.868 150.768V275.403" stroke="#CBD5E1" stroke-width="0.723354" stroke-linecap="square"/>
<path d="M162.42 275.403H318.42" stroke="#CBD5E1" stroke-width="0.723354" stroke-linecap="square"/>
<path d="M182.871 178.25H175.706C174.717 178.25 173.915 179.231 173.915 180.441V273.211C173.915 274.422 174.717 275.403 175.706 275.403H182.871C183.861 275.403 184.663 274.422 184.663 273.211V180.441C184.663 179.231 183.861 178.25 182.871 178.25Z" fill="#005BD7"/>
<path d="M193.321 158.527H186.156C185.166 158.527 184.364 159.508 184.364 160.718V273.211C184.364 274.422 185.166 275.403 186.156 275.403H193.321C194.31 275.403 195.113 274.422 195.113 273.211V160.718C195.113 159.508 194.31 158.527 193.321 158.527Z" fill="#8001D8"/>
<path d="M204.069 186.285H196.904C195.915 186.285 195.113 187.266 195.113 188.476V273.211C195.113 274.422 195.915 275.403 196.904 275.403H204.069C205.059 275.403 205.861 274.422 205.861 273.211V188.476C205.861 187.266 205.059 186.285 204.069 186.285Z" fill="#31CAA8"/>
<path d="M234.523 211.121H227.357C226.368 211.121 225.566 212.102 225.566 213.313V273.211C225.566 274.422 226.368 275.403 227.357 275.403H234.523C235.512 275.403 236.314 274.422 236.314 273.211V213.313C236.314 212.102 235.512 211.121 234.523 211.121Z" fill="#005BD7"/>
<path d="M244.972 198.703H237.807C236.818 198.703 236.016 199.684 236.016 200.894V273.211C236.016 274.422 236.818 275.403 237.807 275.403H244.972C245.962 275.403 246.764 274.422 246.764 273.211V200.894C246.764 199.684 245.962 198.703 244.972 198.703Z" fill="#8001D8"/>
<path d="M255.422 186.285H248.256C247.267 186.285 246.465 187.266 246.465 188.476V273.211C246.465 274.422 247.267 275.403 248.256 275.403H255.422C256.411 275.403 257.213 274.422 257.213 273.211V188.476C257.213 187.266 256.411 186.285 255.422 186.285Z" fill="#31CAA8"/>
<path d="M286.771 172.406H279.606C278.616 172.406 277.814 173.387 277.814 174.597V273.211C277.814 274.422 278.616 275.403 279.606 275.403H286.771C287.76 275.403 288.562 274.422 288.562 273.211V174.597C288.562 173.387 287.76 172.406 286.771 172.406Z" fill="#005BD7"/>
<path d="M297.221 186.285H290.055C289.066 186.285 288.264 187.266 288.264 188.476V273.211C288.264 274.422 289.066 275.403 290.055 275.403H297.221C298.21 275.403 299.012 274.422 299.012 273.211V188.476C299.012 187.266 298.21 186.285 297.221 186.285Z" fill="#8001D8"/>
<path d="M307.372 158.527H300.206C299.217 158.527 298.415 159.508 298.415 160.718V273.211C298.415 274.422 299.217 275.403 300.206 275.403H307.372C308.361 275.403 309.163 274.422 309.163 273.211V160.718C309.163 159.508 308.361 158.527 307.372 158.527Z" fill="#31CAA8"/>
</g>
<defs>
<clipPath id="clip0_125_3156">
<rect width="156" height="125" fill="white" transform="translate(162.42 150.768)"/>
</clipPath>
</defs>
</svg>
