<svg width="374" height="244" viewBox="0 0 374 244" fill="none" xmlns="http://www.w3.org/2000/svg">
<path d="M276.387 7.3457H86.167C79.7021 7.3457 74.4612 12.5866 74.4612 19.0516V109.772C74.4612 116.237 79.7021 121.478 86.167 121.478H276.387C282.852 121.478 288.093 116.237 288.093 109.772V19.0516C288.093 12.5866 282.852 7.3457 276.387 7.3457Z" fill="white" stroke="#DDE1E7"/>
<path d="M168.108 21.978H141.77C140.153 21.978 138.843 23.2882 138.843 24.9045V27.831C138.843 29.4472 140.153 30.7574 141.77 30.7574H168.108C169.724 30.7574 171.034 29.4472 171.034 27.831V24.9045C171.034 23.2882 169.724 21.978 168.108 21.978Z" fill="#31CAA8"/>
<path d="M214.931 21.978H188.593C186.977 21.978 185.667 23.2882 185.667 24.9045V27.831C185.667 29.4472 186.977 30.7574 188.593 30.7574H214.931C216.548 30.7574 217.858 29.4472 217.858 27.831V24.9045C217.858 23.2882 216.548 21.978 214.931 21.978Z" fill="#31CAA8"/>
<path d="M261.755 21.978H235.417C233.8 21.978 232.49 23.2882 232.49 24.9045V27.831C232.49 29.4472 233.8 30.7574 235.417 30.7574H261.755C263.371 30.7574 264.681 29.4472 264.681 27.831V24.9045C264.681 23.2882 263.371 21.978 261.755 21.978Z" fill="#31CAA8"/>
<path d="M124.211 41H97.8729C96.2566 41 94.9464 42.3102 94.9464 43.9265V46.8529C94.9464 48.4692 96.2566 49.7794 97.8729 49.7794H124.211C125.827 49.7794 127.138 48.4692 127.138 46.8529V43.9265C127.138 42.3102 125.827 41 124.211 41Z" fill="#31CAA8"/>
<path d="M124.211 60.022H97.8729C96.2566 60.022 94.9464 61.3323 94.9464 62.9485V65.875C94.9464 67.4912 96.2566 68.8014 97.8729 68.8014H124.211C125.827 68.8014 127.138 67.4912 127.138 65.875V62.9485C127.138 61.3323 125.827 60.022 124.211 60.022Z" fill="#31CAA8"/>
<path d="M124.211 79.0441H97.8729C96.2566 79.0441 94.9464 80.3543 94.9464 81.9705V84.897C94.9464 86.5132 96.2566 87.8235 97.8729 87.8235H124.211C125.827 87.8235 127.138 86.5132 127.138 84.897V81.9705C127.138 80.3543 125.827 79.0441 124.211 79.0441Z" fill="#31CAA8"/>
<path d="M124.211 98.0661H97.8729C96.2566 98.0661 94.9464 99.3763 94.9464 100.993V103.919C94.9464 105.535 96.2566 106.845 97.8729 106.845H124.211C125.827 106.845 127.138 105.535 127.138 103.919V100.993C127.138 99.3763 125.827 98.0661 124.211 98.0661Z" fill="#31CAA8"/>
<path d="M160.792 41H149.086C147.47 41 146.159 42.3102 146.159 43.9265V46.8529C146.159 48.4692 147.47 49.7794 149.086 49.7794H160.792C162.408 49.7794 163.718 48.4692 163.718 46.8529V43.9265C163.718 42.3102 162.408 41 160.792 41Z" fill="#DDE1E7"/>
<path d="M207.615 41H195.909C194.293 41 192.983 42.3102 192.983 43.9265V46.8529C192.983 48.4692 194.293 49.7794 195.909 49.7794H207.615C209.231 49.7794 210.542 48.4692 210.542 46.8529V43.9265C210.542 42.3102 209.231 41 207.615 41Z" fill="#DDE1E7"/>
<path d="M254.439 41H242.733C241.117 41 239.806 42.3102 239.806 43.9265V46.8529C239.806 48.4692 241.117 49.7794 242.733 49.7794H254.439C256.055 49.7794 257.365 48.4692 257.365 46.8529V43.9265C257.365 42.3102 256.055 41 254.439 41Z" fill="#DDE1E7"/>
<path d="M160.792 60.022H149.086C147.47 60.022 146.159 61.3323 146.159 62.9485V65.875C146.159 67.4912 147.47 68.8014 149.086 68.8014H160.792C162.408 68.8014 163.718 67.4912 163.718 65.875V62.9485C163.718 61.3323 162.408 60.022 160.792 60.022Z" fill="#DDE1E7"/>
<path d="M207.615 60.022H195.909C194.293 60.022 192.983 61.3323 192.983 62.9485V65.875C192.983 67.4912 194.293 68.8014 195.909 68.8014H207.615C209.231 68.8014 210.542 67.4912 210.542 65.875V62.9485C210.542 61.3323 209.231 60.022 207.615 60.022Z" fill="#DDE1E7"/>
<path d="M254.439 60.022H242.733C241.117 60.022 239.806 61.3323 239.806 62.9485V65.875C239.806 67.4912 241.117 68.8014 242.733 68.8014H254.439C256.055 68.8014 257.365 67.4912 257.365 65.875V62.9485C257.365 61.3323 256.055 60.022 254.439 60.022Z" fill="#DDE1E7"/>
<path d="M160.792 79.0441H149.086C147.47 79.0441 146.159 80.3543 146.159 81.9705V84.897C146.159 86.5132 147.47 87.8235 149.086 87.8235H160.792C162.408 87.8235 163.718 86.5132 163.718 84.897V81.9705C163.718 80.3543 162.408 79.0441 160.792 79.0441Z" fill="#DDE1E7"/>
<path d="M207.615 79.0441H195.909C194.293 79.0441 192.983 80.3543 192.983 81.9705V84.897C192.983 86.5132 194.293 87.8235 195.909 87.8235H207.615C209.231 87.8235 210.542 86.5132 210.542 84.897V81.9705C210.542 80.3543 209.231 79.0441 207.615 79.0441Z" fill="#DDE1E7"/>
<path d="M254.439 79.0441H242.733C241.117 79.0441 239.806 80.3543 239.806 81.9705V84.897C239.806 86.5132 241.117 87.8235 242.733 87.8235H254.439C256.055 87.8235 257.365 86.5132 257.365 84.897V81.9705C257.365 80.3543 256.055 79.0441 254.439 79.0441Z" fill="#DDE1E7"/>
<path d="M160.792 98.0661H149.086C147.47 98.0661 146.159 99.3763 146.159 100.993V103.919C146.159 105.535 147.47 106.845 149.086 106.845H160.792C162.408 106.845 163.718 105.535 163.718 103.919V100.993C163.718 99.3763 162.408 98.0661 160.792 98.0661Z" fill="#DDE1E7"/>
<path d="M207.615 98.0661H195.909C194.293 98.0661 192.983 99.3763 192.983 100.993V103.919C192.983 105.535 194.293 106.845 195.909 106.845H207.615C209.231 106.845 210.542 105.535 210.542 103.919V100.993C210.542 99.3763 209.231 98.0661 207.615 98.0661Z" fill="#DDE1E7"/>
<path d="M254.439 98.0661H242.733C241.117 98.0661 239.806 99.3763 239.806 100.993V103.919C239.806 105.535 241.117 106.845 242.733 106.845H254.439C256.055 106.845 257.365 105.535 257.365 103.919V100.993C257.365 99.3763 256.055 98.0661 254.439 98.0661Z" fill="#DDE1E7"/>
<path d="M0.5 98.7288V226.112" stroke="#CCD1DB" stroke-linecap="square"/>
<path d="M0.5 224.586H178.989" stroke="#CCD1DB" stroke-linecap="square"/>
<path d="M2.02551 131.528H178.989" stroke="#DDE1E7" stroke-dasharray="3 2"/>
<path d="M2.02551 165.09H178.989" stroke="#DDE1E7" stroke-dasharray="3 2"/>
<path d="M2.02551 198.652H178.989" stroke="#DDE1E7" stroke-dasharray="3 2"/>
<path d="M8.12769 180.345L30.5532 195.601L68.6918 165.853L112.78 181.49L177.463 113.221" stroke="#005BD7" stroke-width="2" stroke-linecap="round" stroke-linejoin="round"/>
<path d="M8.12771 184.159C10.234 184.159 11.9416 182.452 11.9416 180.345C11.9416 178.239 10.234 176.532 8.12771 176.532C6.02137 176.532 4.31384 178.239 4.31384 180.345C4.31384 182.452 6.02137 184.159 8.12771 184.159Z" fill="white" stroke="#005BD7" stroke-width="1.5"/>
<path d="M30.5532 199.415C32.6596 199.415 34.3671 197.707 34.3671 195.601C34.3671 193.495 32.6596 191.787 30.5532 191.787C28.4469 191.787 26.7394 193.495 26.7394 195.601C26.7394 197.707 28.4469 199.415 30.5532 199.415Z" fill="white" stroke="#005BD7" stroke-width="1.5"/>
<path d="M68.6919 169.667C70.7983 169.667 72.5058 167.959 72.5058 165.853C72.5058 163.746 70.7983 162.039 68.6919 162.039C66.5856 162.039 64.8781 163.746 64.8781 165.853C64.8781 167.959 66.5856 169.667 68.6919 169.667Z" fill="white" stroke="#005BD7" stroke-width="1.5"/>
<path d="M112.78 185.304C114.887 185.304 116.594 183.596 116.594 181.49C116.594 179.383 114.887 177.676 112.78 177.676C110.674 177.676 108.966 179.383 108.966 181.49C108.966 183.596 110.674 185.304 112.78 185.304Z" fill="white" stroke="#005BD7" stroke-width="1.5"/>
<path d="M177.463 117.035C179.57 117.035 181.277 115.328 181.277 113.221C181.277 111.115 179.57 109.408 177.463 109.408C175.357 109.408 173.649 111.115 173.649 113.221C173.649 115.328 175.357 117.035 177.463 117.035Z" fill="white" stroke="#005BD7" stroke-width="1.5"/>
<path d="M11.1788 164.022L29.6379 184.922L67.3189 153.954L111.56 174.854L175.938 130.003" stroke="#8001D8" stroke-width="2" stroke-linecap="round" stroke-linejoin="round"/>
<path d="M11.1789 167.836C13.2852 167.836 14.9927 166.128 14.9927 164.022C14.9927 161.916 13.2852 160.208 11.1789 160.208C9.07251 160.208 7.36499 161.916 7.36499 164.022C7.36499 166.128 9.07251 167.836 11.1789 167.836Z" fill="white" stroke="#8001D8" stroke-width="1.5"/>
<path d="M29.638 188.736C31.7443 188.736 33.4518 187.028 33.4518 184.922C33.4518 182.816 31.7443 181.108 29.638 181.108C27.5316 181.108 25.8241 182.816 25.8241 184.922C25.8241 187.028 27.5316 188.736 29.638 188.736Z" fill="white" stroke="#8001D8" stroke-width="1.5"/>
<path d="M67.3189 157.767C69.4252 157.767 71.1327 156.06 71.1327 153.954C71.1327 151.847 69.4252 150.14 67.3189 150.14C65.2125 150.14 63.505 151.847 63.505 153.954C63.505 156.06 65.2125 157.767 67.3189 157.767Z" fill="white" stroke="#8001D8" stroke-width="1.5"/>
<path d="M111.56 178.667C113.666 178.667 115.374 176.96 115.374 174.854C115.374 172.747 113.666 171.04 111.56 171.04C109.453 171.04 107.746 172.747 107.746 174.854C107.746 176.96 109.453 178.667 111.56 178.667Z" fill="white" stroke="#8001D8" stroke-width="1.5"/>
<path d="M175.938 133.816C178.044 133.816 179.752 132.109 179.752 130.002C179.752 127.896 178.044 126.189 175.938 126.189C173.831 126.189 172.124 127.896 172.124 130.002C172.124 132.109 173.831 133.816 175.938 133.816Z" fill="white" stroke="#8001D8" stroke-width="1.5"/>
<path d="M11.1788 171.345L29.6379 213.908L68.6919 144.648L111.56 199.567L175.938 97.9661" stroke="#31CAA8" stroke-width="2" stroke-linecap="round" stroke-linejoin="round"/>
<path d="M11.1789 175.159C13.2852 175.159 14.9927 173.451 14.9927 171.345C14.9927 169.238 13.2852 167.531 11.1789 167.531C9.07251 167.531 7.36499 169.238 7.36499 171.345C7.36499 173.451 9.07251 175.159 11.1789 175.159Z" fill="white" stroke="#31CAA8" stroke-width="1.5"/>
<path d="M29.638 217.721C31.7443 217.721 33.4518 216.014 33.4518 213.907C33.4518 211.801 31.7443 210.094 29.638 210.094C27.5316 210.094 25.8241 211.801 25.8241 213.907C25.8241 216.014 27.5316 217.721 29.638 217.721Z" fill="white" stroke="#31CAA8" stroke-width="1.5"/>
<path d="M68.6919 148.462C70.7983 148.462 72.5058 146.754 72.5058 144.648C72.5058 142.541 70.7983 140.834 68.6919 140.834C66.5856 140.834 64.8781 142.541 64.8781 144.648C64.8781 146.754 66.5856 148.462 68.6919 148.462Z" fill="white" stroke="#31CAA8" stroke-width="1.5"/>
<path d="M111.56 203.381C113.666 203.381 115.374 201.674 115.374 199.567C115.374 197.461 113.666 195.753 111.56 195.753C109.453 195.753 107.746 197.461 107.746 199.567C107.746 201.674 109.453 203.381 111.56 203.381Z" fill="white" stroke="#31CAA8" stroke-width="1.5"/>
<path d="M175.938 101.78C178.044 101.78 179.752 100.072 179.752 97.966C179.752 95.8597 178.044 94.1522 175.938 94.1522C173.831 94.1522 172.124 95.8597 172.124 97.966C172.124 100.072 173.831 101.78 175.938 101.78Z" fill="white" stroke="#31CAA8" stroke-width="1.5"/>
<path d="M226.658 79.0441V241.457" stroke="#CCD1DB" stroke-linecap="square"/>
<path d="M343.747 79.0441H232.324C230.238 79.0441 228.547 80.7351 228.547 82.8211V88.4867C228.547 90.5727 230.238 92.2637 232.324 92.2637H343.747C345.833 92.2637 347.524 90.5727 347.524 88.4867V82.8211C347.524 80.7351 345.833 79.0441 343.747 79.0441Z" fill="#005BD7"/>
<path d="M370.186 94.1522H232.324C230.238 94.1522 228.547 95.8433 228.547 97.9293V103.595C228.547 105.681 230.238 107.372 232.324 107.372H370.186C372.272 107.372 373.963 105.681 373.963 103.595V97.9293C373.963 95.8433 372.272 94.1522 370.186 94.1522Z" fill="#8001D8"/>
<path d="M334.304 109.26H232.324C230.238 109.26 228.547 110.952 228.547 113.038V118.703C228.547 120.789 230.238 122.48 232.324 122.48H334.304C336.39 122.48 338.081 120.789 338.081 118.703V113.038C338.081 110.952 336.39 109.26 334.304 109.26Z" fill="#31CAA8"/>
<path d="M302.199 139.477H232.324C230.238 139.477 228.547 141.168 228.547 143.254V148.919C228.547 151.005 230.238 152.697 232.324 152.697H302.199C304.285 152.697 305.976 151.005 305.976 148.919V143.254C305.976 141.168 304.285 139.477 302.199 139.477Z" fill="#005BD7"/>
<path d="M319.196 154.585H232.324C230.238 154.585 228.547 156.276 228.547 158.362V164.028C228.547 166.114 230.238 167.805 232.324 167.805H319.196C321.282 167.805 322.973 166.114 322.973 164.028V158.362C322.973 156.276 321.282 154.585 319.196 154.585Z" fill="#8001D8"/>
<path d="M334.304 169.693H232.324C230.238 169.693 228.547 171.384 228.547 173.47V179.136C228.547 181.222 230.238 182.913 232.324 182.913H334.304C336.39 182.913 338.081 181.222 338.081 179.136V173.47C338.081 171.384 336.39 169.693 334.304 169.693Z" fill="#31CAA8"/>
<path d="M349.412 199.91H232.324C230.238 199.91 228.547 201.601 228.547 203.687V209.352C228.547 211.438 230.238 213.129 232.324 213.129H349.412C351.498 213.129 353.189 211.438 353.189 209.352V203.687C353.189 201.601 351.498 199.91 349.412 199.91Z" fill="#005BD7"/>
<path d="M332.416 215.018H232.324C230.238 215.018 228.547 216.709 228.547 218.795V224.46C228.547 226.546 230.238 228.237 232.324 228.237H332.416C334.502 228.237 336.193 226.546 336.193 224.46V218.795C336.193 216.709 334.502 215.018 332.416 215.018Z" fill="#8001D8"/>
<path d="M370.186 230.126H232.324C230.238 230.126 228.547 231.817 228.547 233.903V239.569C228.547 241.655 230.238 243.346 232.324 243.346H370.186C372.272 243.346 373.963 241.655 373.963 239.569V233.903C373.963 231.817 372.272 230.126 370.186 230.126Z" fill="#31CAA8"/>
<g filter="url(#filter0_dd_125_3042)">
<mask id="path-54-inside-1_125_3042" fill="white">
<path d="M30.5532 10C30.5532 5.58172 34.1349 2 38.5532 2H82.5532C86.9715 2 90.5532 5.58172 90.5532 10V33C90.5532 37.4183 86.9715 41 82.5532 41H38.5532C34.1349 41 30.5532 37.4183 30.5532 33V10Z"/>
</mask>
<path d="M30.5532 10C30.5532 5.58172 34.1349 2 38.5532 2H82.5532C86.9715 2 90.5532 5.58172 90.5532 10V33C90.5532 37.4183 86.9715 41 82.5532 41H38.5532C34.1349 41 30.5532 37.4183 30.5532 33V10Z" fill="white" shape-rendering="crispEdges"/>
<path d="M38.5532 2V3H82.5532V2V1H38.5532V2ZM90.5532 10H89.5532V33H90.5532H91.5532V10H90.5532ZM82.5532 41V40H38.5532V41V42H82.5532V41ZM30.5532 33H31.5532V10H30.5532H29.5532V33H30.5532ZM38.5532 41V40C34.6872 40 31.5532 36.866 31.5532 33H30.5532H29.5532C29.5532 37.9706 33.5827 42 38.5532 42V41ZM90.5532 33H89.5532C89.5532 36.866 86.4192 40 82.5532 40V41V42C87.5238 42 91.5532 37.9706 91.5532 33H90.5532ZM82.5532 2V3C86.4192 3 89.5532 6.13401 89.5532 10H90.5532H91.5532C91.5532 5.02944 87.5238 1 82.5532 1V2ZM38.5532 2V1C33.5827 1 29.5532 5.02944 29.5532 10H30.5532H31.5532C31.5532 6.13401 34.6872 3 38.5532 3V2Z" fill="#E2E8F0" mask="url(#path-54-inside-1_125_3042)"/>
<g clip-path="url(#clip0_125_3042)">
<path d="M39.1247 16.8636C39.9925 16.8636 40.6961 16.1717 40.6961 15.3182C40.6961 14.4646 39.9925 13.7727 39.1247 13.7727C38.2568 13.7727 37.5532 14.4646 37.5532 15.3182C37.5532 16.1717 38.2568 16.8636 39.1247 16.8636Z" fill="#CBD5E1"/>
<path d="M43.8389 16.8636C44.7068 16.8636 45.4103 16.1717 45.4103 15.3182C45.4103 14.4646 44.7068 13.7727 43.8389 13.7727C42.971 13.7727 42.2675 14.4646 42.2675 15.3182C42.2675 16.1717 42.971 16.8636 43.8389 16.8636Z" fill="#CBD5E1"/>
<path d="M39.1247 23.0454C39.9925 23.0454 40.6961 22.3535 40.6961 21.5C40.6961 20.6465 39.9925 19.9545 39.1247 19.9545C38.2568 19.9545 37.5532 20.6465 37.5532 21.5C37.5532 22.3535 38.2568 23.0454 39.1247 23.0454Z" fill="#CBD5E1"/>
<path d="M43.8389 23.0454C44.7068 23.0454 45.4103 22.3535 45.4103 21.5C45.4103 20.6465 44.7068 19.9545 43.8389 19.9545C42.971 19.9545 42.2675 20.6465 42.2675 21.5C42.2675 22.3535 42.971 23.0454 43.8389 23.0454Z" fill="#CBD5E1"/>
<path d="M39.1247 29.2273C39.9925 29.2273 40.6961 28.5353 40.6961 27.6818C40.6961 26.8283 39.9925 26.1364 39.1247 26.1364C38.2568 26.1364 37.5532 26.8283 37.5532 27.6818C37.5532 28.5353 38.2568 29.2273 39.1247 29.2273Z" fill="#CBD5E1"/>
<path d="M43.8389 29.2273C44.7068 29.2273 45.4103 28.5353 45.4103 27.6818C45.4103 26.8283 44.7068 26.1364 43.8389 26.1364C42.971 26.1364 42.2675 26.8283 42.2675 27.6818C42.2675 28.5353 42.971 29.2273 43.8389 29.2273Z" fill="#CBD5E1"/>
</g>
<path d="M54.4396 27.2905H52.9623L57.235 15.6541H58.6896L62.9623 27.2905H61.485L58.0078 17.495H57.9169L54.4396 27.2905ZM54.985 22.745H60.9396V23.995H54.985V22.745ZM68.1802 30.745C67.5324 30.745 66.9756 30.6617 66.5097 30.495C66.0438 30.3321 65.6556 30.1162 65.3449 29.8473C65.0381 29.5821 64.7938 29.298 64.612 28.995L65.6802 28.245C65.8014 28.4041 65.9548 28.5859 66.1404 28.7905C66.326 28.9988 66.5798 29.1787 66.9018 29.3302C67.2275 29.4855 67.6537 29.5632 68.1802 29.5632C68.8847 29.5632 69.4662 29.3927 69.9245 29.0518C70.3828 28.7109 70.612 28.1768 70.612 27.4496V25.6768H70.4984C70.3999 25.8359 70.2597 26.0329 70.0779 26.2677C69.8999 26.4988 69.6423 26.7052 69.3052 26.8871C68.9718 27.0651 68.5211 27.1541 67.9529 27.1541C67.2484 27.1541 66.6158 26.9874 66.0552 26.6541C65.4984 26.3208 65.0571 25.8359 64.7313 25.1996C64.4093 24.5632 64.2484 23.7905 64.2484 22.8814C64.2484 21.9874 64.4056 21.209 64.7199 20.5461C65.0343 19.8795 65.4718 19.3643 66.0324 19.0007C66.5931 18.6333 67.2408 18.4496 67.9756 18.4496C68.5438 18.4496 68.9946 18.5443 69.3279 18.7336C69.665 18.9193 69.9226 19.1314 70.1006 19.37C70.2824 19.6049 70.4226 19.798 70.5211 19.9496H70.6574V18.5632H71.9529V27.5405C71.9529 28.2905 71.7824 28.9003 71.4415 29.37C71.1044 29.8435 70.6499 30.1901 70.0779 30.4098C69.5097 30.6333 68.8771 30.745 68.1802 30.745ZM68.1347 25.9496C68.6726 25.9496 69.1271 25.8265 69.4984 25.5802C69.8696 25.334 70.1518 24.9799 70.3449 24.5177C70.5381 24.0556 70.6347 23.5026 70.6347 22.8586C70.6347 22.2299 70.54 21.6749 70.3506 21.1939C70.1612 20.7128 69.8809 20.3359 69.5097 20.0632C69.1385 19.7905 68.6802 19.6541 68.1347 19.6541C67.5665 19.6541 67.0931 19.798 66.7143 20.0859C66.3393 20.3738 66.0571 20.7602 65.8677 21.245C65.6821 21.7299 65.5893 22.2677 65.5893 22.8586C65.5893 23.4647 65.684 24.0007 65.8734 24.4666C66.0665 24.9287 66.3506 25.2924 66.7256 25.5575C67.1044 25.8189 67.5741 25.9496 68.1347 25.9496ZM78.131 27.4723C77.2901 27.4723 76.5647 27.2867 75.9549 26.9155C75.3488 26.5405 74.881 26.0177 74.5514 25.3473C74.2257 24.673 74.0628 23.889 74.0628 22.995C74.0628 22.1011 74.2257 21.3132 74.5514 20.6314C74.881 19.9458 75.3393 19.4117 75.9264 19.0291C76.5174 18.6427 77.2068 18.4496 77.9946 18.4496C78.4492 18.4496 78.898 18.5253 79.3412 18.6768C79.7844 18.8283 80.1878 19.0746 80.5514 19.4155C80.9151 19.7526 81.2049 20.1996 81.4208 20.7564C81.6367 21.3132 81.7446 21.9988 81.7446 22.8132V23.3814H75.0174V22.2223H80.381C80.381 21.7299 80.2825 21.2905 80.0855 20.9041C79.8924 20.5177 79.6158 20.2128 79.256 19.9893C78.8999 19.7658 78.4795 19.6541 77.9946 19.6541C77.4605 19.6541 76.9984 19.7867 76.6083 20.0518C76.2219 20.3132 75.9246 20.6541 75.7162 21.0746C75.5079 21.495 75.4037 21.9458 75.4037 22.4268V23.1996C75.4037 23.8586 75.5174 24.4174 75.7446 24.8757C75.9757 25.3302 76.2958 25.6768 76.7049 25.9155C77.1139 26.1503 77.5893 26.2677 78.131 26.2677C78.4833 26.2677 78.8014 26.2185 79.0855 26.12C79.3734 26.0177 79.6215 25.8662 79.8299 25.6655C80.0382 25.4609 80.1992 25.2071 80.3128 24.9041L81.6083 25.2677C81.4719 25.7071 81.2427 26.0935 80.9208 26.4268C80.5988 26.7564 80.2011 27.014 79.7276 27.1996C79.2541 27.3814 78.7219 27.4723 78.131 27.4723Z" fill="#94A3B8"/>
</g>
<path fill-rule="evenodd" clip-rule="evenodd" d="M76.5199 60.2713V60.2728C75.1713 62.8682 72.4804 65.5709 69.507 65.7605C69.3875 65.7684 69.3239 65.7747 69.2587 65.7747L62.3917 65.7715L61.6173 65.7763C61.3442 65.7778 61.0679 65.7794 60.7932 65.7794C59.4462 65.7794 58.0883 65.7304 56.8453 65.3782C55.2298 64.9201 54.1311 63.7338 52.9672 62.4764C52.6723 62.1542 52.3837 61.8477 52.0873 61.546L45.2187 54.5514C44.466 53.7869 44.0532 52.7664 44.0532 51.6828C44.0532 50.5992 44.466 49.5803 45.2187 48.8142L45.3878 48.6436C46.1389 47.8775 47.1399 47.4557 48.2045 47.4557C49.2691 47.4557 50.2747 47.8838 51.0397 48.6626C51.1841 48.8063 51.4013 48.8474 51.5969 48.77C51.7862 48.6878 51.9088 48.4999 51.9088 48.2882L51.9072 37.0618C51.9072 35.3321 53.2884 33.9246 54.9877 33.9246C56.4666 33.9246 57.7392 35.002 58.0123 36.4852L58.017 38.9731C58.017 39.0253 58.0278 39.0806 58.0511 39.1469L58.0682 39.2559V39.5465C58.0682 39.834 58.2978 40.0694 58.5818 40.0694C58.8643 40.0694 59.094 39.834 59.094 39.5465V37.0602C59.094 36.8564 59.0753 36.6558 59.0474 36.46L59.0443 35.915C59.0443 34.1853 60.4255 32.7794 62.1248 32.7794C63.8241 32.7794 65.2052 34.1853 65.2052 35.915V40.1184C65.2052 40.2637 65.2626 40.398 65.3666 40.4943C65.7484 41.0425 66.3567 40.7328 66.3567 40.2669V36.956C66.3567 35.4901 67.5284 34.2974 68.9685 34.2974C70.4102 34.2974 71.5819 35.4901 71.5819 36.956V38.9968C71.5353 39.2733 71.5136 39.4865 71.5136 39.6982V41.2257C71.5136 41.4121 71.6113 41.5795 71.7727 41.6743C72.2026 41.976 72.6092 41.6632 72.6092 41.2683L72.6201 39.1295C72.8746 38.1249 73.7622 37.4219 74.7756 37.4219C76.0093 37.4219 77.0118 38.444 77.0118 39.6998V48.1302C77.0118 48.1776 77.0212 48.2203 77.0305 48.2629L77.0367 56.1342C77.0367 56.3838 77.0398 56.6239 77.0444 56.8624C77.0677 58.1056 77.0863 59.1782 76.5199 60.2713Z" fill="white"/>
<path fill-rule="evenodd" clip-rule="evenodd" d="M76.1894 60.4288V60.4303C74.8552 62.9452 72.193 65.5641 69.2514 65.7478C69.1332 65.7554 69.0702 65.7615 69.0058 65.7615L62.2121 65.7585L61.446 65.7631C61.1758 65.7646 60.9025 65.7661 60.6308 65.7661C59.2981 65.7661 57.9547 65.7187 56.725 65.3774C55.1267 64.9335 54.0398 63.784 52.8883 62.5656C52.5966 62.2533 52.311 61.9564 52.0178 61.664L45.2226 54.8864C44.478 54.1456 44.0696 53.1568 44.0696 52.1068C44.0696 51.0567 44.478 50.0695 45.2226 49.3271L45.3899 49.1618C46.133 48.4194 47.1233 48.0108 48.1765 48.0108C49.2297 48.0108 50.2246 48.4256 50.9815 49.1802C51.1242 49.3195 51.3392 49.3593 51.5326 49.2843C51.7199 49.2047 51.8412 49.0225 51.8412 48.8174L51.8397 37.9392C51.8397 36.2631 53.2061 34.8993 54.8872 34.8993C56.3504 34.8993 57.6093 35.9432 57.8795 37.3805L57.8841 39.7913C57.8841 39.8418 57.8949 39.8953 57.9179 39.9596L57.9348 40.0652V40.3469C57.9348 40.6255 58.162 40.8535 58.443 40.8535C58.7224 40.8535 58.9496 40.6255 58.9496 40.3469V37.9377C58.9496 37.7402 58.9312 37.5458 58.9036 37.356L58.9005 36.8279C58.9005 35.1519 60.2669 33.7896 61.948 33.7896C63.6292 33.7896 64.9956 35.1519 64.9956 36.8279V40.901C64.9956 41.0418 65.0524 41.1719 65.1553 41.2653C65.5329 41.7964 66.1348 41.4964 66.1348 41.0448V37.8366C66.1348 36.4162 67.2939 35.2606 68.7187 35.2606C70.1449 35.2606 71.3041 36.4162 71.3041 37.8366V39.8142C71.258 40.0821 71.2365 40.2887 71.2365 40.4938V41.9739C71.2365 42.1546 71.3333 42.3168 71.4929 42.4086C71.9182 42.701 72.3204 42.3979 72.3204 42.0153L72.3312 39.9428C72.583 38.9693 73.4612 38.2882 74.4637 38.2882C75.6843 38.2882 76.6761 39.2785 76.6761 40.4954V48.6644C76.6761 48.7103 76.6853 48.7516 76.6945 48.7929L76.7006 56.4201C76.7006 56.6619 76.7037 56.8946 76.7083 57.1257C76.7313 58.3303 76.7498 59.3696 76.1894 60.4288ZM78.0532 57.1027L77.7262 57.1089C77.7231 56.8839 77.7216 56.6543 77.7216 56.4185V47.0036C77.7216 46.9577 77.7124 46.9164 77.7032 46.875L77.697 40.4923C77.697 38.7168 76.2493 37.2734 74.4683 37.2734C73.8849 37.2734 73.3076 37.4356 72.801 37.7417L72.3558 38.0111L72.3066 37.4953C72.1301 35.6432 70.5902 34.2473 68.7233 34.2473C67.7714 34.2473 66.8732 34.6162 66.1931 35.2866L65.8584 35.6172L65.665 35.1886C65.0109 33.7238 63.5539 32.7794 61.9542 32.7794C60.4066 32.7794 59.0141 33.6396 58.3201 35.0264L58.116 35.4366L57.7951 35.109C57.0213 34.3223 55.9911 33.8891 54.8918 33.8891C52.6503 33.8891 50.8279 35.7075 50.8279 37.9407V47.7307L50.3581 47.5026C49.6734 47.1689 48.9395 47.0006 48.1765 47.0006C46.8546 47.0006 45.6095 47.5133 44.6714 48.4455L44.5056 48.6123C43.5691 49.546 43.0532 50.7858 43.0532 52.1068C43.0532 53.4262 43.5691 54.666 44.5041 55.6027L51.3039 62.3804C51.5802 62.6559 51.8489 62.9421 52.1176 63.2253C53.3473 64.5279 54.5832 65.835 56.4532 66.3524C57.8703 66.7473 59.3657 66.7794 60.6538 66.7794L69.0088 66.7733C69.0687 66.7733 69.127 66.7702 69.1854 66.7672L69.2714 66.7626C72.8839 66.536 75.7319 63.4641 77.0891 60.9018C77.7677 59.6222 77.7492 58.4038 77.7277 57.115L78.0532 57.1027Z" fill="#E5E5E5"/>
<defs>
<filter id="filter0_dd_125_3042" x="27.5532" y="0" width="66" height="45" filterUnits="userSpaceOnUse" color-interpolation-filters="sRGB">
<feFlood flood-opacity="0" result="BackgroundImageFix"/>
<feColorMatrix in="SourceAlpha" type="matrix" values="0 0 0 0 0 0 0 0 0 0 0 0 0 0 0 0 0 0 127 0" result="hardAlpha"/>
<feMorphology radius="1" operator="erode" in="SourceAlpha" result="effect1_dropShadow_125_3042"/>
<feOffset dy="1"/>
<feGaussianBlur stdDeviation="1"/>
<feComposite in2="hardAlpha" operator="out"/>
<feColorMatrix type="matrix" values="0 0 0 0 0 0 0 0 0 0 0 0 0 0 0 0 0 0 0.1 0"/>
<feBlend mode="normal" in2="BackgroundImageFix" result="effect1_dropShadow_125_3042"/>
<feColorMatrix in="SourceAlpha" type="matrix" values="0 0 0 0 0 0 0 0 0 0 0 0 0 0 0 0 0 0 127 0" result="hardAlpha"/>
<feOffset dy="1"/>
<feGaussianBlur stdDeviation="1.5"/>
<feComposite in2="hardAlpha" operator="out"/>
<feColorMatrix type="matrix" values="0 0 0 0 0 0 0 0 0 0 0 0 0 0 0 0 0 0 0.1 0"/>
<feBlend mode="normal" in2="effect1_dropShadow_125_3042" result="effect2_dropShadow_125_3042"/>
<feBlend mode="normal" in="SourceGraphic" in2="effect2_dropShadow_125_3042" result="shape"/>
</filter>
<clipPath id="clip0_125_3042">
<rect width="11" height="17" fill="white" transform="translate(37.5532 13)"/>
</clipPath>
</defs>
</svg>
