<svg width="359" height="222" viewBox="0 0 359 222" fill="none" xmlns="http://www.w3.org/2000/svg">
<path d="M205.623 0.458496H3.36995C1.86555 0.458496 0.645996 1.67805 0.645996 3.18245V24.2931C0.645996 25.7975 1.86555 27.017 3.36995 27.017H205.623C207.128 27.017 208.347 25.7975 208.347 24.2931V3.18245C208.347 1.67805 207.128 0.458496 205.623 0.458496Z" fill="#D3D3D3"/>
<path d="M207.326 13.7377H1.6675C1.2914 13.7377 0.986511 14.0426 0.986511 14.4187V132.911C0.986511 133.287 1.2914 133.592 1.6675 133.592H207.326C207.702 133.592 208.007 133.287 208.007 132.911V14.4187C208.007 14.0426 207.702 13.7377 207.326 13.7377Z" fill="#F9F9F9" stroke="#E5E5E5"/>
<path d="M7.4559 9.31133C8.58419 9.31133 9.49886 8.39666 9.49886 7.26837C9.49886 6.14007 8.58419 5.2254 7.4559 5.2254C6.3276 5.2254 5.41293 6.14007 5.41293 7.26837C5.41293 8.39666 6.3276 9.31133 7.4559 9.31133Z" fill="#BBBBBB"/>
<path d="M12.9038 9.31133C14.0321 9.31133 14.9467 8.39666 14.9467 7.26837C14.9467 6.14007 14.0321 5.2254 12.9038 5.2254C11.7755 5.2254 10.8608 6.14007 10.8608 7.26837C10.8608 8.39666 11.7755 9.31133 12.9038 9.31133Z" fill="#BBBBBB"/>
<path d="M18.3517 9.31133C19.48 9.31133 20.3946 8.39666 20.3946 7.26837C20.3946 6.14007 19.48 5.2254 18.3517 5.2254C17.2234 5.2254 16.3087 6.14007 16.3087 7.26837C16.3087 8.39666 17.2234 9.31133 18.3517 9.31133Z" fill="#BBBBBB"/>
<path d="M28.1287 19.5261H6.99971C6.87557 19.5261 6.77493 19.6786 6.77493 19.8666V22.5906C6.77493 22.7786 6.87557 22.9311 6.99971 22.9311H28.1287C28.2528 22.9311 28.3535 22.7786 28.3535 22.5906V19.8666C28.3535 19.6786 28.2528 19.5261 28.1287 19.5261Z" fill="#D3D3D3"/>
<path d="M96.8183 19.5261H54.4324C54.1834 19.5261 53.9815 19.6786 53.9815 19.8666V22.5906C53.9815 22.7786 54.1834 22.9311 54.4324 22.9311H96.8183C97.0673 22.9311 97.2692 22.7786 97.2692 22.5906V19.8666C97.2692 19.6786 97.0673 19.5261 96.8183 19.5261Z" fill="#D3D3D3"/>
<path d="M69.1354 28.379H54.141C54.0529 28.379 53.9815 28.5314 53.9815 28.7195V31.4434C53.9815 31.6315 54.0529 31.7839 54.141 31.7839H69.1354C69.2235 31.7839 69.295 31.6315 69.295 31.4434V28.7195C69.295 28.5314 69.2235 28.379 69.1354 28.379Z" fill="#D3D3D3"/>
<path d="M106.19 37.9128H54.531C54.2275 37.9128 53.9815 38.0652 53.9815 38.2533V40.9772C53.9815 41.1653 54.2275 41.3177 54.531 41.3177H106.19C106.494 41.3177 106.74 41.1653 106.74 40.9772V38.2533C106.74 38.0652 106.494 37.9128 106.19 37.9128Z" fill="#D3D3D3"/>
<path d="M106.19 46.7656H54.531C54.2275 46.7656 53.9815 46.9181 53.9815 47.1061V49.8301C53.9815 50.0181 54.2275 50.1706 54.531 50.1706H106.19C106.494 50.1706 106.74 50.0181 106.74 49.8301V47.1061C106.74 46.9181 106.494 46.7656 106.19 46.7656Z" fill="#D3D3D3"/>
<path d="M106.19 55.6185H54.531C54.2275 55.6185 53.9815 55.7709 53.9815 55.959V58.6829C53.9815 58.871 54.2275 59.0234 54.531 59.0234H106.19C106.494 59.0234 106.74 58.871 106.74 58.6829V55.959C106.74 55.7709 106.494 55.6185 106.19 55.6185Z" fill="#D3D3D3"/>
<path d="M106.19 64.4713H54.531C54.2275 64.4713 53.9815 64.6238 53.9815 64.8118V67.5358C53.9815 67.7238 54.2275 67.8763 54.531 67.8763H106.19C106.494 67.8763 106.74 67.7238 106.74 67.5358V64.8118C106.74 64.6238 106.494 64.4713 106.19 64.4713Z" fill="#D3D3D3"/>
<path d="M158.179 46.7656H131.486C131.329 46.7656 131.202 46.9181 131.202 47.1061V49.8301C131.202 50.0181 131.329 50.1706 131.486 50.1706H158.179C158.336 50.1706 158.463 50.0181 158.463 49.8301V47.1061C158.463 46.9181 158.336 46.7656 158.179 46.7656Z" fill="#D3D3D3"/>
<path d="M158.179 37.9128H131.486C131.329 37.9128 131.202 38.0652 131.202 38.2533V40.9772C131.202 41.1653 131.329 41.3177 131.486 41.3177H158.179C158.336 41.3177 158.463 41.1653 158.463 40.9772V38.2533C158.463 38.0652 158.336 37.9128 158.179 37.9128Z" fill="#D3D3D3"/>
<path d="M190.539 46.7656H178.969C178.901 46.7656 178.846 46.9181 178.846 47.1061V49.8301C178.846 50.0181 178.901 50.1706 178.969 50.1706H190.539C190.607 50.1706 190.662 50.0181 190.662 49.8301V47.1061C190.662 46.9181 190.607 46.7656 190.539 46.7656Z" fill="#D3D3D3"/>
<path d="M158.179 55.6185H131.486C131.329 55.6185 131.202 55.7709 131.202 55.959V58.6829C131.202 58.871 131.329 59.0234 131.486 59.0234H158.179C158.336 59.0234 158.463 58.871 158.463 58.6829V55.959C158.463 55.7709 158.336 55.6185 158.179 55.6185Z" fill="#D3D3D3"/>
<path d="M158.179 64.4713H131.486C131.329 64.4713 131.202 64.6238 131.202 64.8118V67.5358C131.202 67.7238 131.329 67.8763 131.486 67.8763H158.179C158.336 67.8763 158.463 67.7238 158.463 67.5358V64.8118C158.463 64.6238 158.336 64.4713 158.179 64.4713Z" fill="#D3D3D3"/>
<path d="M190.539 37.9128H178.969C178.901 37.9128 178.846 38.0652 178.846 38.2533V40.9772C178.846 41.1653 178.901 41.3177 178.969 41.3177H190.539C190.607 41.3177 190.662 41.1653 190.662 40.9772V38.2533C190.662 38.0652 190.607 37.9128 190.539 37.9128Z" fill="#D3D3D3"/>
<path d="M190.539 55.6185H178.969C178.901 55.6185 178.846 55.7709 178.846 55.959V58.6829C178.846 58.871 178.901 59.0234 178.969 59.0234H190.539C190.607 59.0234 190.662 58.871 190.662 58.6829V55.959C190.662 55.7709 190.607 55.6185 190.539 55.6185Z" fill="#D3D3D3"/>
<path d="M190.539 64.4713H178.969C178.901 64.4713 178.846 64.6238 178.846 64.8118V67.5358C178.846 67.7238 178.901 67.8763 178.969 67.8763H190.539C190.607 67.8763 190.662 67.7238 190.662 67.5358V64.8118C190.662 64.6238 190.607 64.4713 190.539 64.4713Z" fill="#D3D3D3"/>
<path d="M146.356 28.379H131.362C131.273 28.379 131.202 28.5314 131.202 28.7195V31.4434C131.202 31.6315 131.273 31.7839 131.362 31.7839H146.356C146.444 31.7839 146.516 31.6315 146.516 31.4434V28.7195C146.516 28.5314 146.444 28.379 146.356 28.379Z" fill="#D3D3D3"/>
<path d="M194 28.379H179.005C178.917 28.379 178.846 28.5314 178.846 28.7195V31.4434C178.846 31.6315 178.917 31.7839 179.005 31.7839H194C194.088 31.7839 194.159 31.6315 194.159 31.4434V28.7195C194.159 28.5314 194.088 28.379 194 28.379Z" fill="#D3D3D3"/>
<path d="M26.9752 44.0417H6.98757C6.87013 44.0417 6.77493 44.1941 6.77493 44.3822V47.1061C6.77493 47.2942 6.87013 47.4466 6.98757 47.4466H26.9752C27.0926 47.4466 27.1878 47.2942 27.1878 47.1061V44.3822C27.1878 44.1941 27.0926 44.0417 26.9752 44.0417Z" fill="#D3D3D3"/>
<path d="M32.312 25.655H7.11543C6.92738 25.655 6.77493 25.8075 6.77493 25.9955V28.7195C6.77493 28.9075 6.92738 29.06 7.11543 29.06H32.312C32.5 29.06 32.6525 28.9075 32.6525 28.7195V25.9955C32.6525 25.8075 32.5 25.655 32.312 25.655Z" fill="#D3D3D3"/>
<path d="M32.312 50.1706H7.11543C6.92738 50.1706 6.77493 50.323 6.77493 50.5111V53.235C6.77493 53.4231 6.92738 53.5755 7.11543 53.5755H32.312C32.5 53.5755 32.6525 53.4231 32.6525 53.235V50.5111C32.6525 50.323 32.5 50.1706 32.312 50.1706Z" fill="#D3D3D3"/>
<path d="M32.312 31.7839H7.11543C6.92738 31.7839 6.77493 31.9363 6.77493 32.1244V34.8483C6.77493 35.0364 6.92738 35.1888 7.11543 35.1888H32.312C32.5 35.1888 32.6525 35.0364 32.6525 34.8483V32.1244C32.6525 31.9363 32.5 31.7839 32.312 31.7839Z" fill="#D3D3D3"/>
<path d="M32.312 56.2995H7.11543C6.92738 56.2995 6.77493 56.4519 6.77493 56.64V59.3639C6.77493 59.552 6.92738 59.7044 7.11543 59.7044H32.312C32.5 59.7044 32.6525 59.552 32.6525 59.3639V56.64C32.6525 56.4519 32.5 56.2995 32.312 56.2995Z" fill="#D3D3D3"/>
<path d="M26.1247 37.9128H6.98757C6.87013 37.9128 6.77493 38.0652 6.77493 38.2533V40.9772C6.77493 41.1653 6.87013 41.3177 6.98757 41.3177H26.1247C26.2421 41.3177 26.3373 41.1653 26.3373 40.9772V38.2533C26.3373 38.0652 26.2421 37.9128 26.1247 37.9128Z" fill="#D3D3D3"/>
<path d="M28.9836 62.4283H7.01898C6.8842 62.4283 6.77493 62.5808 6.77493 62.7688V65.4928C6.77493 65.6808 6.8842 65.8333 7.01898 65.8333H28.9836C29.1184 65.8333 29.2277 65.6808 29.2277 65.4928V62.7688C29.2277 62.5808 29.1184 62.4283 28.9836 62.4283Z" fill="#D3D3D3"/>
<path d="M45.9317 13.7377V132.23" stroke="#D3D3D3" stroke-linecap="square"/>
<path d="M306.683 79.025H60.0522C59.0085 79.025 58.1624 79.9205 58.1624 81.025V121.025C58.1624 122.13 59.0085 123.025 60.0522 123.025H306.683C307.727 123.025 308.573 122.13 308.573 121.025V81.025C308.573 79.9205 307.727 79.025 306.683 79.025Z" fill="white" stroke="#BBBBBB"/>
<path d="M355.945 128.025H60.4269C59.1762 128.025 58.1624 128.92 58.1624 130.025V170.025C58.1624 171.13 59.1762 172.025 60.4269 172.025H355.945C357.196 172.025 358.21 171.13 358.21 170.025V130.025C358.21 128.92 357.196 128.025 355.945 128.025Z" fill="white" stroke="#BBBBBB"/>
<path d="M343.239 177.025H60.3302C59.1329 177.025 58.1624 177.92 58.1624 179.025V219.025C58.1624 220.13 59.1329 221.025 60.3302 221.025H343.239C344.436 221.025 345.407 220.13 345.407 219.025V179.025C345.407 177.92 344.436 177.025 343.239 177.025Z" fill="white" stroke="#BBBBBB"/>
<path d="M101.879 108.525V93.851H111.493V95.479H103.705V100.209H111.339V101.837H103.705V106.897H111.493V108.525H101.879ZM121.224 108.525L118.034 104.169L114.844 108.525H112.952L117.022 103.069L113.172 97.899H115.086L118.034 101.947L120.982 97.899H122.896L119.046 103.069L123.138 108.525H121.224ZM129.017 108.789C128.225 108.789 127.499 108.657 126.839 108.393C126.179 108.114 125.607 107.733 125.123 107.249C124.654 106.75 124.28 106.164 124.001 105.489C123.737 104.8 123.605 104.037 123.605 103.201C123.605 102.438 123.737 101.72 124.001 101.045C124.265 100.356 124.624 99.7617 125.079 99.263C125.548 98.7644 126.098 98.3684 126.729 98.075C127.374 97.7817 128.078 97.635 128.841 97.635C129.648 97.635 130.366 97.7817 130.997 98.075C131.628 98.3684 132.163 98.7717 132.603 99.285C133.043 99.7984 133.373 100.407 133.593 101.111C133.828 101.8 133.945 102.541 133.945 103.333V103.751H125.343C125.372 104.25 125.482 104.726 125.673 105.181C125.864 105.621 126.12 106.01 126.443 106.347C126.78 106.67 127.176 106.934 127.631 107.139C128.086 107.33 128.599 107.425 129.171 107.425C129.787 107.425 130.381 107.308 130.953 107.073C131.525 106.838 132.024 106.508 132.449 106.083L133.241 107.161C132.713 107.689 132.097 108.092 131.393 108.371C130.689 108.65 129.897 108.789 129.017 108.789ZM132.317 102.541C132.317 102.145 132.244 101.742 132.097 101.331C131.965 100.906 131.752 100.524 131.459 100.187C131.18 99.835 130.821 99.549 130.381 99.329C129.941 99.109 129.42 98.999 128.819 98.999C128.247 98.999 127.748 99.109 127.323 99.329C126.898 99.549 126.538 99.8277 126.245 100.165C125.966 100.502 125.746 100.884 125.585 101.309C125.438 101.72 125.358 102.13 125.343 102.541H132.317ZM141.303 108.789C140.511 108.789 139.785 108.65 139.125 108.371C138.48 108.078 137.923 107.682 137.453 107.183C136.999 106.684 136.639 106.098 136.375 105.423C136.126 104.734 136.001 103.993 136.001 103.201C136.001 102.409 136.126 101.676 136.375 101.001C136.639 100.326 136.999 99.7397 137.453 99.241C137.923 98.7424 138.48 98.3537 139.125 98.075C139.785 97.7817 140.511 97.635 141.303 97.635C142.271 97.635 143.056 97.811 143.657 98.163C144.273 98.515 144.787 98.955 145.197 99.483L144.097 100.495C143.745 100.011 143.342 99.659 142.887 99.439C142.447 99.219 141.949 99.109 141.391 99.109C140.819 99.109 140.306 99.2117 139.851 99.417C139.411 99.6224 139.03 99.9084 138.707 100.275C138.385 100.642 138.135 101.074 137.959 101.573C137.798 102.072 137.717 102.614 137.717 103.201C137.717 103.788 137.798 104.338 137.959 104.851C138.135 105.35 138.385 105.782 138.707 106.149C139.03 106.516 139.411 106.802 139.851 107.007C140.306 107.212 140.819 107.315 141.391 107.315C142.506 107.315 143.408 106.853 144.097 105.929L145.197 106.941C144.787 107.469 144.273 107.909 143.657 108.261C143.056 108.613 142.271 108.789 141.303 108.789ZM154.682 108.525V107.029C154.271 107.498 153.736 107.909 153.076 108.261C152.416 108.613 151.69 108.789 150.898 108.789C149.783 108.789 148.94 108.518 148.368 107.975C147.796 107.418 147.51 106.56 147.51 105.401V97.899H149.16V104.895C149.16 105.364 149.211 105.753 149.314 106.061C149.431 106.369 149.593 106.618 149.798 106.809C150.018 107 150.275 107.132 150.568 107.205C150.861 107.278 151.184 107.315 151.536 107.315C152.181 107.315 152.79 107.154 153.362 106.831C153.934 106.508 154.374 106.134 154.682 105.709V97.899H156.332V108.525H154.682ZM162.311 108.789C161.519 108.789 160.925 108.576 160.529 108.151C160.148 107.711 159.957 107.095 159.957 106.303V99.351H158.197V97.899H159.957V94.995H161.607V97.899H163.763V99.351H161.607V105.951C161.607 106.347 161.695 106.677 161.871 106.941C162.047 107.19 162.319 107.315 162.685 107.315C162.92 107.315 163.133 107.271 163.323 107.183C163.529 107.095 163.69 106.992 163.807 106.875L164.291 108.107C164.086 108.312 163.822 108.474 163.499 108.591C163.191 108.723 162.795 108.789 162.311 108.789ZM166.908 96.381C166.615 96.381 166.358 96.2784 166.138 96.073C165.918 95.853 165.808 95.589 165.808 95.281C165.808 94.973 165.918 94.709 166.138 94.489C166.358 94.269 166.615 94.159 166.908 94.159C167.216 94.159 167.48 94.269 167.7 94.489C167.92 94.709 168.03 94.973 168.03 95.281C168.03 95.589 167.92 95.853 167.7 96.073C167.48 96.2784 167.216 96.381 166.908 96.381ZM166.094 108.525V97.899H167.744V108.525H166.094ZM173.873 108.525L169.451 97.899H171.233L174.775 106.611L178.295 97.899H180.099L175.677 108.525H173.873ZM186.617 108.789C185.825 108.789 185.099 108.657 184.439 108.393C183.779 108.114 183.207 107.733 182.723 107.249C182.253 106.75 181.879 106.164 181.601 105.489C181.337 104.8 181.205 104.037 181.205 103.201C181.205 102.438 181.337 101.72 181.601 101.045C181.865 100.356 182.224 99.7617 182.679 99.263C183.148 98.7644 183.698 98.3684 184.329 98.075C184.974 97.7817 185.678 97.635 186.441 97.635C187.247 97.635 187.966 97.7817 188.597 98.075C189.227 98.3684 189.763 98.7717 190.203 99.285C190.643 99.7984 190.973 100.407 191.193 101.111C191.427 101.8 191.545 102.541 191.545 103.333V103.751H182.943C182.972 104.25 183.082 104.726 183.273 105.181C183.463 105.621 183.72 106.01 184.043 106.347C184.38 106.67 184.776 106.934 185.231 107.139C185.685 107.33 186.199 107.425 186.771 107.425C187.387 107.425 187.981 107.308 188.553 107.073C189.125 106.838 189.623 106.508 190.049 106.083L190.841 107.161C190.313 107.689 189.697 108.092 188.993 108.371C188.289 108.65 187.497 108.789 186.617 108.789ZM189.917 102.541C189.917 102.145 189.843 101.742 189.697 101.331C189.565 100.906 189.352 100.524 189.059 100.187C188.78 99.835 188.421 99.549 187.981 99.329C187.541 99.109 187.02 98.999 186.419 98.999C185.847 98.999 185.348 99.109 184.923 99.329C184.497 99.549 184.138 99.8277 183.845 100.165C183.566 100.502 183.346 100.884 183.185 101.309C183.038 101.72 182.957 102.13 182.943 102.541H189.917ZM192.501 110.615V109.405H205.041V110.615H192.501ZM211.453 108.789C210.162 108.789 209.055 108.576 208.131 108.151C207.207 107.711 206.437 107.146 205.821 106.457L206.899 105.071C207.134 105.335 207.412 105.599 207.735 105.863C208.058 106.112 208.41 106.332 208.791 106.523C209.187 106.714 209.612 106.868 210.067 106.985C210.522 107.102 211.006 107.161 211.519 107.161C212.179 107.161 212.729 107.08 213.169 106.919C213.609 106.758 213.961 106.56 214.225 106.325C214.489 106.076 214.68 105.804 214.797 105.511C214.914 105.203 214.973 104.91 214.973 104.631C214.973 104.162 214.848 103.773 214.599 103.465C214.35 103.157 214.02 102.9 213.609 102.695C213.213 102.475 212.751 102.299 212.223 102.167C211.71 102.02 211.174 101.874 210.617 101.727C210.074 101.566 209.539 101.39 209.011 101.199C208.498 101.008 208.036 100.766 207.625 100.473C207.229 100.165 206.906 99.791 206.657 99.351C206.408 98.911 206.283 98.361 206.283 97.701C206.283 97.0997 206.408 96.5497 206.657 96.051C206.921 95.5524 207.273 95.127 207.713 94.775C208.168 94.4084 208.703 94.1297 209.319 93.939C209.935 93.7337 210.602 93.631 211.321 93.631C212.45 93.631 213.448 93.807 214.313 94.159C215.178 94.511 215.919 95.017 216.535 95.677L215.435 97.019C214.878 96.403 214.232 95.9557 213.499 95.677C212.766 95.3984 211.996 95.259 211.189 95.259C210.309 95.259 209.583 95.4717 209.011 95.897C208.454 96.3224 208.175 96.887 208.175 97.591C208.175 98.0017 208.3 98.339 208.549 98.603C208.798 98.867 209.121 99.0944 209.517 99.285C209.928 99.4757 210.39 99.6444 210.903 99.791C211.431 99.923 211.966 100.07 212.509 100.231C213.066 100.378 213.602 100.554 214.115 100.759C214.643 100.964 215.105 101.228 215.501 101.551C215.912 101.874 216.242 102.27 216.491 102.739C216.74 103.208 216.865 103.788 216.865 104.477C216.865 105.005 216.77 105.533 216.579 106.061C216.388 106.574 216.073 107.036 215.633 107.447C215.208 107.843 214.65 108.166 213.961 108.415C213.272 108.664 212.436 108.789 211.453 108.789ZM226.698 108.525V107.029C226.287 107.498 225.752 107.909 225.092 108.261C224.432 108.613 223.706 108.789 222.914 108.789C221.799 108.789 220.956 108.518 220.384 107.975C219.812 107.418 219.526 106.56 219.526 105.401V97.899H221.176V104.895C221.176 105.364 221.227 105.753 221.33 106.061C221.447 106.369 221.608 106.618 221.814 106.809C222.034 107 222.29 107.132 222.584 107.205C222.877 107.278 223.2 107.315 223.552 107.315C224.197 107.315 224.806 107.154 225.378 106.831C225.95 106.508 226.39 106.134 226.698 105.709V97.899H228.348V108.525H226.698ZM244.469 108.525V101.309C244.469 100.634 244.315 100.099 244.007 99.703C243.699 99.307 243.2 99.109 242.511 99.109C241.953 99.109 241.411 99.2777 240.883 99.615C240.369 99.9377 239.973 100.312 239.695 100.737V108.525H238.045V101.309C238.045 100.634 237.891 100.099 237.583 99.703C237.289 99.307 236.791 99.109 236.087 99.109C235.544 99.109 235.016 99.2777 234.503 99.615C233.989 99.9524 233.586 100.334 233.293 100.759V108.525H231.643V97.899H233.293V99.439C233.395 99.263 233.557 99.0724 233.777 98.867C234.011 98.6617 234.283 98.471 234.591 98.295C234.899 98.1044 235.229 97.9504 235.581 97.833C235.947 97.701 236.329 97.635 236.725 97.635C237.546 97.635 238.184 97.8257 238.639 98.207C239.108 98.5884 239.423 99.0577 239.585 99.615C239.731 99.3804 239.929 99.1457 240.179 98.911C240.428 98.6617 240.707 98.449 241.015 98.273C241.323 98.0824 241.66 97.9284 242.027 97.811C242.393 97.6937 242.767 97.635 243.149 97.635C244.117 97.635 244.85 97.9064 245.349 98.449C245.862 98.977 246.119 99.7764 246.119 100.847V108.525H244.469ZM262.236 108.525V101.309C262.236 100.634 262.082 100.099 261.774 99.703C261.466 99.307 260.968 99.109 260.278 99.109C259.721 99.109 259.178 99.2777 258.65 99.615C258.137 99.9377 257.741 100.312 257.462 100.737V108.525H255.812V101.309C255.812 100.634 255.658 100.099 255.35 99.703C255.057 99.307 254.558 99.109 253.854 99.109C253.312 99.109 252.784 99.2777 252.27 99.615C251.757 99.9524 251.354 100.334 251.06 100.759V108.525H249.41V97.899H251.06V99.439C251.163 99.263 251.324 99.0724 251.544 98.867C251.779 98.6617 252.05 98.471 252.358 98.295C252.666 98.1044 252.996 97.9504 253.348 97.833C253.715 97.701 254.096 97.635 254.492 97.635C255.314 97.635 255.952 97.8257 256.406 98.207C256.876 98.5884 257.191 99.0577 257.352 99.615C257.499 99.3804 257.697 99.1457 257.946 98.911C258.196 98.6617 258.474 98.449 258.782 98.273C259.09 98.0824 259.428 97.9284 259.794 97.811C260.161 97.6937 260.535 97.635 260.916 97.635C261.884 97.635 262.618 97.9064 263.116 98.449C263.63 98.977 263.886 99.7764 263.886 100.847V108.525H262.236ZM273.822 108.525V107.315C272.927 108.298 271.754 108.789 270.302 108.789C269.847 108.789 269.4 108.716 268.96 108.569C268.52 108.422 268.124 108.202 267.772 107.909C267.42 107.601 267.134 107.227 266.914 106.787C266.694 106.347 266.584 105.841 266.584 105.269C266.584 104.682 266.694 104.169 266.914 103.729C267.134 103.289 267.42 102.922 267.772 102.629C268.124 102.336 268.52 102.123 268.96 101.991C269.4 101.844 269.847 101.771 270.302 101.771C271.035 101.771 271.695 101.888 272.282 102.123C272.883 102.358 273.397 102.724 273.822 103.223V101.309C273.822 100.59 273.565 100.04 273.052 99.659C272.553 99.263 271.915 99.065 271.138 99.065C269.891 99.065 268.806 99.5564 267.882 100.539L267.112 99.395C268.241 98.2217 269.657 97.635 271.358 97.635C271.915 97.635 272.443 97.701 272.942 97.833C273.441 97.965 273.873 98.1777 274.24 98.471C274.621 98.7497 274.922 99.1164 275.142 99.571C275.362 100.026 275.472 100.576 275.472 101.221V108.525H273.822ZM270.896 107.601C271.483 107.601 272.033 107.491 272.546 107.271C273.074 107.051 273.499 106.721 273.822 106.281V104.279C273.499 103.839 273.074 103.509 272.546 103.289C272.033 103.069 271.483 102.959 270.896 102.959C270.119 102.959 269.488 103.179 269.004 103.619C268.52 104.044 268.278 104.602 268.278 105.291C268.278 105.966 268.52 106.523 269.004 106.963C269.488 107.388 270.119 107.601 270.896 107.601ZM278.78 108.525V97.899H280.43V99.615C280.855 99.0577 281.368 98.5957 281.97 98.229C282.571 97.8624 283.238 97.679 283.972 97.679V99.373C283.766 99.329 283.546 99.307 283.312 99.307C283.062 99.307 282.791 99.3584 282.498 99.461C282.219 99.549 281.94 99.6737 281.662 99.835C281.398 99.9964 281.156 100.18 280.936 100.385C280.716 100.576 280.547 100.781 280.43 101.001V108.525H278.78ZM285.711 111.187C285.829 111.246 285.975 111.29 286.151 111.319C286.327 111.348 286.481 111.363 286.613 111.363C286.98 111.363 287.288 111.282 287.537 111.121C287.787 110.974 288.007 110.681 288.197 110.241L288.901 108.635L284.457 97.899H286.239L289.781 106.611L293.301 97.899H295.105L289.781 110.681C289.459 111.458 289.033 112.008 288.505 112.331C287.977 112.654 287.361 112.822 286.657 112.837C286.481 112.837 286.276 112.822 286.041 112.793C285.807 112.764 285.609 112.727 285.447 112.683L285.711 111.187Z" fill="#6D7278"/>
<path d="M114.419 157.525V145.447L109.425 157.525H108.677L103.705 145.447V157.525H101.879V142.851H104.497L109.051 153.895L113.627 142.851H116.245V157.525H114.419ZM126.246 157.525V156.315C125.351 157.298 124.178 157.789 122.726 157.789C122.271 157.789 121.824 157.716 121.384 157.569C120.944 157.422 120.548 157.202 120.196 156.909C119.844 156.601 119.558 156.227 119.338 155.787C119.118 155.347 119.008 154.841 119.008 154.269C119.008 153.682 119.118 153.169 119.338 152.729C119.558 152.289 119.844 151.922 120.196 151.629C120.548 151.336 120.944 151.123 121.384 150.991C121.824 150.844 122.271 150.771 122.726 150.771C123.459 150.771 124.119 150.888 124.706 151.123C125.307 151.358 125.82 151.724 126.246 152.223V150.309C126.246 149.59 125.989 149.04 125.476 148.659C124.977 148.263 124.339 148.065 123.562 148.065C122.315 148.065 121.23 148.556 120.306 149.539L119.536 148.395C120.665 147.222 122.08 146.635 123.782 146.635C124.339 146.635 124.867 146.701 125.366 146.833C125.864 146.965 126.297 147.178 126.664 147.471C127.045 147.75 127.346 148.116 127.566 148.571C127.786 149.026 127.896 149.576 127.896 150.221V157.525H126.246ZM123.32 156.601C123.906 156.601 124.456 156.491 124.97 156.271C125.498 156.051 125.923 155.721 126.246 155.281V153.279C125.923 152.839 125.498 152.509 124.97 152.289C124.456 152.069 123.906 151.959 123.32 151.959C122.542 151.959 121.912 152.179 121.428 152.619C120.944 153.044 120.702 153.602 120.702 154.291C120.702 154.966 120.944 155.523 121.428 155.963C121.912 156.388 122.542 156.601 123.32 156.601ZM131.203 157.525V146.899H132.853V148.615C133.279 148.058 133.792 147.596 134.393 147.229C134.995 146.862 135.662 146.679 136.395 146.679V148.373C136.19 148.329 135.97 148.307 135.735 148.307C135.486 148.307 135.215 148.358 134.921 148.461C134.643 148.549 134.364 148.674 134.085 148.835C133.821 148.996 133.579 149.18 133.359 149.385C133.139 149.576 132.971 149.781 132.853 150.001V157.525H131.203ZM145.703 157.525L141.875 152.751L140.115 154.489V157.525H138.465V142.851H140.115V152.553L145.703 146.899H147.793L143.085 151.717L147.815 157.525H145.703ZM154.497 157.789C153.705 157.789 152.979 157.657 152.319 157.393C151.659 157.114 151.087 156.733 150.603 156.249C150.134 155.75 149.76 155.164 149.481 154.489C149.217 153.8 149.085 153.037 149.085 152.201C149.085 151.438 149.217 150.72 149.481 150.045C149.745 149.356 150.105 148.762 150.559 148.263C151.029 147.764 151.579 147.368 152.209 147.075C152.855 146.782 153.559 146.635 154.321 146.635C155.128 146.635 155.847 146.782 156.477 147.075C157.108 147.368 157.643 147.772 158.083 148.285C158.523 148.798 158.853 149.407 159.073 150.111C159.308 150.8 159.425 151.541 159.425 152.333V152.751H150.823C150.853 153.25 150.963 153.726 151.153 154.181C151.344 154.621 151.601 155.01 151.923 155.347C152.261 155.67 152.657 155.934 153.111 156.139C153.566 156.33 154.079 156.425 154.651 156.425C155.267 156.425 155.861 156.308 156.433 156.073C157.005 155.838 157.504 155.508 157.929 155.083L158.721 156.161C158.193 156.689 157.577 157.092 156.873 157.371C156.169 157.65 155.377 157.789 154.497 157.789ZM157.797 151.541C157.797 151.145 157.724 150.742 157.577 150.331C157.445 149.906 157.233 149.524 156.939 149.187C156.661 148.835 156.301 148.549 155.861 148.329C155.421 148.109 154.901 147.999 154.299 147.999C153.727 147.999 153.229 148.109 152.803 148.329C152.378 148.549 152.019 148.828 151.725 149.165C151.447 149.502 151.227 149.884 151.065 150.309C150.919 150.72 150.838 151.13 150.823 151.541H157.797ZM164.782 157.789C163.99 157.789 163.396 157.576 163 157.151C162.619 156.711 162.428 156.095 162.428 155.303V148.351H160.668V146.899H162.428V143.995H164.078V146.899H166.234V148.351H164.078V154.951C164.078 155.347 164.166 155.677 164.342 155.941C164.518 156.19 164.789 156.315 165.156 156.315C165.391 156.315 165.603 156.271 165.794 156.183C165.999 156.095 166.161 155.992 166.278 155.875L166.762 157.107C166.557 157.312 166.293 157.474 165.97 157.591C165.662 157.723 165.266 157.789 164.782 157.789ZM166.849 159.615V158.405H179.389V159.615H166.849ZM189.541 157.525L185.801 151.695H182.875V157.525H181.049V142.851H186.945C187.619 142.851 188.235 142.954 188.793 143.159C189.35 143.364 189.834 143.665 190.245 144.061C190.655 144.442 190.971 144.904 191.191 145.447C191.425 145.99 191.543 146.598 191.543 147.273C191.543 147.933 191.44 148.52 191.235 149.033C191.029 149.546 190.751 149.979 190.399 150.331C190.047 150.683 189.636 150.962 189.167 151.167C188.712 151.372 188.235 151.497 187.737 151.541L191.697 157.525H189.541ZM186.725 150.089C187.605 150.089 188.309 149.832 188.837 149.319C189.379 148.791 189.651 148.109 189.651 147.273C189.651 146.437 189.379 145.762 188.837 145.249C188.309 144.736 187.605 144.479 186.725 144.479H182.875V150.089H186.725ZM198.497 157.789C197.705 157.789 196.979 157.657 196.319 157.393C195.659 157.114 195.087 156.733 194.603 156.249C194.134 155.75 193.76 155.164 193.481 154.489C193.217 153.8 193.085 153.037 193.085 152.201C193.085 151.438 193.217 150.72 193.481 150.045C193.745 149.356 194.105 148.762 194.559 148.263C195.029 147.764 195.579 147.368 196.209 147.075C196.855 146.782 197.559 146.635 198.321 146.635C199.128 146.635 199.847 146.782 200.477 147.075C201.108 147.368 201.643 147.772 202.083 148.285C202.523 148.798 202.853 149.407 203.073 150.111C203.308 150.8 203.425 151.541 203.425 152.333V152.751H194.823C194.853 153.25 194.963 153.726 195.153 154.181C195.344 154.621 195.601 155.01 195.923 155.347C196.261 155.67 196.657 155.934 197.111 156.139C197.566 156.33 198.079 156.425 198.651 156.425C199.267 156.425 199.861 156.308 200.433 156.073C201.005 155.838 201.504 155.508 201.929 155.083L202.721 156.161C202.193 156.689 201.577 157.092 200.873 157.371C200.169 157.65 199.377 157.789 198.497 157.789ZM201.797 151.541C201.797 151.145 201.724 150.742 201.577 150.331C201.445 149.906 201.233 149.524 200.939 149.187C200.661 148.835 200.301 148.549 199.861 148.329C199.421 148.109 198.901 147.999 198.299 147.999C197.727 147.999 197.229 148.109 196.803 148.329C196.378 148.549 196.019 148.828 195.725 149.165C195.447 149.502 195.227 149.884 195.065 150.309C194.919 150.72 194.838 151.13 194.823 151.541H201.797ZM209.464 157.789C208.584 157.789 207.785 157.657 207.066 157.393C206.347 157.114 205.717 156.689 205.174 156.117L206.032 154.929C206.384 155.34 206.868 155.699 207.484 156.007C208.115 156.3 208.797 156.447 209.53 156.447C210.351 156.447 210.975 156.278 211.4 155.941C211.825 155.589 212.038 155.149 212.038 154.621C212.038 154.196 211.877 153.873 211.554 153.653C211.231 153.418 210.821 153.228 210.322 153.081C209.838 152.934 209.31 152.802 208.738 152.685C208.181 152.553 207.653 152.377 207.154 152.157C206.67 151.922 206.267 151.622 205.944 151.255C205.621 150.874 205.46 150.353 205.46 149.693C205.46 149.282 205.548 148.894 205.724 148.527C205.9 148.146 206.157 147.816 206.494 147.537C206.831 147.258 207.242 147.038 207.726 146.877C208.225 146.716 208.789 146.635 209.42 146.635C210.329 146.635 211.107 146.789 211.752 147.097C212.397 147.39 212.933 147.75 213.358 148.175L212.588 149.319C212.265 148.938 211.825 148.622 211.268 148.373C210.725 148.109 210.109 147.977 209.42 147.977C208.687 147.977 208.107 148.138 207.682 148.461C207.271 148.784 207.066 149.18 207.066 149.649C207.066 150.03 207.227 150.324 207.55 150.529C207.873 150.734 208.276 150.91 208.76 151.057C209.259 151.189 209.787 151.321 210.344 151.453C210.916 151.57 211.444 151.746 211.928 151.981C212.427 152.216 212.837 152.538 213.16 152.949C213.483 153.345 213.644 153.888 213.644 154.577C213.644 155.017 213.556 155.435 213.38 155.831C213.204 156.227 212.94 156.572 212.588 156.865C212.236 157.144 211.796 157.364 211.268 157.525C210.755 157.701 210.153 157.789 209.464 157.789ZM221.12 157.789C220.328 157.789 219.602 157.657 218.942 157.393C218.282 157.114 217.71 156.733 217.226 156.249C216.757 155.75 216.383 155.164 216.104 154.489C215.84 153.8 215.708 153.037 215.708 152.201C215.708 151.438 215.84 150.72 216.104 150.045C216.368 149.356 216.728 148.762 217.182 148.263C217.652 147.764 218.202 147.368 218.832 147.075C219.478 146.782 220.182 146.635 220.944 146.635C221.751 146.635 222.47 146.782 223.1 147.075C223.731 147.368 224.266 147.772 224.706 148.285C225.146 148.798 225.476 149.407 225.696 150.111C225.931 150.8 226.048 151.541 226.048 152.333V152.751H217.446C217.476 153.25 217.586 153.726 217.776 154.181C217.967 154.621 218.224 155.01 218.546 155.347C218.884 155.67 219.28 155.934 219.734 156.139C220.189 156.33 220.702 156.425 221.274 156.425C221.89 156.425 222.484 156.308 223.056 156.073C223.628 155.838 224.127 155.508 224.552 155.083L225.344 156.161C224.816 156.689 224.2 157.092 223.496 157.371C222.792 157.65 222 157.789 221.12 157.789ZM224.42 151.541C224.42 151.145 224.347 150.742 224.2 150.331C224.068 149.906 223.856 149.524 223.562 149.187C223.284 148.835 222.924 148.549 222.484 148.329C222.044 148.109 221.524 147.999 220.922 147.999C220.35 147.999 219.852 148.109 219.426 148.329C219.001 148.549 218.642 148.828 218.348 149.165C218.07 149.502 217.85 149.884 217.688 150.309C217.542 150.72 217.461 151.13 217.446 151.541H224.42ZM235.365 157.525V156.315C234.47 157.298 233.297 157.789 231.845 157.789C231.39 157.789 230.943 157.716 230.503 157.569C230.063 157.422 229.667 157.202 229.315 156.909C228.963 156.601 228.677 156.227 228.457 155.787C228.237 155.347 228.127 154.841 228.127 154.269C228.127 153.682 228.237 153.169 228.457 152.729C228.677 152.289 228.963 151.922 229.315 151.629C229.667 151.336 230.063 151.123 230.503 150.991C230.943 150.844 231.39 150.771 231.845 150.771C232.578 150.771 233.238 150.888 233.825 151.123C234.426 151.358 234.94 151.724 235.365 152.223V150.309C235.365 149.59 235.108 149.04 234.595 148.659C234.096 148.263 233.458 148.065 232.681 148.065C231.434 148.065 230.349 148.556 229.425 149.539L228.655 148.395C229.784 147.222 231.2 146.635 232.901 146.635C233.458 146.635 233.986 146.701 234.485 146.833C234.984 146.965 235.416 147.178 235.783 147.471C236.164 147.75 236.465 148.116 236.685 148.571C236.905 149.026 237.015 149.576 237.015 150.221V157.525H235.365ZM232.439 156.601C233.026 156.601 233.576 156.491 234.089 156.271C234.617 156.051 235.042 155.721 235.365 155.281V153.279C235.042 152.839 234.617 152.509 234.089 152.289C233.576 152.069 233.026 151.959 232.439 151.959C231.662 151.959 231.031 152.179 230.547 152.619C230.063 153.044 229.821 153.602 229.821 154.291C229.821 154.966 230.063 155.523 230.547 155.963C231.031 156.388 231.662 156.601 232.439 156.601ZM240.323 157.525V146.899H241.973V148.615C242.398 148.058 242.911 147.596 243.513 147.229C244.114 146.862 244.781 146.679 245.515 146.679V148.373C245.309 148.329 245.089 148.307 244.855 148.307C244.605 148.307 244.334 148.358 244.041 148.461C243.762 148.549 243.483 148.674 243.205 148.835C242.941 148.996 242.699 149.18 242.479 149.385C242.259 149.576 242.09 149.781 241.973 150.001V157.525H240.323ZM252.27 157.789C251.478 157.789 250.752 157.65 250.092 157.371C249.447 157.078 248.89 156.682 248.42 156.183C247.966 155.684 247.606 155.098 247.342 154.423C247.093 153.734 246.968 152.993 246.968 152.201C246.968 151.409 247.093 150.676 247.342 150.001C247.606 149.326 247.966 148.74 248.42 148.241C248.89 147.742 249.447 147.354 250.092 147.075C250.752 146.782 251.478 146.635 252.27 146.635C253.238 146.635 254.023 146.811 254.624 147.163C255.24 147.515 255.754 147.955 256.164 148.483L255.064 149.495C254.712 149.011 254.309 148.659 253.854 148.439C253.414 148.219 252.916 148.109 252.358 148.109C251.786 148.109 251.273 148.212 250.818 148.417C250.378 148.622 249.997 148.908 249.674 149.275C249.352 149.642 249.102 150.074 248.926 150.573C248.765 151.072 248.684 151.614 248.684 152.201C248.684 152.788 248.765 153.338 248.926 153.851C249.102 154.35 249.352 154.782 249.674 155.149C249.997 155.516 250.378 155.802 250.818 156.007C251.273 156.212 251.786 156.315 252.358 156.315C253.473 156.315 254.375 155.853 255.064 154.929L256.164 155.941C255.754 156.469 255.24 156.909 254.624 157.261C254.023 157.613 253.238 157.789 252.27 157.789ZM265.671 157.525V150.529C265.671 150.06 265.612 149.671 265.495 149.363C265.377 149.055 265.216 148.806 265.011 148.615C264.805 148.424 264.549 148.292 264.241 148.219C263.947 148.146 263.625 148.109 263.273 148.109C262.95 148.109 262.635 148.153 262.327 148.241C262.019 148.329 261.725 148.454 261.447 148.615C261.183 148.762 260.933 148.938 260.699 149.143C260.479 149.334 260.288 149.539 260.127 149.759V157.525H258.477V142.851H260.127V148.439C260.317 148.219 260.545 148.006 260.809 147.801C261.073 147.581 261.366 147.383 261.689 147.207C262.026 147.031 262.385 146.892 262.767 146.789C263.148 146.686 263.537 146.635 263.933 146.635C265.047 146.635 265.891 146.914 266.463 147.471C267.035 148.014 267.321 148.864 267.321 150.023V157.525H265.671ZM268.899 159.615V158.405H281.439V159.615H268.899ZM291.591 157.525L287.851 151.695H284.925V157.525H283.099V142.851H288.995C289.67 142.851 290.286 142.954 290.843 143.159C291.401 143.364 291.885 143.665 292.295 144.061C292.706 144.442 293.021 144.904 293.241 145.447C293.476 145.99 293.593 146.598 293.593 147.273C293.593 147.933 293.491 148.52 293.285 149.033C293.08 149.546 292.801 149.979 292.449 150.331C292.097 150.683 291.687 150.962 291.217 151.167C290.763 151.372 290.286 151.497 289.787 151.541L293.747 157.525H291.591ZM288.775 150.089C289.655 150.089 290.359 149.832 290.887 149.319C291.43 148.791 291.701 148.109 291.701 147.273C291.701 146.437 291.43 145.762 290.887 145.249C290.359 144.736 289.655 144.479 288.775 144.479H284.925V150.089H288.775ZM300.548 157.789C299.756 157.789 299.03 157.657 298.37 157.393C297.71 157.114 297.138 156.733 296.654 156.249C296.185 155.75 295.811 155.164 295.532 154.489C295.268 153.8 295.136 153.037 295.136 152.201C295.136 151.438 295.268 150.72 295.532 150.045C295.796 149.356 296.156 148.762 296.61 148.263C297.08 147.764 297.63 147.368 298.26 147.075C298.906 146.782 299.61 146.635 300.372 146.635C301.179 146.635 301.898 146.782 302.528 147.075C303.159 147.368 303.694 147.772 304.134 148.285C304.574 148.798 304.904 149.407 305.124 150.111C305.359 150.8 305.476 151.541 305.476 152.333V152.751H296.874C296.904 153.25 297.014 153.726 297.204 154.181C297.395 154.621 297.652 155.01 297.974 155.347C298.312 155.67 298.708 155.934 299.162 156.139C299.617 156.33 300.13 156.425 300.702 156.425C301.318 156.425 301.912 156.308 302.484 156.073C303.056 155.838 303.555 155.508 303.98 155.083L304.772 156.161C304.244 156.689 303.628 157.092 302.924 157.371C302.22 157.65 301.428 157.789 300.548 157.789ZM303.848 151.541C303.848 151.145 303.775 150.742 303.628 150.331C303.496 149.906 303.284 149.524 302.99 149.187C302.712 148.835 302.352 148.549 301.912 148.329C301.472 148.109 300.952 147.999 300.35 147.999C299.778 147.999 299.28 148.109 298.854 148.329C298.429 148.549 298.07 148.828 297.776 149.165C297.498 149.502 297.278 149.884 297.116 150.309C296.97 150.72 296.889 151.13 296.874 151.541H303.848ZM313.385 157.789C312.651 157.789 311.977 157.628 311.361 157.305C310.745 156.982 310.224 156.52 309.799 155.919V161.573H308.149V146.899H309.799V148.483C310.18 147.94 310.686 147.5 311.317 147.163C311.947 146.811 312.637 146.635 313.385 146.635C314.089 146.635 314.727 146.767 315.299 147.031C315.885 147.28 316.384 147.647 316.795 148.131C317.22 148.6 317.543 149.18 317.763 149.869C317.997 150.558 318.115 151.336 318.115 152.201C318.115 153.066 317.997 153.844 317.763 154.533C317.543 155.222 317.22 155.809 316.795 156.293C316.384 156.777 315.885 157.151 315.299 157.415C314.727 157.664 314.089 157.789 313.385 157.789ZM312.967 156.315C313.495 156.315 313.971 156.212 314.397 156.007C314.822 155.802 315.181 155.516 315.475 155.149C315.768 154.782 315.988 154.35 316.135 153.851C316.296 153.338 316.377 152.788 316.377 152.201C316.377 151.614 316.296 151.072 316.135 150.573C315.988 150.074 315.768 149.642 315.475 149.275C315.181 148.908 314.822 148.622 314.397 148.417C313.971 148.212 313.495 148.109 312.967 148.109C312.307 148.109 311.683 148.278 311.097 148.615C310.525 148.938 310.092 149.334 309.799 149.803V154.599C310.092 155.068 310.525 155.472 311.097 155.809C311.683 156.146 312.307 156.315 312.967 156.315ZM325.381 157.789C324.574 157.789 323.841 157.642 323.181 157.349C322.535 157.056 321.985 156.66 321.531 156.161C321.076 155.648 320.724 155.054 320.475 154.379C320.24 153.704 320.123 152.978 320.123 152.201C320.123 151.438 320.24 150.72 320.475 150.045C320.724 149.356 321.076 148.762 321.531 148.263C321.985 147.764 322.535 147.368 323.181 147.075C323.841 146.782 324.574 146.635 325.381 146.635C326.187 146.635 326.913 146.782 327.559 147.075C328.219 147.368 328.776 147.764 329.231 148.263C329.685 148.762 330.03 149.356 330.265 150.045C330.514 150.72 330.639 151.438 330.639 152.201C330.639 152.978 330.514 153.704 330.265 154.379C330.03 155.054 329.685 155.648 329.231 156.161C328.776 156.66 328.219 157.056 327.559 157.349C326.913 157.642 326.187 157.789 325.381 157.789ZM325.381 156.315C325.953 156.315 326.451 156.205 326.877 155.985C327.317 155.75 327.683 155.45 327.977 155.083C328.285 154.702 328.512 154.262 328.659 153.763C328.82 153.264 328.901 152.744 328.901 152.201C328.901 151.658 328.82 151.145 328.659 150.661C328.512 150.162 328.285 149.73 327.977 149.363C327.683 148.982 327.317 148.681 326.877 148.461C326.451 148.226 325.953 148.109 325.381 148.109C324.809 148.109 324.303 148.226 323.863 148.461C323.423 148.681 323.049 148.982 322.741 149.363C322.447 149.73 322.22 150.162 322.059 150.661C321.912 151.145 321.839 151.658 321.839 152.201C321.839 152.744 321.912 153.264 322.059 153.763C322.22 154.262 322.447 154.702 322.741 155.083C323.049 155.45 323.423 155.75 323.863 155.985C324.303 156.205 324.809 156.315 325.381 156.315ZM333.328 157.525V146.899H334.978V148.615C335.404 148.058 335.917 147.596 336.518 147.229C337.12 146.862 337.787 146.679 338.52 146.679V148.373C338.315 148.329 338.095 148.307 337.86 148.307C337.611 148.307 337.34 148.358 337.046 148.461C336.768 148.549 336.489 148.674 336.21 148.835C335.946 148.996 335.704 149.18 335.484 149.385C335.264 149.576 335.096 149.781 334.978 150.001V157.525H333.328ZM343.274 157.789C342.482 157.789 341.888 157.576 341.492 157.151C341.111 156.711 340.92 156.095 340.92 155.303V148.351H339.16V146.899H340.92V143.995H342.57V146.899H344.726V148.351H342.57V154.951C342.57 155.347 342.658 155.677 342.834 155.941C343.01 156.19 343.281 156.315 343.648 156.315C343.883 156.315 344.095 156.271 344.286 156.183C344.491 156.095 344.653 155.992 344.77 155.875L345.254 157.107C345.049 157.312 344.785 157.474 344.462 157.591C344.154 157.723 343.758 157.789 343.274 157.789Z" fill="#6D7278"/>
<path d="M108.831 206.789C107.775 206.789 106.785 206.606 105.861 206.239C104.951 205.872 104.152 205.359 103.463 204.699C102.788 204.024 102.253 203.225 101.857 202.301C101.475 201.362 101.285 200.328 101.285 199.199C101.285 198.07 101.475 197.043 101.857 196.119C102.253 195.18 102.788 194.381 103.463 193.721C104.152 193.046 104.951 192.526 105.861 192.159C106.785 191.792 107.775 191.609 108.831 191.609C109.476 191.609 110.07 191.682 110.613 191.829C111.17 191.976 111.676 192.181 112.131 192.445C112.6 192.709 113.018 193.017 113.385 193.369C113.766 193.721 114.103 194.102 114.397 194.513L112.857 195.371C112.431 194.755 111.859 194.249 111.141 193.853C110.437 193.442 109.667 193.237 108.831 193.237C108.024 193.237 107.276 193.384 106.587 193.677C105.897 193.97 105.296 194.381 104.783 194.909C104.284 195.437 103.888 196.068 103.595 196.801C103.316 197.52 103.177 198.319 103.177 199.199C103.177 200.064 103.316 200.864 103.595 201.597C103.888 202.33 104.284 202.961 104.783 203.489C105.296 204.017 105.897 204.428 106.587 204.721C107.276 205.014 108.024 205.161 108.831 205.161C109.667 205.161 110.437 204.963 111.141 204.567C111.859 204.171 112.431 203.658 112.857 203.027L114.419 203.885C113.803 204.721 113.04 205.418 112.131 205.975C111.236 206.518 110.136 206.789 108.831 206.789ZM121.322 206.789C120.515 206.789 119.782 206.642 119.122 206.349C118.477 206.056 117.927 205.66 117.472 205.161C117.017 204.648 116.665 204.054 116.416 203.379C116.181 202.704 116.064 201.978 116.064 201.201C116.064 200.438 116.181 199.72 116.416 199.045C116.665 198.356 117.017 197.762 117.472 197.263C117.927 196.764 118.477 196.368 119.122 196.075C119.782 195.782 120.515 195.635 121.322 195.635C122.129 195.635 122.855 195.782 123.5 196.075C124.16 196.368 124.717 196.764 125.172 197.263C125.627 197.762 125.971 198.356 126.206 199.045C126.455 199.72 126.58 200.438 126.58 201.201C126.58 201.978 126.455 202.704 126.206 203.379C125.971 204.054 125.627 204.648 125.172 205.161C124.717 205.66 124.16 206.056 123.5 206.349C122.855 206.642 122.129 206.789 121.322 206.789ZM121.322 205.315C121.894 205.315 122.393 205.205 122.818 204.985C123.258 204.75 123.625 204.45 123.918 204.083C124.226 203.702 124.453 203.262 124.6 202.763C124.761 202.264 124.842 201.744 124.842 201.201C124.842 200.658 124.761 200.145 124.6 199.661C124.453 199.162 124.226 198.73 123.918 198.363C123.625 197.982 123.258 197.681 122.818 197.461C122.393 197.226 121.894 197.109 121.322 197.109C120.75 197.109 120.244 197.226 119.804 197.461C119.364 197.681 118.99 197.982 118.682 198.363C118.389 198.73 118.161 199.162 118 199.661C117.853 200.145 117.78 200.658 117.78 201.201C117.78 201.744 117.853 202.264 118 202.763C118.161 203.262 118.389 203.702 118.682 204.083C118.99 204.45 119.364 204.75 119.804 204.985C120.244 205.205 120.75 205.315 121.322 205.315ZM142.096 206.525V199.309C142.096 198.634 141.942 198.099 141.634 197.703C141.326 197.307 140.827 197.109 140.138 197.109C139.58 197.109 139.038 197.278 138.51 197.615C137.996 197.938 137.6 198.312 137.322 198.737V206.525H135.672V199.309C135.672 198.634 135.518 198.099 135.21 197.703C134.916 197.307 134.418 197.109 133.714 197.109C133.171 197.109 132.643 197.278 132.13 197.615C131.616 197.952 131.213 198.334 130.92 198.759V206.525H129.27V195.899H130.92V197.439C131.022 197.263 131.184 197.072 131.404 196.867C131.638 196.662 131.91 196.471 132.218 196.295C132.526 196.104 132.856 195.95 133.208 195.833C133.574 195.701 133.956 195.635 134.352 195.635C135.173 195.635 135.811 195.826 136.266 196.207C136.735 196.588 137.05 197.058 137.212 197.615C137.358 197.38 137.556 197.146 137.806 196.911C138.055 196.662 138.334 196.449 138.642 196.273C138.95 196.082 139.287 195.928 139.654 195.811C140.02 195.694 140.394 195.635 140.776 195.635C141.744 195.635 142.477 195.906 142.976 196.449C143.489 196.977 143.746 197.776 143.746 198.847V206.525H142.096ZM152.273 206.789C151.54 206.789 150.865 206.628 150.249 206.305C149.633 205.982 149.113 205.52 148.687 204.919V210.573H147.037V195.899H148.687V197.483C149.069 196.94 149.575 196.5 150.205 196.163C150.836 195.811 151.525 195.635 152.273 195.635C152.977 195.635 153.615 195.767 154.187 196.031C154.774 196.28 155.273 196.647 155.683 197.131C156.109 197.6 156.431 198.18 156.651 198.869C156.886 199.558 157.003 200.336 157.003 201.201C157.003 202.066 156.886 202.844 156.651 203.533C156.431 204.222 156.109 204.809 155.683 205.293C155.273 205.777 154.774 206.151 154.187 206.415C153.615 206.664 152.977 206.789 152.273 206.789ZM151.855 205.315C152.383 205.315 152.86 205.212 153.285 205.007C153.711 204.802 154.07 204.516 154.363 204.149C154.657 203.782 154.877 203.35 155.023 202.851C155.185 202.338 155.265 201.788 155.265 201.201C155.265 200.614 155.185 200.072 155.023 199.573C154.877 199.074 154.657 198.642 154.363 198.275C154.07 197.908 153.711 197.622 153.285 197.417C152.86 197.212 152.383 197.109 151.855 197.109C151.195 197.109 150.572 197.278 149.985 197.615C149.413 197.938 148.981 198.334 148.687 198.803V203.599C148.981 204.068 149.413 204.472 149.985 204.809C150.572 205.146 151.195 205.315 151.855 205.315ZM164.423 206.789C163.631 206.789 162.905 206.657 162.245 206.393C161.585 206.114 161.013 205.733 160.529 205.249C160.06 204.75 159.686 204.164 159.407 203.489C159.143 202.8 159.011 202.037 159.011 201.201C159.011 200.438 159.143 199.72 159.407 199.045C159.671 198.356 160.031 197.762 160.485 197.263C160.955 196.764 161.505 196.368 162.135 196.075C162.781 195.782 163.485 195.635 164.247 195.635C165.054 195.635 165.773 195.782 166.403 196.075C167.034 196.368 167.569 196.772 168.009 197.285C168.449 197.798 168.779 198.407 168.999 199.111C169.234 199.8 169.351 200.541 169.351 201.333V201.751H160.749C160.779 202.25 160.889 202.726 161.079 203.181C161.27 203.621 161.527 204.01 161.849 204.347C162.187 204.67 162.583 204.934 163.037 205.139C163.492 205.33 164.005 205.425 164.577 205.425C165.193 205.425 165.787 205.308 166.359 205.073C166.931 204.838 167.43 204.508 167.855 204.083L168.647 205.161C168.119 205.689 167.503 206.092 166.799 206.371C166.095 206.65 165.303 206.789 164.423 206.789ZM167.723 200.541C167.723 200.145 167.65 199.742 167.503 199.331C167.371 198.906 167.159 198.524 166.865 198.187C166.587 197.835 166.227 197.549 165.787 197.329C165.347 197.109 164.827 196.999 164.225 196.999C163.653 196.999 163.155 197.109 162.729 197.329C162.304 197.549 161.945 197.828 161.651 198.165C161.373 198.502 161.153 198.884 160.991 199.309C160.845 199.72 160.764 200.13 160.749 200.541H167.723ZM174.708 206.789C173.916 206.789 173.322 206.576 172.926 206.151C172.544 205.711 172.354 205.095 172.354 204.303V197.351H170.594V195.899H172.354V192.995H174.004V195.899H176.16V197.351H174.004V203.951C174.004 204.347 174.092 204.677 174.268 204.941C174.444 205.19 174.715 205.315 175.082 205.315C175.316 205.315 175.529 205.271 175.72 205.183C175.925 205.095 176.086 204.992 176.204 204.875L176.688 206.107C176.482 206.312 176.218 206.474 175.896 206.591C175.588 206.723 175.192 206.789 174.708 206.789ZM179.304 194.381C179.011 194.381 178.754 194.278 178.534 194.073C178.314 193.853 178.204 193.589 178.204 193.281C178.204 192.973 178.314 192.709 178.534 192.489C178.754 192.269 179.011 192.159 179.304 192.159C179.612 192.159 179.876 192.269 180.096 192.489C180.316 192.709 180.426 192.973 180.426 193.281C180.426 193.589 180.316 193.853 180.096 194.073C179.876 194.278 179.612 194.381 179.304 194.381ZM178.49 206.525V195.899H180.14V206.525H178.49ZM186.116 206.789C185.324 206.789 184.73 206.576 184.334 206.151C183.953 205.711 183.762 205.095 183.762 204.303V197.351H182.002V195.899H183.762V192.995H185.412V195.899H187.568V197.351H185.412V203.951C185.412 204.347 185.5 204.677 185.676 204.941C185.852 205.19 186.123 205.315 186.49 205.315C186.725 205.315 186.937 205.271 187.128 205.183C187.333 205.095 187.495 204.992 187.612 204.875L188.096 206.107C187.891 206.312 187.627 206.474 187.304 206.591C186.996 206.723 186.6 206.789 186.116 206.789ZM190.713 194.381C190.419 194.381 190.163 194.278 189.943 194.073C189.723 193.853 189.613 193.589 189.613 193.281C189.613 192.973 189.723 192.709 189.943 192.489C190.163 192.269 190.419 192.159 190.713 192.159C191.021 192.159 191.285 192.269 191.505 192.489C191.725 192.709 191.835 192.973 191.835 193.281C191.835 193.589 191.725 193.853 191.505 194.073C191.285 194.278 191.021 194.381 190.713 194.381ZM189.899 206.525V195.899H191.549V206.525H189.899ZM197.678 206.525L193.256 195.899H195.038L198.58 204.611L202.1 195.899H203.904L199.482 206.525H197.678ZM210.421 206.789C209.629 206.789 208.903 206.657 208.243 206.393C207.583 206.114 207.011 205.733 206.527 205.249C206.058 204.75 205.684 204.164 205.405 203.489C205.141 202.8 205.009 202.037 205.009 201.201C205.009 200.438 205.141 199.72 205.405 199.045C205.669 198.356 206.029 197.762 206.483 197.263C206.953 196.764 207.503 196.368 208.133 196.075C208.779 195.782 209.483 195.635 210.245 195.635C211.052 195.635 211.771 195.782 212.401 196.075C213.032 196.368 213.567 196.772 214.007 197.285C214.447 197.798 214.777 198.407 214.997 199.111C215.232 199.8 215.349 200.541 215.349 201.333V201.751H206.747C206.777 202.25 206.887 202.726 207.077 203.181C207.268 203.621 207.525 204.01 207.847 204.347C208.185 204.67 208.581 204.934 209.035 205.139C209.49 205.33 210.003 205.425 210.575 205.425C211.191 205.425 211.785 205.308 212.357 205.073C212.929 204.838 213.428 204.508 213.853 204.083L214.645 205.161C214.117 205.689 213.501 206.092 212.797 206.371C212.093 206.65 211.301 206.789 210.421 206.789ZM213.721 200.541C213.721 200.145 213.648 199.742 213.501 199.331C213.369 198.906 213.157 198.524 212.863 198.187C212.585 197.835 212.225 197.549 211.785 197.329C211.345 197.109 210.825 196.999 210.223 196.999C209.651 196.999 209.153 197.109 208.727 197.329C208.302 197.549 207.943 197.828 207.649 198.165C207.371 198.502 207.151 198.884 206.989 199.309C206.843 199.72 206.762 200.13 206.747 200.541H213.721ZM216.306 208.615V207.405H228.846V208.615H216.306ZM230.506 206.525V191.851H232.332V204.897H239.152V206.525H230.506ZM247.998 206.525V205.315C247.103 206.298 245.93 206.789 244.478 206.789C244.023 206.789 243.576 206.716 243.136 206.569C242.696 206.422 242.3 206.202 241.948 205.909C241.596 205.601 241.31 205.227 241.09 204.787C240.87 204.347 240.76 203.841 240.76 203.269C240.76 202.682 240.87 202.169 241.09 201.729C241.31 201.289 241.596 200.922 241.948 200.629C242.3 200.336 242.696 200.123 243.136 199.991C243.576 199.844 244.023 199.771 244.478 199.771C245.211 199.771 245.871 199.888 246.458 200.123C247.059 200.358 247.572 200.724 247.998 201.223V199.309C247.998 198.59 247.741 198.04 247.228 197.659C246.729 197.263 246.091 197.065 245.314 197.065C244.067 197.065 242.982 197.556 242.058 198.539L241.288 197.395C242.417 196.222 243.832 195.635 245.534 195.635C246.091 195.635 246.619 195.701 247.118 195.833C247.616 195.965 248.049 196.178 248.416 196.471C248.797 196.75 249.098 197.116 249.318 197.571C249.538 198.026 249.648 198.576 249.648 199.221V206.525H247.998ZM245.072 205.601C245.658 205.601 246.208 205.491 246.722 205.271C247.25 205.051 247.675 204.721 247.998 204.281V202.279C247.675 201.839 247.25 201.509 246.722 201.289C246.208 201.069 245.658 200.959 245.072 200.959C244.294 200.959 243.664 201.179 243.18 201.619C242.696 202.044 242.454 202.602 242.454 203.291C242.454 203.966 242.696 204.523 243.18 204.963C243.664 205.388 244.294 205.601 245.072 205.601ZM260.127 206.525V199.573C260.127 198.634 259.907 197.989 259.467 197.637C259.042 197.285 258.47 197.109 257.751 197.109C257.429 197.109 257.113 197.153 256.805 197.241C256.497 197.329 256.204 197.454 255.925 197.615C255.647 197.762 255.39 197.938 255.155 198.143C254.935 198.334 254.752 198.539 254.605 198.759V206.525H252.955V195.899H254.605V197.439C254.796 197.219 255.023 197.006 255.287 196.801C255.551 196.581 255.845 196.383 256.167 196.207C256.505 196.031 256.857 195.892 257.223 195.789C257.605 195.686 257.993 195.635 258.389 195.635C260.648 195.635 261.777 196.779 261.777 199.067V206.525H260.127ZM272.773 206.525V204.941C272.377 205.484 271.863 205.931 271.233 206.283C270.617 206.62 269.935 206.789 269.187 206.789C268.497 206.789 267.859 206.664 267.273 206.415C266.701 206.151 266.202 205.784 265.777 205.315C265.366 204.831 265.043 204.244 264.809 203.555C264.574 202.866 264.457 202.088 264.457 201.223C264.457 200.372 264.567 199.602 264.787 198.913C265.021 198.224 265.344 197.637 265.755 197.153C266.18 196.669 266.679 196.295 267.251 196.031C267.837 195.767 268.483 195.635 269.187 195.635C269.905 195.635 270.573 195.804 271.189 196.141C271.819 196.464 272.347 196.918 272.773 197.505V191.851H274.423V206.525H272.773ZM269.583 205.315C270.243 205.315 270.866 205.154 271.453 204.831C272.039 204.508 272.479 204.112 272.773 203.643V198.825C272.479 198.356 272.039 197.952 271.453 197.615C270.866 197.278 270.243 197.109 269.583 197.109C269.055 197.109 268.578 197.212 268.153 197.417C267.727 197.622 267.368 197.908 267.075 198.275C266.781 198.642 266.554 199.082 266.393 199.595C266.246 200.094 266.173 200.636 266.173 201.223C266.173 201.81 266.246 202.352 266.393 202.851C266.554 203.35 266.781 203.782 267.075 204.149C267.368 204.516 267.727 204.802 268.153 205.007C268.578 205.212 269.055 205.315 269.583 205.315ZM281.093 206.789C280.213 206.789 279.413 206.657 278.695 206.393C277.976 206.114 277.345 205.689 276.803 205.117L277.661 203.929C278.013 204.34 278.497 204.699 279.113 205.007C279.743 205.3 280.425 205.447 281.159 205.447C281.98 205.447 282.603 205.278 283.029 204.941C283.454 204.589 283.667 204.149 283.667 203.621C283.667 203.196 283.505 202.873 283.183 202.653C282.86 202.418 282.449 202.228 281.951 202.081C281.467 201.934 280.939 201.802 280.367 201.685C279.809 201.553 279.281 201.377 278.783 201.157C278.299 200.922 277.895 200.622 277.573 200.255C277.25 199.874 277.089 199.353 277.089 198.693C277.089 198.282 277.177 197.894 277.353 197.527C277.529 197.146 277.785 196.816 278.123 196.537C278.46 196.258 278.871 196.038 279.355 195.877C279.853 195.716 280.418 195.635 281.049 195.635C281.958 195.635 282.735 195.789 283.381 196.097C284.026 196.39 284.561 196.75 284.987 197.175L284.217 198.319C283.894 197.938 283.454 197.622 282.897 197.373C282.354 197.109 281.738 196.977 281.049 196.977C280.315 196.977 279.736 197.138 279.311 197.461C278.9 197.784 278.695 198.18 278.695 198.649C278.695 199.03 278.856 199.324 279.179 199.529C279.501 199.734 279.905 199.91 280.389 200.057C280.887 200.189 281.415 200.321 281.973 200.453C282.545 200.57 283.073 200.746 283.557 200.981C284.055 201.216 284.466 201.538 284.789 201.949C285.111 202.345 285.273 202.888 285.273 203.577C285.273 204.017 285.185 204.435 285.009 204.831C284.833 205.227 284.569 205.572 284.217 205.865C283.865 206.144 283.425 206.364 282.897 206.525C282.383 206.701 281.782 206.789 281.093 206.789ZM292.639 206.789C291.847 206.789 291.121 206.65 290.461 206.371C289.816 206.078 289.259 205.682 288.789 205.183C288.335 204.684 287.975 204.098 287.711 203.423C287.462 202.734 287.337 201.993 287.337 201.201C287.337 200.409 287.462 199.676 287.711 199.001C287.975 198.326 288.335 197.74 288.789 197.241C289.259 196.742 289.816 196.354 290.461 196.075C291.121 195.782 291.847 195.635 292.639 195.635C293.607 195.635 294.392 195.811 294.993 196.163C295.609 196.515 296.123 196.955 296.533 197.483L295.433 198.495C295.081 198.011 294.678 197.659 294.223 197.439C293.783 197.219 293.285 197.109 292.727 197.109C292.155 197.109 291.642 197.212 291.187 197.417C290.747 197.622 290.366 197.908 290.043 198.275C289.721 198.642 289.471 199.074 289.295 199.573C289.134 200.072 289.053 200.614 289.053 201.201C289.053 201.788 289.134 202.338 289.295 202.851C289.471 203.35 289.721 203.782 290.043 204.149C290.366 204.516 290.747 204.802 291.187 205.007C291.642 205.212 292.155 205.315 292.727 205.315C293.842 205.315 294.744 204.853 295.433 203.929L296.533 204.941C296.123 205.469 295.609 205.909 294.993 206.261C294.392 206.613 293.607 206.789 292.639 206.789ZM305.49 206.525V205.315C304.595 206.298 303.422 206.789 301.97 206.789C301.515 206.789 301.068 206.716 300.628 206.569C300.188 206.422 299.792 206.202 299.44 205.909C299.088 205.601 298.802 205.227 298.582 204.787C298.362 204.347 298.252 203.841 298.252 203.269C298.252 202.682 298.362 202.169 298.582 201.729C298.802 201.289 299.088 200.922 299.44 200.629C299.792 200.336 300.188 200.123 300.628 199.991C301.068 199.844 301.515 199.771 301.97 199.771C302.703 199.771 303.363 199.888 303.95 200.123C304.551 200.358 305.065 200.724 305.49 201.223V199.309C305.49 198.59 305.233 198.04 304.72 197.659C304.221 197.263 303.583 197.065 302.806 197.065C301.559 197.065 300.474 197.556 299.55 198.539L298.78 197.395C299.909 196.222 301.325 195.635 303.026 195.635C303.583 195.635 304.111 195.701 304.61 195.833C305.109 195.965 305.541 196.178 305.908 196.471C306.289 196.75 306.59 197.116 306.81 197.571C307.03 198.026 307.14 198.576 307.14 199.221V206.525H305.49ZM302.564 205.601C303.151 205.601 303.701 205.491 304.214 205.271C304.742 205.051 305.167 204.721 305.49 204.281V202.279C305.167 201.839 304.742 201.509 304.214 201.289C303.701 201.069 303.151 200.959 302.564 200.959C301.787 200.959 301.156 201.179 300.672 201.619C300.188 202.044 299.946 202.602 299.946 203.291C299.946 203.966 300.188 204.523 300.672 204.963C301.156 205.388 301.787 205.601 302.564 205.601ZM315.684 206.789C314.95 206.789 314.276 206.628 313.66 206.305C313.044 205.982 312.523 205.52 312.098 204.919V210.573H310.448V195.899H312.098V197.483C312.479 196.94 312.985 196.5 313.616 196.163C314.246 195.811 314.936 195.635 315.684 195.635C316.388 195.635 317.026 195.767 317.598 196.031C318.184 196.28 318.683 196.647 319.094 197.131C319.519 197.6 319.842 198.18 320.062 198.869C320.296 199.558 320.414 200.336 320.414 201.201C320.414 202.066 320.296 202.844 320.062 203.533C319.842 204.222 319.519 204.809 319.094 205.293C318.683 205.777 318.184 206.151 317.598 206.415C317.026 206.664 316.388 206.789 315.684 206.789ZM315.266 205.315C315.794 205.315 316.27 205.212 316.696 205.007C317.121 204.802 317.48 204.516 317.774 204.149C318.067 203.782 318.287 203.35 318.434 202.851C318.595 202.338 318.676 201.788 318.676 201.201C318.676 200.614 318.595 200.072 318.434 199.573C318.287 199.074 318.067 198.642 317.774 198.275C317.48 197.908 317.121 197.622 316.696 197.417C316.27 197.212 315.794 197.109 315.266 197.109C314.606 197.109 313.982 197.278 313.396 197.615C312.824 197.938 312.391 198.334 312.098 198.803V203.599C312.391 204.068 312.824 204.472 313.396 204.809C313.982 205.146 314.606 205.315 315.266 205.315ZM327.833 206.789C327.041 206.789 326.315 206.657 325.655 206.393C324.995 206.114 324.423 205.733 323.939 205.249C323.47 204.75 323.096 204.164 322.817 203.489C322.553 202.8 322.421 202.037 322.421 201.201C322.421 200.438 322.553 199.72 322.817 199.045C323.081 198.356 323.441 197.762 323.895 197.263C324.365 196.764 324.915 196.368 325.545 196.075C326.191 195.782 326.895 195.635 327.657 195.635C328.464 195.635 329.183 195.782 329.813 196.075C330.444 196.368 330.979 196.772 331.419 197.285C331.859 197.798 332.189 198.407 332.409 199.111C332.644 199.8 332.761 200.541 332.761 201.333V201.751H324.159C324.189 202.25 324.299 202.726 324.489 203.181C324.68 203.621 324.937 204.01 325.259 204.347C325.597 204.67 325.993 204.934 326.447 205.139C326.902 205.33 327.415 205.425 327.987 205.425C328.603 205.425 329.197 205.308 329.769 205.073C330.341 204.838 330.84 204.508 331.265 204.083L332.057 205.161C331.529 205.689 330.913 206.092 330.209 206.371C329.505 206.65 328.713 206.789 327.833 206.789ZM331.133 200.541C331.133 200.145 331.06 199.742 330.913 199.331C330.781 198.906 330.569 198.524 330.275 198.187C329.997 197.835 329.637 197.549 329.197 197.329C328.757 197.109 328.237 196.999 327.635 196.999C327.063 196.999 326.565 197.109 326.139 197.329C325.714 197.549 325.355 197.828 325.061 198.165C324.783 198.502 324.563 198.884 324.401 199.309C324.255 199.72 324.174 200.13 324.159 200.541H331.133Z" fill="#6D7278"/>
<g clip-path="url(#clip0_21_1329)">
<path d="M72.3007 98.6816V90.6299C72.3007 90.0716 72.7541 89.6184 73.3129 89.6184H84.4141L89.4748 95.2829V98.6816H91.0942V94.9754C91.0942 94.7731 91.0214 94.587 90.8918 94.4332L85.3776 88.267C85.2238 88.0971 85.0052 88 84.7703 88H73.3129C71.8635 88 70.6813 89.1815 70.6813 90.6299V98.6816H72.3007Z" fill="#0062A6"/>
<path d="M89.4667 108.287V111.378C89.4667 111.937 89.0133 112.39 88.4546 112.39H73.3129C72.7541 112.39 72.3007 111.937 72.3007 111.378V108.287H70.6813V111.378C70.6813 112.827 71.8635 114.008 73.3129 114.008H88.4627C89.912 114.008 91.0942 112.827 91.0942 111.378V108.287H89.4748H89.4667Z" fill="#0062A6"/>
<path d="M67.8797 106.515V100.195H70.2278C72.1955 100.195 73.5315 101.506 73.5315 103.359C73.5315 105.212 72.1955 106.515 70.2278 106.515H67.8797ZM68.989 105.536H70.2278C71.6044 105.536 72.3979 104.548 72.3979 103.359C72.3979 102.169 71.6368 101.174 70.2278 101.174H68.989V105.544V105.536Z" fill="#0062A6"/>
<path d="M77.5558 100.09C79.4505 100.09 80.7866 101.473 80.7866 103.359C80.7866 105.244 79.4505 106.628 77.5558 106.628C75.661 106.628 74.325 105.244 74.325 103.359C74.325 101.473 75.661 100.09 77.5558 100.09ZM77.5558 101.077C76.2764 101.077 75.4586 102.056 75.4586 103.359C75.4586 104.662 76.2764 105.641 77.5558 105.641C78.8351 105.641 79.6529 104.654 79.6529 103.359C79.6529 102.064 78.827 101.077 77.5558 101.077Z" fill="#0062A6"/>
<path d="M81.5801 103.359C81.5801 101.417 83.0295 100.09 84.8513 100.09C86.1793 100.09 86.9647 100.753 87.4424 101.506L86.4951 101.991C86.1955 101.473 85.5882 101.077 84.8594 101.077C83.653 101.077 82.7299 102.032 82.7299 103.359C82.7299 104.686 83.661 105.641 84.8594 105.641C85.5882 105.641 86.1955 105.252 86.4951 104.726L87.4424 105.212C86.9566 105.973 86.1793 106.636 84.8513 106.636C83.0295 106.636 81.5801 105.309 81.5801 103.367V103.359Z" fill="#0062A6"/>
<path d="M92.5598 106.515L90.7865 104.047L89.0133 106.515H87.6853L90.0578 103.278L87.8311 100.203H89.159L90.7865 102.525L92.406 100.203H93.742L91.5234 103.27L93.8797 106.515H92.5517H92.5598Z" fill="#0062A6"/>
</g>
<path d="M72.5918 146.918V138.869C72.5918 138.311 73.0448 137.858 73.603 137.858H84.6939L89.7499 143.521V146.918H91.3678V143.213C91.3678 143.011 91.295 142.825 91.1656 142.671L85.6646 136.507C85.5109 136.337 85.2925 136.24 85.0579 136.24H73.603C72.155 136.24 70.9739 137.421 70.9739 138.869V146.918H72.5918Z" fill="#107F65"/>
<path d="M89.7337 156.521V159.611C89.7337 160.169 89.2807 160.622 88.7225 160.622H73.5869C73.0287 160.622 72.5757 160.169 72.5757 159.611V156.521H70.9577V159.611C70.9577 161.059 72.1388 162.24 73.5869 162.24H88.7225C90.1705 162.24 91.3516 161.059 91.3516 159.611V156.521H89.7337Z" fill="#107F65"/>
<path d="M73.2957 154.741V148.431H76.0624C77.3891 148.431 78.1252 149.337 78.1252 150.405C78.1252 151.473 77.381 152.379 76.0624 152.379H74.3959V154.733H73.2876L73.2957 154.741ZM75.9167 149.41H74.404V151.416H75.9167C76.5396 151.416 76.9927 151.02 76.9927 150.413C76.9927 149.806 76.5396 149.41 75.9167 149.41Z" fill="#107F65"/>
<path d="M79.0475 154.741V148.431H81.8141C83.1408 148.431 83.877 149.337 83.877 150.405C83.877 151.473 83.1327 152.379 81.8141 152.379H80.1477V154.733H79.0394L79.0475 154.741ZM81.6685 149.41H80.1558V151.416H81.6685C82.2914 151.416 82.7444 151.02 82.7444 150.413C82.7444 149.806 82.2914 149.41 81.6685 149.41Z" fill="#107F65"/>
<path d="M86.3038 154.741V149.41H84.3946V148.439H89.3212V149.41H87.412V154.741H86.3038Z" fill="#107F65"/>
<path d="M72.2966 196.973V188.924C72.2966 188.366 72.7496 187.913 73.3078 187.913H84.3986L89.4547 193.575V196.973H91.0726V193.268C91.0726 193.066 90.9998 192.88 90.8703 192.726L85.3694 186.562C85.2157 186.392 84.9973 186.295 84.7627 186.295H73.3159C71.8679 186.295 70.6868 187.476 70.6868 188.924V196.973H72.3047H72.2966Z" fill="#722580"/>
<path d="M89.4384 206.575V209.666C89.4384 210.224 88.9854 210.677 88.4272 210.677H73.2916C72.7334 210.677 72.2804 210.224 72.2804 209.666V206.575H70.6625V209.666C70.6625 211.114 71.8436 212.295 73.2916 212.295H88.4272C89.8753 212.295 91.0564 211.114 91.0564 209.666V206.575H89.4384Z" fill="#722580"/>
<path d="M72.5879 204.796V198.486H75.3545C76.6812 198.486 77.4174 199.392 77.4174 200.46C77.4174 201.527 76.6731 202.433 75.3545 202.433H73.6881V204.787H72.5798L72.5879 204.796ZM75.2089 199.464H73.6961V201.471H75.2089C75.8318 201.471 76.2848 201.074 76.2848 200.468C76.2848 199.861 75.8318 199.464 75.2089 199.464Z" fill="#722580"/>
<path d="M78.3395 204.796V198.486H80.6855C82.6512 198.486 83.986 199.788 83.986 201.641C83.986 203.493 82.6512 204.787 80.6855 204.787H78.3395V204.796ZM79.4477 203.825H80.6855C82.0526 203.825 82.8535 202.838 82.8535 201.649C82.8535 200.46 82.0931 199.464 80.6855 199.464H79.4477V203.825Z" fill="#722580"/>
<path d="M85.0539 204.796V198.486H89.3737V199.456H86.1622V201.091H89.309V202.061H86.1622V204.787H85.0539V204.796Z" fill="#722580"/>
<path d="M44.9948 87.4111C35.1603 87.4111 27.1879 95.3835 27.1879 105.218C27.1879 115.053 35.1603 123.025 44.9948 123.025C54.8294 123.025 62.8018 115.053 62.8018 105.218C62.8018 95.3835 54.8294 87.4111 44.9948 87.4111Z" fill="white" stroke="#D3D3D3"/>
<mask id="mask0_21_1329" style="mask-type:luminance" maskUnits="userSpaceOnUse" x="35" y="108" width="20" height="5">
<path d="M54.5927 112.621L35.397 112.621L35.397 108.535L54.5927 108.535L54.5927 112.621Z" fill="white"/>
</mask>
<g mask="url(#mask0_21_1329)">
<path fill-rule="evenodd" clip-rule="evenodd" d="M39.0303 112.621L50.9591 112.621C52.9634 112.621 54.5928 110.997 54.5928 109.001C54.5928 108.743 54.3835 108.535 54.1259 108.535C53.8679 108.535 53.659 108.743 53.659 109.001C53.659 110.484 52.4478 111.691 50.9591 111.691L39.0303 111.691C37.542 111.691 36.3308 110.484 36.3308 109.001C36.3308 108.743 36.1216 108.535 35.8639 108.535C35.6059 108.535 35.397 108.743 35.397 109.001C35.397 110.997 37.0264 112.621 39.0303 112.621Z" fill="#444444"/>
</g>
<path fill-rule="evenodd" clip-rule="evenodd" d="M45.0376 109.128C45.2149 109.286 45.4788 109.277 45.6443 109.104L49.7185 104.844C49.8945 104.66 49.8958 104.362 49.7208 104.178C49.5458 103.994 49.2623 103.994 49.087 104.176L45.7778 107.637L45.7778 97.3498C45.7778 97.0899 45.577 96.8787 45.3297 96.8787C45.0821 96.8787 44.8813 97.0899 44.8813 97.3498L44.8813 107.748L40.8778 104.152C40.7937 104.076 40.6897 104.039 40.587 104.039C40.4598 104.039 40.3335 104.095 40.2462 104.205C40.085 104.402 40.1072 104.699 40.2949 104.868L45.0376 109.128Z" fill="#444444"/>
<path d="M44.9948 133.592C35.1603 133.592 27.1879 141.564 27.1879 151.399C27.1879 161.233 35.1603 169.206 44.9948 169.206C54.8294 169.206 62.8018 161.233 62.8018 151.399C62.8018 141.564 54.8294 133.592 44.9948 133.592Z" fill="white" stroke="#D3D3D3"/>
<mask id="mask1_21_1329" style="mask-type:luminance" maskUnits="userSpaceOnUse" x="35" y="154" width="20" height="5">
<path d="M54.5927 158.802L35.397 158.802L35.397 154.715L54.5927 154.715L54.5927 158.802Z" fill="white"/>
</mask>
<g mask="url(#mask1_21_1329)">
<path fill-rule="evenodd" clip-rule="evenodd" d="M39.0303 158.802L50.9591 158.802C52.9634 158.802 54.5928 157.178 54.5928 155.181C54.5928 154.924 54.3835 154.715 54.1259 154.715C53.8679 154.715 53.659 154.924 53.659 155.181C53.659 156.664 52.4478 157.871 50.9591 157.871L39.0303 157.871C37.542 157.871 36.3308 156.664 36.3308 155.181C36.3308 154.924 36.1216 154.715 35.8639 154.715C35.6059 154.715 35.397 154.924 35.397 155.181C35.397 157.178 37.0264 158.802 39.0303 158.802Z" fill="#444444"/>
</g>
<path fill-rule="evenodd" clip-rule="evenodd" d="M45.0376 155.309C45.2149 155.467 45.4788 155.457 45.6443 155.284L49.7185 151.024C49.8945 150.84 49.8958 150.542 49.7208 150.358C49.5458 150.174 49.2623 150.174 49.087 150.357L45.7778 153.817L45.7778 143.53C45.7778 143.27 45.577 143.059 45.3297 143.059C45.0821 143.059 44.8813 143.27 44.8813 143.53L44.8813 153.929L40.8778 150.333C40.7937 150.256 40.6897 150.219 40.587 150.219C40.4598 150.219 40.3335 150.276 40.2462 150.385C40.085 150.583 40.1072 150.88 40.2949 151.049L45.0376 155.309Z" fill="#444444"/>
<path d="M44.9948 182.218C35.1603 182.218 27.1879 190.19 27.1879 200.025C27.1879 209.86 35.1603 217.832 44.9948 217.832C54.8294 217.832 62.8018 209.86 62.8018 200.025C62.8018 190.19 54.8294 182.218 44.9948 182.218Z" fill="white" stroke="#D3D3D3"/>
<mask id="mask2_21_1329" style="mask-type:luminance" maskUnits="userSpaceOnUse" x="35" y="203" width="20" height="5">
<path d="M54.5927 207.428L35.397 207.428L35.397 203.342L54.5927 203.342L54.5927 207.428Z" fill="white"/>
</mask>
<g mask="url(#mask2_21_1329)">
<path fill-rule="evenodd" clip-rule="evenodd" d="M39.0303 207.428L50.9591 207.428C52.9634 207.428 54.5928 205.804 54.5928 203.807C54.5928 203.55 54.3835 203.342 54.1259 203.342C53.8679 203.342 53.659 203.55 53.659 203.807C53.659 205.291 52.4478 206.498 50.9591 206.498L39.0303 206.498C37.542 206.498 36.3308 205.291 36.3308 203.807C36.3308 203.55 36.1216 203.342 35.8639 203.342C35.6059 203.342 35.397 203.55 35.397 203.807C35.397 205.804 37.0264 207.428 39.0303 207.428Z" fill="#444444"/>
</g>
<path fill-rule="evenodd" clip-rule="evenodd" d="M45.0376 203.935C45.2149 204.093 45.4788 204.084 45.6443 203.911L49.7185 199.651C49.8945 199.467 49.8958 199.169 49.7208 198.984C49.5458 198.8 49.2623 198.8 49.087 198.983L45.7778 202.444L45.7778 192.157C45.7778 191.897 45.577 191.686 45.3297 191.686C45.0821 191.686 44.8813 191.897 44.8813 192.157L44.8813 202.555L40.8778 198.959C40.7937 198.883 40.6897 198.846 40.587 198.846C40.4598 198.846 40.3335 198.902 40.2462 199.012C40.085 199.209 40.1072 199.506 40.2949 199.675L45.0376 203.935Z" fill="#444444"/>
<defs>
<clipPath id="clip0_21_1329">
<rect width="26" height="26" fill="white" transform="translate(67.8797 88)"/>
</clipPath>
</defs>
</svg>
