<svg width="350" height="175" viewBox="0 0 350 175" fill="none" xmlns="http://www.w3.org/2000/svg">
<path d="M229.989 0.407059H6.92C3.32299 0.407059 0.407043 3.32301 0.407043 6.92002V167.302C0.407043 170.899 3.32299 173.815 6.92 173.815H229.989C233.586 173.815 236.502 170.899 236.502 167.302V6.92002C236.502 3.32301 233.586 0.407059 229.989 0.407059Z" fill="white" stroke="#E2E8F0" stroke-width="0.81412"/>
<path d="M111.127 10.1765H65.5366C64.6374 10.1765 63.9084 10.9055 63.9084 11.8047V14.2471C63.9084 15.1463 64.6374 15.8753 65.5366 15.8753H111.127C112.027 15.8753 112.756 15.1463 112.756 14.2471V11.8047C112.756 10.9055 112.027 10.1765 111.127 10.1765Z" fill="#10B981"/>
<path d="M166.487 10.1765H120.897C119.997 10.1765 119.268 10.9055 119.268 11.8047V14.2471C119.268 15.1463 119.997 15.8753 120.897 15.8753H166.487C167.387 15.8753 168.116 15.1463 168.116 14.2471V11.8047C168.116 10.9055 167.387 10.1765 166.487 10.1765Z" fill="#10B981"/>
<path d="M221.848 10.1765H176.257C175.358 10.1765 174.629 10.9055 174.629 11.8047V14.2471C174.629 15.1463 175.358 15.8753 176.257 15.8753H221.848C222.747 15.8753 223.476 15.1463 223.476 14.2471V11.8047C223.476 10.9055 222.747 10.1765 221.848 10.1765Z" fill="#10B981"/>
<path d="M55.7672 28.0871H10.1765C9.27721 28.0871 8.54822 28.8161 8.54822 29.7154V32.1577C8.54822 33.057 9.27721 33.786 10.1765 33.786H55.7672C56.6664 33.786 57.3954 33.057 57.3954 32.1577V29.7154C57.3954 28.8161 56.6664 28.0871 55.7672 28.0871Z" fill="#10B981"/>
<path d="M85.0755 28.0871H65.5366C64.6374 28.0871 63.9084 28.8161 63.9084 29.7154V32.1577C63.9084 33.057 64.6374 33.786 65.5366 33.786H85.0755C85.9748 33.786 86.7037 33.057 86.7037 32.1577V29.7154C86.7037 28.8161 85.9748 28.0871 85.0755 28.0871Z" fill="#E2E8F0"/>
<path d="M140.436 28.0871H120.897C119.997 28.0871 119.268 28.8161 119.268 29.7154V32.1577C119.268 33.057 119.997 33.786 120.897 33.786H140.436C141.335 33.786 142.064 33.057 142.064 32.1577V29.7154C142.064 28.8161 141.335 28.0871 140.436 28.0871Z" fill="#E2E8F0"/>
<path d="M195.796 28.0871H176.257C175.358 28.0871 174.629 28.8161 174.629 29.7154V32.1577C174.629 33.057 175.358 33.786 176.257 33.786H195.796C196.695 33.786 197.424 33.057 197.424 32.1577V29.7154C197.424 28.8161 196.695 28.0871 195.796 28.0871Z" fill="#E2E8F0"/>
<path d="M55.7672 45.9978H10.1765C9.27721 45.9978 8.54822 46.7268 8.54822 47.626V50.0684C8.54822 50.9676 9.27721 51.6966 10.1765 51.6966H55.7672C56.6664 51.6966 57.3954 50.9676 57.3954 50.0684V47.626C57.3954 46.7268 56.6664 45.9978 55.7672 45.9978Z" fill="#10B981"/>
<path d="M85.0755 45.9978H65.5366C64.6374 45.9978 63.9084 46.7268 63.9084 47.626V50.0684C63.9084 50.9676 64.6374 51.6966 65.5366 51.6966H85.0755C85.9748 51.6966 86.7037 50.9676 86.7037 50.0684V47.626C86.7037 46.7268 85.9748 45.9978 85.0755 45.9978Z" fill="#E2E8F0"/>
<path d="M140.436 45.9978H120.897C119.997 45.9978 119.268 46.7268 119.268 47.626V50.0684C119.268 50.9676 119.997 51.6966 120.897 51.6966H140.436C141.335 51.6966 142.064 50.9676 142.064 50.0684V47.626C142.064 46.7268 141.335 45.9978 140.436 45.9978Z" fill="#E2E8F0"/>
<path d="M195.796 45.9978H176.257C175.358 45.9978 174.629 46.7268 174.629 47.626V50.0684C174.629 50.9676 175.358 51.6966 176.257 51.6966H195.796C196.695 51.6966 197.424 50.9676 197.424 50.0684V47.626C197.424 46.7268 196.695 45.9978 195.796 45.9978Z" fill="#E2E8F0"/>
<path d="M55.7672 63.9084H10.1765C9.27721 63.9084 8.54822 64.6374 8.54822 65.5367V67.979C8.54822 68.8783 9.27721 69.6073 10.1765 69.6073H55.7672C56.6664 69.6073 57.3954 68.8783 57.3954 67.979V65.5367C57.3954 64.6374 56.6664 63.9084 55.7672 63.9084Z" fill="#10B981"/>
<path d="M85.0755 63.9084H65.5366C64.6374 63.9084 63.9084 64.6374 63.9084 65.5367V67.979C63.9084 68.8783 64.6374 69.6073 65.5366 69.6073H85.0755C85.9748 69.6073 86.7037 68.8783 86.7037 67.979V65.5367C86.7037 64.6374 85.9748 63.9084 85.0755 63.9084Z" fill="#E2E8F0"/>
<path d="M140.436 63.9084H120.897C119.997 63.9084 119.268 64.6374 119.268 65.5367V67.979C119.268 68.8783 119.997 69.6073 120.897 69.6073H140.436C141.335 69.6073 142.064 68.8783 142.064 67.979V65.5367C142.064 64.6374 141.335 63.9084 140.436 63.9084Z" fill="#E2E8F0"/>
<path d="M195.796 63.9084H176.257C175.358 63.9084 174.629 64.6374 174.629 65.5367V67.979C174.629 68.8783 175.358 69.6073 176.257 69.6073H195.796C196.695 69.6073 197.424 68.8783 197.424 67.979V65.5367C197.424 64.6374 196.695 63.9084 195.796 63.9084Z" fill="#E2E8F0"/>
<path d="M55.7672 81.819H10.1765C9.27721 81.819 8.54822 82.548 8.54822 83.4473V85.8896C8.54822 86.7889 9.27721 87.5179 10.1765 87.5179H55.7672C56.6664 87.5179 57.3954 86.7889 57.3954 85.8896V83.4473C57.3954 82.548 56.6664 81.819 55.7672 81.819Z" fill="#10B981"/>
<path d="M85.0755 81.819H65.5366C64.6374 81.819 63.9084 82.548 63.9084 83.4473V85.8896C63.9084 86.7889 64.6374 87.5179 65.5366 87.5179H85.0755C85.9748 87.5179 86.7037 86.7889 86.7037 85.8896V83.4473C86.7037 82.548 85.9748 81.819 85.0755 81.819Z" fill="#E2E8F0"/>
<path d="M140.436 81.819H120.897C119.997 81.819 119.268 82.548 119.268 83.4473V85.8896C119.268 86.7889 119.997 87.5179 120.897 87.5179H140.436C141.335 87.5179 142.064 86.7889 142.064 85.8896V83.4473C142.064 82.548 141.335 81.819 140.436 81.819Z" fill="#E2E8F0"/>
<path d="M195.796 81.819H176.257C175.358 81.819 174.629 82.548 174.629 83.4473V85.8896C174.629 86.7889 175.358 87.5179 176.257 87.5179H195.796C196.695 87.5179 197.424 86.7889 197.424 85.8896V83.4473C197.424 82.548 196.695 81.819 195.796 81.819Z" fill="#E2E8F0"/>
<path d="M55.7672 99.7297H10.1765C9.27721 99.7297 8.54822 100.459 8.54822 101.358V103.8C8.54822 104.7 9.27721 105.429 10.1765 105.429H55.7672C56.6664 105.429 57.3954 104.7 57.3954 103.8V101.358C57.3954 100.459 56.6664 99.7297 55.7672 99.7297Z" fill="#10B981"/>
<path d="M85.0755 99.7297H65.5366C64.6374 99.7297 63.9084 100.459 63.9084 101.358V103.8C63.9084 104.7 64.6374 105.429 65.5366 105.429H85.0755C85.9748 105.429 86.7037 104.7 86.7037 103.8V101.358C86.7037 100.459 85.9748 99.7297 85.0755 99.7297Z" fill="#E2E8F0"/>
<path d="M140.436 99.7297H120.897C119.997 99.7297 119.268 100.459 119.268 101.358V103.8C119.268 104.7 119.997 105.429 120.897 105.429H140.436C141.335 105.429 142.064 104.7 142.064 103.8V101.358C142.064 100.459 141.335 99.7297 140.436 99.7297Z" fill="#E2E8F0"/>
<path d="M195.796 99.7297H176.257C175.358 99.7297 174.629 100.459 174.629 101.358V103.8C174.629 104.7 175.358 105.429 176.257 105.429H195.796C196.695 105.429 197.424 104.7 197.424 103.8V101.358C197.424 100.459 196.695 99.7297 195.796 99.7297Z" fill="#E2E8F0"/>
<path d="M55.7672 117.64H10.1765C9.27721 117.64 8.54822 118.369 8.54822 119.269V121.711C8.54822 122.61 9.27721 123.339 10.1765 123.339H55.7672C56.6664 123.339 57.3954 122.61 57.3954 121.711V119.269C57.3954 118.369 56.6664 117.64 55.7672 117.64Z" fill="#10B981"/>
<path d="M85.0755 117.64H65.5366C64.6374 117.64 63.9084 118.369 63.9084 119.269V121.711C63.9084 122.61 64.6374 123.339 65.5366 123.339H85.0755C85.9748 123.339 86.7037 122.61 86.7037 121.711V119.269C86.7037 118.369 85.9748 117.64 85.0755 117.64Z" fill="#E2E8F0"/>
<path d="M140.436 117.64H120.897C119.997 117.64 119.268 118.369 119.268 119.269V121.711C119.268 122.61 119.997 123.339 120.897 123.339H140.436C141.335 123.339 142.064 122.61 142.064 121.711V119.269C142.064 118.369 141.335 117.64 140.436 117.64Z" fill="#E2E8F0"/>
<path d="M195.796 117.64H176.257C175.358 117.64 174.629 118.369 174.629 119.269V121.711C174.629 122.61 175.358 123.339 176.257 123.339H195.796C196.695 123.339 197.424 122.61 197.424 121.711V119.269C197.424 118.369 196.695 117.64 195.796 117.64Z" fill="#E2E8F0"/>
<path d="M55.7672 135.551H10.1765C9.27721 135.551 8.54822 136.28 8.54822 137.179V139.622C8.54822 140.521 9.27721 141.25 10.1765 141.25H55.7672C56.6664 141.25 57.3954 140.521 57.3954 139.622V137.179C57.3954 136.28 56.6664 135.551 55.7672 135.551Z" fill="#10B981"/>
<path d="M85.0755 135.551H65.5366C64.6374 135.551 63.9084 136.28 63.9084 137.179V139.622C63.9084 140.521 64.6374 141.25 65.5366 141.25H85.0755C85.9748 141.25 86.7037 140.521 86.7037 139.622V137.179C86.7037 136.28 85.9748 135.551 85.0755 135.551Z" fill="#E2E8F0"/>
<path d="M140.436 135.551H120.897C119.997 135.551 119.268 136.28 119.268 137.179V139.622C119.268 140.521 119.997 141.25 120.897 141.25H140.436C141.335 141.25 142.064 140.521 142.064 139.622V137.179C142.064 136.28 141.335 135.551 140.436 135.551Z" fill="#E2E8F0"/>
<path d="M195.796 135.551H176.257C175.358 135.551 174.629 136.28 174.629 137.179V139.622C174.629 140.521 175.358 141.25 176.257 141.25H195.796C196.695 141.25 197.424 140.521 197.424 139.622V137.179C197.424 136.28 196.695 135.551 195.796 135.551Z" fill="#E2E8F0"/>
<path d="M55.7672 153.462H10.1765C9.27721 153.462 8.54822 154.191 8.54822 155.09V157.532C8.54822 158.431 9.27721 159.16 10.1765 159.16H55.7672C56.6664 159.16 57.3954 158.431 57.3954 157.532V155.09C57.3954 154.191 56.6664 153.462 55.7672 153.462Z" fill="#10B981"/>
<path d="M85.0755 153.462H65.5366C64.6374 153.462 63.9084 154.191 63.9084 155.09V157.532C63.9084 158.431 64.6374 159.16 65.5366 159.16H85.0755C85.9748 159.16 86.7037 158.431 86.7037 157.532V155.09C86.7037 154.191 85.9748 153.462 85.0755 153.462Z" fill="#E2E8F0"/>
<path d="M140.436 153.462H120.897C119.997 153.462 119.268 154.191 119.268 155.09V157.532C119.268 158.431 119.997 159.16 120.897 159.16H140.436C141.335 159.16 142.064 158.431 142.064 157.532V155.09C142.064 154.191 141.335 153.462 140.436 153.462Z" fill="#E2E8F0"/>
<path d="M195.796 153.462H176.257C175.358 153.462 174.629 154.191 174.629 155.09V157.532C174.629 158.431 175.358 159.16 176.257 159.16H195.796C196.695 159.16 197.424 158.431 197.424 157.532V155.09C197.424 154.191 196.695 153.462 195.796 153.462Z" fill="#E2E8F0"/>
<path d="M342.337 0.407059H249.528C245.931 0.407059 243.015 3.32301 243.015 6.92002V73.6778C243.015 77.2748 245.931 80.1908 249.528 80.1908H342.337C345.934 80.1908 348.85 77.2748 348.85 73.6778V6.92002C348.85 3.32301 345.934 0.407059 342.337 0.407059Z" fill="white" stroke="#E2E8F0" stroke-width="0.81412"/>
<path fill-rule="evenodd" clip-rule="evenodd" d="M296.054 12.8115L295.828 12.81C311.606 12.81 324.396 25.1173 324.396 40.299C324.396 55.4471 311.662 67.7334 295.933 67.7879L295.933 50.9892C295.935 50.9892 295.938 50.9892 295.941 50.9892C302.014 50.9892 306.938 46.2519 306.938 40.4081C306.938 34.6008 302.076 29.8862 296.055 29.8276L296.054 12.8115Z" fill="#8001D8"/>
<path fill-rule="evenodd" clip-rule="evenodd" d="M296.205 12.8115L296.204 29.8276C290.1 29.8862 285.17 34.6008 285.17 40.4081C285.17 46.2519 290.162 50.9892 296.319 50.9892C296.321 50.9892 296.322 50.9892 296.323 50.9892L296.322 67.7879C280.377 67.7306 267.469 55.4454 267.469 40.299C267.469 25.1173 280.437 12.81 296.434 12.81L296.205 12.8115Z" fill="#005BD7"/>
<path d="M342.337 87.5179H249.528C245.931 87.5179 243.015 90.4338 243.015 94.0308V167.302C243.015 170.899 245.931 173.815 249.528 173.815H342.337C345.934 173.815 348.85 170.899 348.85 167.302V94.0308C348.85 90.4338 345.934 87.5179 342.337 87.5179Z" fill="white" stroke="#E2E8F0" stroke-width="0.81412"/>
<path d="M254.978 104.659V98.1461H256.355V101.018H256.441L258.785 98.1461H260.436L258.019 101.062L260.464 104.659H258.817L257.033 101.981L256.355 102.808V104.659H254.978ZM261.153 104.659V98.1461H263.722C264.216 98.1461 264.637 98.2405 264.985 98.4292C265.332 98.6157 265.597 98.8754 265.78 99.2083C265.964 99.539 266.056 99.9206 266.056 100.353C266.056 100.786 265.963 101.167 265.777 101.498C265.59 101.829 265.32 102.086 264.966 102.271C264.614 102.455 264.188 102.547 263.687 102.547H262.049V101.444H263.465C263.73 101.444 263.948 101.398 264.12 101.307C264.294 101.214 264.423 101.086 264.508 100.922C264.595 100.757 264.638 100.567 264.638 100.353C264.638 100.137 264.595 99.9482 264.508 99.7871C264.423 99.6238 264.294 99.4977 264.12 99.4086C263.946 99.3175 263.725 99.2719 263.458 99.2719H262.53V104.659H261.153ZM268.328 98.1461V104.659H266.951V98.1461H268.328Z" fill="#191C23"/>
<path d="M266.849 150.907C264.906 150.907 263.178 150.574 261.667 149.908C260.165 149.243 258.977 148.316 258.105 147.129C257.232 145.941 256.769 144.569 256.715 143.013H261.789C261.834 143.759 262.081 144.412 262.531 144.969C262.981 145.518 263.579 145.946 264.325 146.251C265.072 146.557 265.909 146.71 266.835 146.71C267.825 146.71 268.702 146.539 269.467 146.197C270.231 145.847 270.83 145.361 271.262 144.74C271.693 144.119 271.905 143.404 271.896 142.594C271.905 141.758 271.689 141.02 271.248 140.381C270.807 139.743 270.169 139.243 269.332 138.884C268.504 138.524 267.506 138.344 266.336 138.344H263.894V134.484H266.336C267.299 134.484 268.14 134.318 268.86 133.985C269.588 133.652 270.16 133.184 270.573 132.582C270.987 131.97 271.19 131.264 271.181 130.463C271.19 129.68 271.014 129.001 270.654 128.425C270.303 127.841 269.804 127.386 269.156 127.062C268.518 126.739 267.767 126.577 266.903 126.577C266.057 126.577 265.275 126.73 264.555 127.036C263.835 127.341 263.255 127.778 262.814 128.344C262.373 128.902 262.139 129.568 262.112 130.342H257.295C257.331 128.794 257.776 127.436 258.631 126.266C259.494 125.088 260.646 124.17 262.085 123.513C263.525 122.848 265.14 122.515 266.93 122.515C268.774 122.515 270.375 122.861 271.734 123.554C273.101 124.238 274.158 125.16 274.905 126.32C275.652 127.481 276.025 128.763 276.025 130.166C276.034 131.723 275.575 133.027 274.649 134.08C273.731 135.132 272.526 135.82 271.032 136.144V136.36C272.975 136.63 274.464 137.35 275.499 138.519C276.542 139.68 277.06 141.124 277.051 142.851C277.051 144.398 276.61 145.784 275.728 147.007C274.856 148.222 273.65 149.175 272.112 149.868C270.582 150.561 268.828 150.907 266.849 150.907ZM291.506 150.907C289.5 150.907 287.719 150.57 286.163 149.895C284.615 149.22 283.401 148.298 282.519 147.129C281.647 145.95 281.215 144.614 281.224 143.121C281.215 141.96 281.467 140.894 281.979 139.923C282.492 138.951 283.185 138.141 284.058 137.494C284.939 136.837 285.92 136.419 286.999 136.239V136.05C285.578 135.735 284.426 135.011 283.545 133.877C282.672 132.735 282.24 131.417 282.249 129.923C282.24 128.502 282.636 127.233 283.437 126.118C284.237 125.002 285.335 124.125 286.729 123.486C288.124 122.839 289.716 122.515 291.506 122.515C293.279 122.515 294.857 122.839 296.243 123.486C297.637 124.125 298.735 125.002 299.536 126.118C300.345 127.233 300.75 128.502 300.75 129.923C300.75 131.417 300.305 132.735 299.414 133.877C298.532 135.011 297.394 135.735 296 136.05V136.239C297.08 136.419 298.051 136.837 298.915 137.494C299.787 138.141 300.48 138.951 300.993 139.923C301.515 140.894 301.776 141.96 301.776 143.121C301.776 144.614 301.335 145.95 300.453 147.129C299.571 148.298 298.357 149.22 296.81 149.895C295.271 150.57 293.504 150.907 291.506 150.907ZM291.506 147.048C292.541 147.048 293.441 146.872 294.205 146.521C294.97 146.161 295.564 145.658 295.987 145.01C296.409 144.362 296.625 143.616 296.634 142.77C296.625 141.888 296.396 141.11 295.946 140.435C295.505 139.752 294.898 139.216 294.124 138.83C293.36 138.443 292.487 138.249 291.506 138.249C290.517 138.249 289.635 138.443 288.862 138.83C288.088 139.216 287.476 139.752 287.026 140.435C286.585 141.11 286.37 141.888 286.379 142.77C286.37 143.616 286.576 144.362 286.999 145.01C287.422 145.649 288.016 146.148 288.781 146.508C289.554 146.868 290.463 147.048 291.506 147.048ZM291.506 134.457C292.352 134.457 293.099 134.286 293.746 133.945C294.403 133.603 294.92 133.126 295.298 132.514C295.676 131.902 295.87 131.196 295.879 130.396C295.87 129.604 295.681 128.911 295.312 128.317C294.943 127.715 294.43 127.251 293.773 126.928C293.117 126.595 292.361 126.428 291.506 126.428C290.634 126.428 289.865 126.595 289.199 126.928C288.542 127.251 288.029 127.715 287.661 128.317C287.301 128.911 287.125 129.604 287.134 130.396C287.125 131.196 287.305 131.902 287.674 132.514C288.052 133.117 288.569 133.594 289.226 133.945C289.892 134.286 290.652 134.457 291.506 134.457ZM320.988 145.347V143.89C320.988 142.819 321.213 141.834 321.663 140.935C322.122 140.035 322.787 139.311 323.66 138.762C324.533 138.213 325.59 137.939 326.831 137.939C328.109 137.939 329.179 138.213 330.043 138.762C330.906 139.302 331.559 140.022 331.999 140.921C332.449 141.821 332.674 142.81 332.674 143.89V145.347C332.674 146.418 332.449 147.403 331.999 148.303C331.55 149.202 330.888 149.926 330.016 150.475C329.152 151.024 328.091 151.298 326.831 151.298C325.572 151.298 324.506 151.024 323.633 150.475C322.76 149.926 322.099 149.202 321.649 148.303C321.209 147.403 320.988 146.418 320.988 145.347ZM324.51 143.89V145.347C324.51 146.058 324.681 146.71 325.023 147.304C325.365 147.898 325.968 148.195 326.831 148.195C327.704 148.195 328.302 147.902 328.626 147.317C328.959 146.724 329.125 146.067 329.125 145.347V143.89C329.125 143.17 328.968 142.513 328.653 141.92C328.338 141.317 327.731 141.016 326.831 141.016C325.985 141.016 325.387 141.317 325.036 141.92C324.686 142.513 324.51 143.17 324.51 143.89ZM306.941 129.532V128.075C306.941 126.995 307.17 126.005 307.629 125.106C308.088 124.206 308.753 123.486 309.626 122.947C310.499 122.398 311.556 122.124 312.797 122.124C314.066 122.124 315.132 122.398 315.995 122.947C316.868 123.486 317.525 124.206 317.965 125.106C318.406 126.005 318.627 126.995 318.627 128.075V129.532C318.627 130.612 318.402 131.601 317.952 132.501C317.511 133.391 316.854 134.107 315.982 134.646C315.109 135.186 314.048 135.456 312.797 135.456C311.529 135.456 310.458 135.186 309.585 134.646C308.722 134.107 308.065 133.387 307.615 132.487C307.165 131.588 306.941 130.603 306.941 129.532ZM310.49 128.075V129.532C310.49 130.252 310.656 130.908 310.989 131.502C311.331 132.087 311.933 132.379 312.797 132.379C313.661 132.379 314.254 132.087 314.578 131.502C314.911 130.908 315.078 130.252 315.078 129.532V128.075C315.078 127.355 314.92 126.698 314.605 126.104C314.29 125.502 313.688 125.2 312.797 125.2C311.942 125.2 311.344 125.502 311.002 126.104C310.66 126.707 310.49 127.364 310.49 128.075ZM308.479 150.529L327.479 122.893H330.852L311.852 150.529H308.479Z" fill="#CBD5E1"/>
</svg>
