<svg width="297" height="196" viewBox="0 0 297 196" fill="none" xmlns="http://www.w3.org/2000/svg">
<g clip-path="url(#clip0_125_2948)">
<path d="M42.6976 0V195.427" stroke="#CBD5E1" stroke-width="0.723354" stroke-linecap="square"/>
<path d="M42 195.427H285" stroke="#CBD5E1" stroke-width="0.723354" stroke-linecap="square"/>
<path d="M73.8572 43.0916H62.6956C61.1545 43.0916 59.9052 44.63 59.9052 46.5277V191.991C59.9052 193.889 61.1545 195.427 62.6956 195.427H73.8572C75.3983 195.427 76.6476 193.889 76.6476 191.991V46.5277C76.6476 44.63 75.3983 43.0916 73.8572 43.0916Z" fill="#005BD7"/>
<path d="M90.1345 12.1663H78.9729C77.4318 12.1663 76.1825 13.7047 76.1825 15.6024V191.991C76.1825 193.889 77.4318 195.427 78.9729 195.427H90.1345C91.6756 195.427 92.925 193.889 92.925 191.991V15.6024C92.925 13.7047 91.6756 12.1663 90.1345 12.1663Z" fill="#8001D8"/>
<path d="M106.877 55.6907H95.7154C94.1743 55.6907 92.925 57.2291 92.925 59.1269V191.991C92.925 193.889 94.1743 195.427 95.7154 195.427H106.877C108.418 195.427 109.667 193.889 109.667 191.991V59.1269C109.667 57.2291 108.418 55.6907 106.877 55.6907Z" fill="#31CAA8"/>
<path d="M154.314 94.6337H143.152C141.611 94.6337 140.362 96.1721 140.362 98.0699V191.991C140.362 193.889 141.611 195.427 143.152 195.427H154.314C155.855 195.427 157.104 193.889 157.104 191.991V98.0699C157.104 96.1721 155.855 94.6337 154.314 94.6337Z" fill="#005BD7"/>
<path d="M170.591 75.1622H159.43C157.889 75.1622 156.639 76.7006 156.639 78.5984V191.991C156.639 193.889 157.889 195.427 159.43 195.427H170.591C172.132 195.427 173.382 193.889 173.382 191.991V78.5984C173.382 76.7006 172.132 75.1622 170.591 75.1622Z" fill="#8001D8"/>
<path d="M186.869 55.6907H175.707C174.166 55.6907 172.917 57.2291 172.917 59.1269V191.991C172.917 193.889 174.166 195.427 175.707 195.427H186.869C188.41 195.427 189.659 193.889 189.659 191.991V59.1269C189.659 57.2291 188.41 55.6907 186.869 55.6907Z" fill="#31CAA8"/>
<path d="M235.701 33.9285H224.539C222.998 33.9285 221.749 35.4669 221.749 37.3646V191.991C221.749 193.889 222.998 195.427 224.539 195.427H235.701C237.242 195.427 238.491 193.889 238.491 191.991V37.3646C238.491 35.4669 237.242 33.9285 235.701 33.9285Z" fill="#005BD7"/>
<path d="M251.978 55.6907H240.817C239.276 55.6907 238.026 57.2291 238.026 59.1269V191.991C238.026 193.889 239.276 195.427 240.817 195.427H251.978C253.519 195.427 254.769 193.889 254.769 191.991V59.1269C254.769 57.2291 253.519 55.6907 251.978 55.6907Z" fill="#8001D8"/>
<path d="M267.791 12.1663H256.629C255.088 12.1663 253.839 13.7047 253.839 15.6024V191.991C253.839 193.889 255.088 195.427 256.629 195.427H267.791C269.332 195.427 270.581 193.889 270.581 191.991V15.6024C270.581 13.7047 269.332 12.1663 267.791 12.1663Z" fill="#31CAA8"/>
</g>
<g filter="url(#filter0_dd_125_2948)">
<mask id="path-12-inside-1_125_2948" fill="white">
<path d="M3 17C3 12.5817 6.58172 9 11 9H55C59.4183 9 63 12.5817 63 17V40C63 44.4183 59.4183 48 55 48H11C6.58172 48 3 44.4183 3 40V17Z"/>
</mask>
<path d="M3 17C3 12.5817 6.58172 9 11 9H55C59.4183 9 63 12.5817 63 17V40C63 44.4183 59.4183 48 55 48H11C6.58172 48 3 44.4183 3 40V17Z" fill="white" shape-rendering="crispEdges"/>
<path d="M11 9V10H55V9V8H11V9ZM63 17H62V40H63H64V17H63ZM55 48V47H11V48V49H55V48ZM3 40H4V17H3H2V40H3ZM11 48V47C7.13401 47 4 43.866 4 40H3H2C2 44.9706 6.02944 49 11 49V48ZM63 40H62C62 43.866 58.866 47 55 47V48V49C59.9706 49 64 44.9706 64 40H63ZM55 9V10C58.866 10 62 13.134 62 17H63H64C64 12.0294 59.9706 8 55 8V9ZM11 9V8C6.02944 8 2 12.0294 2 17H3H4C4 13.134 7.13401 10 11 10V9Z" fill="#E2E8F0" mask="url(#path-12-inside-1_125_2948)"/>
<path d="M11.5714 23.8636C12.4393 23.8636 13.1429 23.1717 13.1429 22.3182C13.1429 21.4646 12.4393 20.7727 11.5714 20.7727C10.7036 20.7727 10 21.4646 10 22.3182C10 23.1717 10.7036 23.8636 11.5714 23.8636Z" fill="#CBD5E1"/>
<path d="M16.2857 23.8636C17.1536 23.8636 17.8572 23.1717 17.8572 22.3182C17.8572 21.4646 17.1536 20.7727 16.2857 20.7727C15.4178 20.7727 14.7143 21.4646 14.7143 22.3182C14.7143 23.1717 15.4178 23.8636 16.2857 23.8636Z" fill="#CBD5E1"/>
<path d="M11.5714 30.0454C12.4393 30.0454 13.1429 29.3535 13.1429 28.5C13.1429 27.6465 12.4393 26.9545 11.5714 26.9545C10.7036 26.9545 10 27.6465 10 28.5C10 29.3535 10.7036 30.0454 11.5714 30.0454Z" fill="#CBD5E1"/>
<path d="M16.2857 30.0454C17.1536 30.0454 17.8572 29.3535 17.8572 28.5C17.8572 27.6465 17.1536 26.9545 16.2857 26.9545C15.4178 26.9545 14.7143 27.6465 14.7143 28.5C14.7143 29.3535 15.4178 30.0454 16.2857 30.0454Z" fill="#CBD5E1"/>
<path d="M11.5714 36.2273C12.4393 36.2273 13.1429 35.5353 13.1429 34.6818C13.1429 33.8283 12.4393 33.1364 11.5714 33.1364C10.7036 33.1364 10 33.8283 10 34.6818C10 35.5353 10.7036 36.2273 11.5714 36.2273Z" fill="#CBD5E1"/>
<path d="M16.2857 36.2273C17.1536 36.2273 17.8572 35.5353 17.8572 34.6818C17.8572 33.8283 17.1536 33.1364 16.2857 33.1364C15.4178 33.1364 14.7143 33.8283 14.7143 34.6818C14.7143 35.5353 15.4178 36.2273 16.2857 36.2273Z" fill="#CBD5E1"/>
<path d="M26.8864 34.2905H25.4091L29.6818 22.6541H31.1364L35.4091 34.2905H33.9318L30.4545 24.495H30.3636L26.8864 34.2905ZM27.4318 29.745H33.3864V30.995H27.4318V29.745ZM40.627 37.745C39.9792 37.745 39.4224 37.6617 38.9565 37.495C38.4906 37.3321 38.1023 37.1162 37.7917 36.8473C37.4849 36.5821 37.2406 36.298 37.0588 35.995L38.127 35.245C38.2482 35.4041 38.4016 35.5859 38.5872 35.7905C38.7728 35.9988 39.0266 36.1787 39.3485 36.3302C39.6743 36.4855 40.1004 36.5632 40.627 36.5632C41.3315 36.5632 41.9129 36.3927 42.3713 36.0518C42.8296 35.7109 43.0588 35.1768 43.0588 34.4496V32.6768H42.9451C42.8467 32.8359 42.7065 33.0329 42.5247 33.2677C42.3467 33.4988 42.0891 33.7052 41.752 33.8871C41.4186 34.0651 40.9679 34.1541 40.3997 34.1541C39.6951 34.1541 39.0626 33.9874 38.502 33.6541C37.9451 33.3208 37.5038 32.8359 37.1781 32.1996C36.8561 31.5632 36.6951 30.7905 36.6951 29.8814C36.6951 28.9874 36.8523 28.209 37.1667 27.5461C37.4811 26.8795 37.9186 26.3643 38.4792 26.0007C39.0398 25.6333 39.6876 25.4496 40.4224 25.4496C40.9906 25.4496 41.4413 25.5443 41.7747 25.7336C42.1118 25.9193 42.3694 26.1314 42.5474 26.37C42.7292 26.6049 42.8694 26.798 42.9679 26.9496H43.1042V25.5632H44.3997V34.5405C44.3997 35.2905 44.2292 35.9003 43.8883 36.37C43.5512 36.8435 43.0967 37.1901 42.5247 37.4098C41.9565 37.6333 41.3239 37.745 40.627 37.745ZM40.5815 32.9496C41.1194 32.9496 41.5739 32.8265 41.9451 32.5802C42.3163 32.334 42.5985 31.9799 42.7917 31.5177C42.9849 31.0556 43.0815 30.5026 43.0815 29.8586C43.0815 29.2299 42.9868 28.6749 42.7974 28.1939C42.608 27.7128 42.3277 27.3359 41.9565 27.0632C41.5853 26.7905 41.127 26.6541 40.5815 26.6541C40.0133 26.6541 39.5398 26.798 39.161 27.0859C38.786 27.3738 38.5038 27.7602 38.3145 28.245C38.1288 28.7299 38.036 29.2677 38.036 29.8586C38.036 30.4647 38.1307 31.0007 38.3201 31.4666C38.5133 31.9287 38.7974 32.2924 39.1724 32.5575C39.5512 32.8189 40.0209 32.9496 40.5815 32.9496ZM50.5778 34.4723C49.7369 34.4723 49.0115 34.2867 48.4016 33.9155C47.7956 33.5405 47.3278 33.0177 46.9982 32.3473C46.6725 31.673 46.5096 30.889 46.5096 29.995C46.5096 29.1011 46.6725 28.3132 46.9982 27.6314C47.3278 26.9458 47.7861 26.4117 48.3732 26.0291C48.9641 25.6427 49.6535 25.4496 50.4414 25.4496C50.896 25.4496 51.3448 25.5253 51.788 25.6768C52.2312 25.8283 52.6346 26.0746 52.9982 26.4155C53.3619 26.7526 53.6516 27.1996 53.8675 27.7564C54.0835 28.3132 54.1914 28.9988 54.1914 29.8132V30.3814H47.4641V29.2223H52.8278C52.8278 28.7299 52.7293 28.2905 52.5323 27.9041C52.3391 27.5177 52.0626 27.2128 51.7028 26.9893C51.3467 26.7658 50.9263 26.6541 50.4414 26.6541C49.9073 26.6541 49.4452 26.7867 49.055 27.0518C48.6687 27.3132 48.3713 27.6541 48.163 28.0746C47.9547 28.495 47.8505 28.9458 47.8505 29.4268V30.1996C47.8505 30.8586 47.9641 31.4174 48.1914 31.8757C48.4225 32.3302 48.7425 32.6768 49.1516 32.9155C49.5607 33.1503 50.0361 33.2677 50.5778 33.2677C50.93 33.2677 51.2482 33.2185 51.5323 33.12C51.8202 33.0177 52.0683 32.8662 52.2766 32.6655C52.485 32.4609 52.646 32.2071 52.7596 31.9041L54.055 32.2677C53.9187 32.7071 53.6895 33.0935 53.3675 33.4268C53.0456 33.7564 52.6478 34.014 52.1744 34.1996C51.7009 34.3814 51.1687 34.4723 50.5778 34.4723Z" fill="#94A3B8"/>
</g>
<path fill-rule="evenodd" clip-rule="evenodd" d="M45.9287 68.4546V68.4562C44.5801 71.0515 41.8892 73.7543 38.9158 73.9438C38.7963 73.9517 38.7327 73.958 38.6675 73.958L31.8005 73.9549L31.0261 73.9596C30.753 73.9612 30.4767 73.9628 30.2021 73.9628C28.855 73.9628 27.4972 73.9138 26.2541 73.5615C24.6386 73.1035 23.5399 71.9172 22.376 70.6598C22.0811 70.3375 21.7925 70.0311 21.4961 69.7294L14.6275 62.7348C13.8748 61.9702 13.462 60.9498 13.462 59.8662C13.462 58.7825 13.8748 57.7637 14.6275 56.9976L14.7966 56.827C15.5477 56.0608 16.5487 55.6391 17.6133 55.6391C18.6779 55.6391 19.6835 56.0672 20.4486 56.8459C20.5929 56.9897 20.8101 57.0307 21.0057 56.9533C21.195 56.8712 21.3176 56.6832 21.3176 56.4716L21.3161 45.2451C21.3161 43.5154 22.6972 42.108 24.3965 42.108C25.8754 42.108 27.148 43.1853 27.4211 44.6686L27.4258 47.1565C27.4258 47.2086 27.4366 47.2639 27.4599 47.3302L27.477 47.4392V47.7299C27.477 48.0174 27.7067 48.2527 27.9906 48.2527C28.2731 48.2527 28.5028 48.0174 28.5028 47.7299V45.2436C28.5028 45.0398 28.4841 44.8392 28.4562 44.6433L28.4531 44.0983C28.4531 42.3686 29.8343 40.9628 31.5336 40.9628C33.2329 40.9628 34.614 42.3686 34.614 44.0983V48.3017C34.614 48.447 34.6714 48.5813 34.7754 48.6777C35.1572 49.2258 35.7655 48.9162 35.7655 48.4502V45.1393C35.7655 43.6734 36.9372 42.4808 38.3773 42.4808C39.819 42.4808 40.9907 43.6734 40.9907 45.1393V47.1802C40.9441 47.4566 40.9224 47.6699 40.9224 47.8815V49.409C40.9224 49.5954 41.0202 49.7629 41.1815 49.8577C41.6114 50.1594 42.018 49.8466 42.018 49.4517L42.0289 47.3129C42.2834 46.3082 43.171 45.6053 44.1844 45.6053C45.4182 45.6053 46.4207 46.6273 46.4207 47.8831V56.3136C46.4207 56.361 46.43 56.4036 46.4393 56.4463L46.4455 64.3176C46.4455 64.5671 46.4486 64.8072 46.4533 65.0458C46.4765 66.2889 46.4952 67.3615 45.9287 68.4546Z" fill="white"/>
<path fill-rule="evenodd" clip-rule="evenodd" d="M45.5982 68.6122V68.6137C44.264 71.1285 41.6018 73.7474 38.6602 73.9311C38.542 73.9388 38.4791 73.9449 38.4146 73.9449L31.6209 73.9418L30.8548 73.9464C30.5846 73.948 30.3113 73.9495 30.0396 73.9495C28.7069 73.9495 27.3636 73.902 26.1338 73.5607C24.5356 73.1168 23.4486 71.9673 22.2971 70.7489C22.0054 70.4367 21.7198 70.1397 21.4266 69.8474L14.6314 63.0697C13.8868 62.3289 13.4784 61.3401 13.4784 60.2901C13.4784 59.2401 13.8868 58.2528 14.6314 57.5105L14.7987 57.3452C15.5418 56.6028 16.5321 56.1941 17.5853 56.1941C18.6385 56.1941 19.6334 56.6089 20.3903 57.3635C20.5331 57.5028 20.748 57.5426 20.9414 57.4676C21.1287 57.388 21.25 57.2059 21.25 57.0008L21.2485 46.1225C21.2485 44.4465 22.6149 43.0827 24.296 43.0827C25.7592 43.0827 27.0181 44.1266 27.2883 45.5639L27.2929 47.9746C27.2929 48.0251 27.3037 48.0787 27.3267 48.143L27.3436 48.2486V48.5302C27.3436 48.8088 27.5708 49.0369 27.8518 49.0369C28.1312 49.0369 28.3584 48.8088 28.3584 48.5302V46.121C28.3584 45.9236 28.34 45.7292 28.3124 45.5394L28.3093 45.0113C28.3093 43.3353 29.6757 41.973 31.3568 41.973C33.038 41.973 34.4044 43.3353 34.4044 45.0113V49.0843C34.4044 49.2251 34.4612 49.3552 34.5641 49.4486C34.9417 49.9797 35.5436 49.6797 35.5436 49.2282V46.02C35.5436 44.5996 36.7027 43.4439 38.1275 43.4439C39.5538 43.4439 40.7129 44.5996 40.7129 46.02V47.9976C40.6668 48.2654 40.6453 48.4721 40.6453 48.6772V50.1573C40.6453 50.3379 40.7421 50.5002 40.9017 50.592C41.327 50.8843 41.7293 50.5813 41.7293 50.1986L41.74 48.1261C41.9918 47.1527 42.87 46.4715 43.8725 46.4715C45.0931 46.4715 46.0849 47.4618 46.0849 48.6787V56.8477C46.0849 56.8936 46.0941 56.9349 46.1033 56.9763L46.1094 64.6034C46.1094 64.8453 46.1125 65.0779 46.1171 65.3091C46.1402 66.5137 46.1586 67.553 45.5982 68.6122ZM47.462 65.2861L47.135 65.2922C47.132 65.0672 47.1304 64.8376 47.1304 64.6019V55.187C47.1304 55.141 47.1212 55.0997 47.112 55.0584L47.1059 48.6756C47.1059 46.9001 45.6581 45.4567 43.8771 45.4567C43.2937 45.4567 42.7165 45.619 42.2098 45.9251L41.7646 46.1945L41.7154 45.6787C41.5389 43.8266 39.999 42.4306 38.1321 42.4306C37.1802 42.4306 36.2821 42.7995 35.6019 43.4699L35.2672 43.8006L35.0738 43.372C34.4198 41.9072 32.9628 40.9628 31.363 40.9628C29.8154 40.9628 28.4229 41.823 27.729 43.2097L27.5248 43.62L27.2039 43.2924C26.4301 42.5056 25.3999 42.0725 24.3007 42.0725C22.0591 42.0725 20.2367 43.8909 20.2367 46.1241V55.914L19.7669 55.6859C19.0822 55.3523 18.3483 55.1839 17.5853 55.1839C16.2634 55.1839 15.0183 55.6967 14.0802 56.6288L13.9144 56.7957C12.9779 57.7293 12.462 58.9692 12.462 60.2901C12.462 61.6095 12.9779 62.8493 13.9129 63.7861L20.7127 70.5637C20.989 70.8392 21.2577 71.1255 21.5264 71.4086C22.7562 72.7112 23.9921 74.0184 25.862 74.5357C27.2791 74.9306 28.7745 74.9628 30.0626 74.9628L38.4176 74.9566C38.4775 74.9566 38.5359 74.9536 38.5942 74.9505L38.6802 74.9459C42.2927 74.7194 45.1407 71.6474 46.4979 69.0851C47.1765 67.8055 47.158 66.5871 47.1366 65.2983L47.462 65.2861Z" fill="#E5E5E5"/>
<defs>
<filter id="filter0_dd_125_2948" x="0" y="7" width="66" height="45" filterUnits="userSpaceOnUse" color-interpolation-filters="sRGB">
<feFlood flood-opacity="0" result="BackgroundImageFix"/>
<feColorMatrix in="SourceAlpha" type="matrix" values="0 0 0 0 0 0 0 0 0 0 0 0 0 0 0 0 0 0 127 0" result="hardAlpha"/>
<feMorphology radius="1" operator="erode" in="SourceAlpha" result="effect1_dropShadow_125_2948"/>
<feOffset dy="1"/>
<feGaussianBlur stdDeviation="1"/>
<feComposite in2="hardAlpha" operator="out"/>
<feColorMatrix type="matrix" values="0 0 0 0 0 0 0 0 0 0 0 0 0 0 0 0 0 0 0.1 0"/>
<feBlend mode="normal" in2="BackgroundImageFix" result="effect1_dropShadow_125_2948"/>
<feColorMatrix in="SourceAlpha" type="matrix" values="0 0 0 0 0 0 0 0 0 0 0 0 0 0 0 0 0 0 127 0" result="hardAlpha"/>
<feOffset dy="1"/>
<feGaussianBlur stdDeviation="1.5"/>
<feComposite in2="hardAlpha" operator="out"/>
<feColorMatrix type="matrix" values="0 0 0 0 0 0 0 0 0 0 0 0 0 0 0 0 0 0 0.1 0"/>
<feBlend mode="normal" in2="effect1_dropShadow_125_2948" result="effect2_dropShadow_125_2948"/>
<feBlend mode="normal" in="SourceGraphic" in2="effect2_dropShadow_125_2948" result="shape"/>
</filter>
<clipPath id="clip0_125_2948">
<rect width="243" height="196" fill="white" transform="translate(42)"/>
</clipPath>
</defs>
</svg>
