<svg width="432" height="217" viewBox="0 0 432 217" fill="none" xmlns="http://www.w3.org/2000/svg">
<g clip-path="url(#clip0_124_1683)">
<path d="M1 0.5V84" stroke="#CCD1DB" stroke-linecap="square"/>
<path d="M1 83H118" stroke="#CCD1DB" stroke-linecap="square"/>
<path d="M2 22H118" stroke="#DDE1E7" stroke-dasharray="3 2"/>
<path d="M2 44H118" stroke="#DDE1E7" stroke-dasharray="3 2"/>
<path d="M2 66H118" stroke="#DDE1E7" stroke-dasharray="3 2"/>
<path d="M6 54L20.7 64L45.7 44.5L74.6 54.75L117 10" stroke="#005BD7" stroke-width="2" stroke-linecap="round" stroke-linejoin="round"/>
<path d="M6 56.5C7.38071 56.5 8.5 55.3807 8.5 54C8.5 52.6193 7.38071 51.5 6 51.5C4.61929 51.5 3.5 52.6193 3.5 54C3.5 55.3807 4.61929 56.5 6 56.5Z" fill="white" stroke="#005BD7" stroke-width="1.5"/>
<path d="M20.7 66.5C22.0807 66.5 23.2 65.3807 23.2 64C23.2 62.6193 22.0807 61.5 20.7 61.5C19.3193 61.5 18.2 62.6193 18.2 64C18.2 65.3807 19.3193 66.5 20.7 66.5Z" fill="white" stroke="#005BD7" stroke-width="1.5"/>
<path d="M45.7 47C47.0807 47 48.2 45.8807 48.2 44.5C48.2 43.1193 47.0807 42 45.7 42C44.3193 42 43.2 43.1193 43.2 44.5C43.2 45.8807 44.3193 47 45.7 47Z" fill="white" stroke="#005BD7" stroke-width="1.5"/>
<path d="M74.6 57.25C75.9807 57.25 77.1 56.1307 77.1 54.75C77.1 53.3693 75.9807 52.25 74.6 52.25C73.2193 52.25 72.1 53.3693 72.1 54.75C72.1 56.1307 73.2193 57.25 74.6 57.25Z" fill="white" stroke="#005BD7" stroke-width="1.5"/>
<path d="M117 12.5C118.381 12.5 119.5 11.3807 119.5 10C119.5 8.61929 118.381 7.5 117 7.5C115.619 7.5 114.5 8.61929 114.5 10C114.5 11.3807 115.619 12.5 117 12.5Z" fill="white" stroke="#005BD7" stroke-width="1.5"/>
<path d="M8 43.3L20.1 57L44.8 36.7L73.8 50.4L116 21" stroke="#8001D8" stroke-width="2" stroke-linecap="round" stroke-linejoin="round"/>
<path d="M8 45.8C9.38071 45.8 10.5 44.6807 10.5 43.3C10.5 41.9193 9.38071 40.8 8 40.8C6.61929 40.8 5.5 41.9193 5.5 43.3C5.5 44.6807 6.61929 45.8 8 45.8Z" fill="white" stroke="#8001D8" stroke-width="1.5"/>
<path d="M20.1 59.5C21.4807 59.5 22.6 58.3807 22.6 57C22.6 55.6193 21.4807 54.5 20.1 54.5C18.7193 54.5 17.6 55.6193 17.6 57C17.6 58.3807 18.7193 59.5 20.1 59.5Z" fill="white" stroke="#8001D8" stroke-width="1.5"/>
<path d="M44.8 39.2C46.1807 39.2 47.3 38.0807 47.3 36.7C47.3 35.3193 46.1807 34.2 44.8 34.2C43.4193 34.2 42.3 35.3193 42.3 36.7C42.3 38.0807 43.4193 39.2 44.8 39.2Z" fill="white" stroke="#8001D8" stroke-width="1.5"/>
<path d="M73.8 52.9C75.1807 52.9 76.3 51.7807 76.3 50.4C76.3 49.0193 75.1807 47.9 73.8 47.9C72.4193 47.9 71.3 49.0193 71.3 50.4C71.3 51.7807 72.4193 52.9 73.8 52.9Z" fill="white" stroke="#8001D8" stroke-width="1.5"/>
<path d="M116 23.5C117.381 23.5 118.5 22.3807 118.5 21C118.5 19.6193 117.381 18.5 116 18.5C114.619 18.5 113.5 19.6193 113.5 21C113.5 22.3807 114.619 23.5 116 23.5Z" fill="white" stroke="#8001D8" stroke-width="1.5"/>
<path d="M8 48.1L20.1 76L45.7 30.6L73.8 66.6L116 0" stroke="#31CAA8" stroke-width="2" stroke-linecap="round" stroke-linejoin="round"/>
<path d="M8 50.6C9.38071 50.6 10.5 49.4807 10.5 48.1C10.5 46.7193 9.38071 45.6 8 45.6C6.61929 45.6 5.5 46.7193 5.5 48.1C5.5 49.4807 6.61929 50.6 8 50.6Z" fill="white" stroke="#31CAA8" stroke-width="1.5"/>
<path d="M20.1 78.5C21.4807 78.5 22.6 77.3807 22.6 76C22.6 74.6193 21.4807 73.5 20.1 73.5C18.7193 73.5 17.6 74.6193 17.6 76C17.6 77.3807 18.7193 78.5 20.1 78.5Z" fill="white" stroke="#31CAA8" stroke-width="1.5"/>
<path d="M45.7 33.1C47.0807 33.1 48.2 31.9807 48.2 30.6C48.2 29.2193 47.0807 28.1 45.7 28.1C44.3193 28.1 43.2 29.2193 43.2 30.6C43.2 31.9807 44.3193 33.1 45.7 33.1Z" fill="white" stroke="#31CAA8" stroke-width="1.5"/>
<path d="M73.8 69.1C75.1807 69.1 76.3 67.9807 76.3 66.6C76.3 65.2193 75.1807 64.1 73.8 64.1C72.4193 64.1 71.3 65.2193 71.3 66.6C71.3 67.9807 72.4193 69.1 73.8 69.1Z" fill="white" stroke="#31CAA8" stroke-width="1.5"/>
<path d="M116 2.5C117.381 2.5 118.5 1.38071 118.5 0C118.5 -1.38071 117.381 -2.5 116 -2.5C114.619 -2.5 113.5 -1.38071 113.5 0C113.5 1.38071 114.619 2.5 116 2.5Z" fill="white" stroke="#31CAA8" stroke-width="1.5"/>
<path d="M285 5H155C150.582 5 147 8.58172 147 13V75C147 79.4183 150.582 83 155 83H285C289.418 83 293 79.4183 293 75V13C293 8.58172 289.418 5 285 5Z" fill="white" stroke="#DDE1E7"/>
<path d="M211 15H193C191.895 15 191 15.8954 191 17V19C191 20.1046 191.895 21 193 21H211C212.105 21 213 20.1046 213 19V17C213 15.8954 212.105 15 211 15Z" fill="#31CAA8"/>
<path d="M243 15H225C223.895 15 223 15.8954 223 17V19C223 20.1046 223.895 21 225 21H243C244.105 21 245 20.1046 245 19V17C245 15.8954 244.105 15 243 15Z" fill="#31CAA8"/>
<path d="M275 15H257C255.895 15 255 15.8954 255 17V19C255 20.1046 255.895 21 257 21H275C276.105 21 277 20.1046 277 19V17C277 15.8954 276.105 15 275 15Z" fill="#31CAA8"/>
<path d="M181 28H163C161.895 28 161 28.8954 161 30V32C161 33.1046 161.895 34 163 34H181C182.105 34 183 33.1046 183 32V30C183 28.8954 182.105 28 181 28Z" fill="#31CAA8"/>
<path d="M181 41H163C161.895 41 161 41.8954 161 43V45C161 46.1046 161.895 47 163 47H181C182.105 47 183 46.1046 183 45V43C183 41.8954 182.105 41 181 41Z" fill="#31CAA8"/>
<path d="M181 54H163C161.895 54 161 54.8954 161 56V58C161 59.1046 161.895 60 163 60H181C182.105 60 183 59.1046 183 58V56C183 54.8954 182.105 54 181 54Z" fill="#31CAA8"/>
<path d="M181 67H163C161.895 67 161 67.8954 161 69V71C161 72.1046 161.895 73 163 73H181C182.105 73 183 72.1046 183 71V69C183 67.8954 182.105 67 181 67Z" fill="#31CAA8"/>
<path d="M206 28H198C196.895 28 196 28.8954 196 30V32C196 33.1046 196.895 34 198 34H206C207.105 34 208 33.1046 208 32V30C208 28.8954 207.105 28 206 28Z" fill="#DDE1E7"/>
<path d="M238 28H230C228.895 28 228 28.8954 228 30V32C228 33.1046 228.895 34 230 34H238C239.105 34 240 33.1046 240 32V30C240 28.8954 239.105 28 238 28Z" fill="#DDE1E7"/>
<path d="M270 28H262C260.895 28 260 28.8954 260 30V32C260 33.1046 260.895 34 262 34H270C271.105 34 272 33.1046 272 32V30C272 28.8954 271.105 28 270 28Z" fill="#DDE1E7"/>
<path d="M206 41H198C196.895 41 196 41.8954 196 43V45C196 46.1046 196.895 47 198 47H206C207.105 47 208 46.1046 208 45V43C208 41.8954 207.105 41 206 41Z" fill="#DDE1E7"/>
<path d="M238 41H230C228.895 41 228 41.8954 228 43V45C228 46.1046 228.895 47 230 47H238C239.105 47 240 46.1046 240 45V43C240 41.8954 239.105 41 238 41Z" fill="#DDE1E7"/>
<path d="M270 41H262C260.895 41 260 41.8954 260 43V45C260 46.1046 260.895 47 262 47H270C271.105 47 272 46.1046 272 45V43C272 41.8954 271.105 41 270 41Z" fill="#DDE1E7"/>
<path d="M206 54H198C196.895 54 196 54.8954 196 56V58C196 59.1046 196.895 60 198 60H206C207.105 60 208 59.1046 208 58V56C208 54.8954 207.105 54 206 54Z" fill="#DDE1E7"/>
<path d="M238 54H230C228.895 54 228 54.8954 228 56V58C228 59.1046 228.895 60 230 60H238C239.105 60 240 59.1046 240 58V56C240 54.8954 239.105 54 238 54Z" fill="#DDE1E7"/>
<path d="M270 54H262C260.895 54 260 54.8954 260 56V58C260 59.1046 260.895 60 262 60H270C271.105 60 272 59.1046 272 58V56C272 54.8954 271.105 54 270 54Z" fill="#DDE1E7"/>
<path d="M206 67H198C196.895 67 196 67.8954 196 69V71C196 72.1046 196.895 73 198 73H206C207.105 73 208 72.1046 208 71V69C208 67.8954 207.105 67 206 67Z" fill="#DDE1E7"/>
<path d="M238 67H230C228.895 67 228 67.8954 228 69V71C228 72.1046 228.895 73 230 73H238C239.105 73 240 72.1046 240 71V69C240 67.8954 239.105 67 238 67Z" fill="#DDE1E7"/>
<path d="M270 67H262C260.895 67 260 67.8954 260 69V71C260 72.1046 260.895 73 262 73H270C271.105 73 272 72.1046 272 71V69C272 67.8954 271.105 67 270 67Z" fill="#DDE1E7"/>
<path d="M338 2V88" stroke="#CCD1DB" stroke-linecap="square"/>
<path d="M400 2H341C339.895 2 339 2.89543 339 4V7C339 8.10457 339.895 9 341 9H400C401.105 9 402 8.10457 402 7V4C402 2.89543 401.105 2 400 2Z" fill="#005BD7"/>
<path d="M414 10H341C339.895 10 339 10.8954 339 12V15C339 16.1046 339.895 17 341 17H414C415.105 17 416 16.1046 416 15V12C416 10.8954 415.105 10 414 10Z" fill="#8001D8"/>
<path d="M395 18H341C339.895 18 339 18.8954 339 20V23C339 24.1046 339.895 25 341 25H395C396.105 25 397 24.1046 397 23V20C397 18.8954 396.105 18 395 18Z" fill="#31CAA8"/>
<path d="M378 34H341C339.895 34 339 34.8954 339 36V39C339 40.1046 339.895 41 341 41H378C379.105 41 380 40.1046 380 39V36C380 34.8954 379.105 34 378 34Z" fill="#005BD7"/>
<path d="M387 42H341C339.895 42 339 42.8954 339 44V47C339 48.1046 339.895 49 341 49H387C388.105 49 389 48.1046 389 47V44C389 42.8954 388.105 42 387 42Z" fill="#8001D8"/>
<path d="M395 50H341C339.895 50 339 50.8954 339 52V55C339 56.1046 339.895 57 341 57H395C396.105 57 397 56.1046 397 55V52C397 50.8954 396.105 50 395 50Z" fill="#31CAA8"/>
<path d="M403 66H341C339.895 66 339 66.8954 339 68V71C339 72.1046 339.895 73 341 73H403C404.105 73 405 72.1046 405 71V68C405 66.8954 404.105 66 403 66Z" fill="#005BD7"/>
<path d="M394 74H341C339.895 74 339 74.8954 339 76V79C339 80.1046 339.895 81 341 81H394C395.105 81 396 80.1046 396 79V76C396 74.8954 395.105 74 394 74Z" fill="#8001D8"/>
<path d="M62 84V95C62 96.3333 62.6667 97 64 97H220.5H376C376.667 97 377 96.3333 377 95V84" stroke="#CCD1DB" stroke-width="1.5"/>
<path d="M414 82H341C339.895 82 339 82.8954 339 84V87C339 88.1046 339.895 89 341 89H414C415.105 89 416 88.1046 416 87V84C416 82.8954 415.105 82 414 82Z" fill="#31CAA8"/>
<path d="M220.5 83.5V124" stroke="#CCD1DB" stroke-width="1.5"/>
<path d="M306 137V126C306 124.667 305.333 124 304 124H220.5H136C134 124 133 124.667 133 126V137" stroke="#CCD1DB" stroke-width="1.5"/>
<path d="M133 192.5C148.188 192.5 160.5 180.188 160.5 165C160.5 149.812 148.188 137.5 133 137.5C117.812 137.5 105.5 149.812 105.5 165C105.5 180.188 117.812 192.5 133 192.5Z" fill="white" stroke="#DDE1E7"/>
<path d="M133 165C137.418 165 141 161.418 141 157C141 152.582 137.418 149 133 149C128.582 149 125 152.582 125 157C125 161.418 128.582 165 133 165Z" fill="#CCD1DB"/>
<path d="M152.76 182.35C155.45 172.46 142.17 167 133 167C123.83 167 111.14 173.28 113.23 182.96C114.38 188.3 124.1 192.79 132.95 193C141.52 193.2 151.12 188.37 152.76 182.35Z" fill="#CCD1DB"/>
<path d="M220 192.5C235.188 192.5 247.5 180.188 247.5 165C247.5 149.812 235.188 137.5 220 137.5C204.812 137.5 192.5 149.812 192.5 165C192.5 180.188 204.812 192.5 220 192.5Z" fill="white" stroke="#DDE1E7"/>
<path d="M220 165C224.418 165 228 161.418 228 157C228 152.582 224.418 149 220 149C215.582 149 212 152.582 212 157C212 161.418 215.582 165 220 165Z" fill="#CCD1DB"/>
<path d="M239.76 182.35C242.45 172.46 229.17 167 220 167C210.83 167 198.14 173.28 200.23 182.96C201.38 188.3 211.1 192.79 219.95 193C228.52 193.2 238.12 188.37 239.76 182.35Z" fill="#CCD1DB"/>
<path d="M306 192.5C321.188 192.5 333.5 180.188 333.5 165C333.5 149.812 321.188 137.5 306 137.5C290.812 137.5 278.5 149.812 278.5 165C278.5 180.188 290.812 192.5 306 192.5Z" fill="white" stroke="#DDE1E7"/>
<path d="M306 165C310.418 165 314 161.418 314 157C314 152.582 310.418 149 306 149C301.582 149 298 152.582 298 157C298 161.418 301.582 165 306 165Z" fill="#CCD1DB"/>
<path d="M325.76 182.35C328.45 172.46 315.17 167 306 167C296.83 167 284.14 173.28 286.23 182.96C287.38 188.3 297.1 192.79 305.95 193C314.52 193.2 324.12 188.37 325.76 182.35Z" fill="#CCD1DB"/>
<path d="M133 215.5C141.008 215.5 147.5 209.008 147.5 201C147.5 192.992 141.008 186.5 133 186.5C124.992 186.5 118.5 192.992 118.5 201C118.5 209.008 124.992 215.5 133 215.5Z" fill="white" stroke="#DDE1E7"/>
<path fill-rule="evenodd" clip-rule="evenodd" d="M128.333 201.667C128.333 203.139 129.527 204.333 131 204.333C132.473 204.333 133.667 203.139 133.667 201.667C133.667 201.299 133.965 201 134.333 201C134.701 201 135 201.299 135 201.667C135 202.531 134.726 203.331 134.26 203.984L136.138 205.862C136.398 206.122 136.398 206.544 136.138 206.805C135.878 207.065 135.456 207.065 135.195 206.805L133.318 204.927C132.664 205.393 131.864 205.667 131 205.667C128.791 205.667 127 203.876 127 201.667C127 199.458 128.791 197.667 131 197.667C131.368 197.667 131.667 197.965 131.667 198.333C131.667 198.702 131.368 199 131 199C129.527 199 128.333 200.194 128.333 201.667ZM134.333 199C134.333 198.682 134.558 198.409 134.869 198.346L136.1 198.1L136.346 196.869C136.409 196.558 136.682 196.333 137 196.333C137.318 196.333 137.591 196.558 137.654 196.869L137.9 198.1L139.131 198.346C139.442 198.409 139.667 198.682 139.667 199C139.667 199.318 139.442 199.591 139.131 199.654L137.9 199.9L137.654 201.131C137.591 201.442 137.318 201.667 137 201.667C136.682 201.667 136.409 201.442 136.346 201.131L136.1 199.9L134.869 199.654C134.558 199.591 134.333 199.318 134.333 199ZM132 196C132 195.748 132.143 195.517 132.368 195.404L132.836 195.17L133.07 194.702C133.183 194.476 133.414 194.333 133.667 194.333C133.919 194.333 134.15 194.476 134.263 194.702L134.497 195.17L134.965 195.404C135.191 195.517 135.333 195.748 135.333 196C135.333 196.253 135.191 196.483 134.965 196.596L134.497 196.83L134.263 197.298C134.15 197.524 133.919 197.667 133.667 197.667C133.414 197.667 133.183 197.524 133.07 197.298L132.836 196.83L132.368 196.596C132.143 196.483 132 196.253 132 196Z" fill="#616E90"/>
<path d="M220 215.5C228.008 215.5 234.5 209.008 234.5 201C234.5 192.992 228.008 186.5 220 186.5C211.992 186.5 205.5 192.992 205.5 201C205.5 209.008 211.992 215.5 220 215.5Z" fill="white" stroke="#DDE1E7"/>
<path fill-rule="evenodd" clip-rule="evenodd" d="M213.529 200.529C213.268 200.789 213.268 201.211 213.529 201.471L216.195 204.138C216.456 204.398 216.878 204.398 217.138 204.138C217.398 203.878 217.398 203.456 217.138 203.195L214.943 201L217.138 198.805C217.398 198.544 217.398 198.122 217.138 197.862C216.878 197.602 216.456 197.602 216.195 197.862L213.529 200.529ZM219.172 204.313C219.529 204.403 219.891 204.186 219.98 203.828L221.313 198.495C221.403 198.138 221.185 197.776 220.828 197.687C220.471 197.597 220.109 197.814 220.02 198.172L218.687 203.505C218.597 203.862 218.814 204.224 219.172 204.313ZM222.862 197.862C222.602 198.122 222.602 198.544 222.862 198.805L225.057 201L222.862 203.195C222.602 203.456 222.602 203.878 222.862 204.138C223.122 204.398 223.544 204.398 223.805 204.138L226.471 201.471C226.732 201.211 226.732 200.789 226.471 200.529L223.805 197.862C223.544 197.602 223.122 197.602 222.862 197.862Z" fill="#616E90"/>
<path d="M306 215.5C314.008 215.5 320.5 209.008 320.5 201C320.5 192.992 314.008 186.5 306 186.5C297.992 186.5 291.5 192.992 291.5 201C291.5 209.008 297.992 215.5 306 215.5Z" fill="white" stroke="#DDE1E7"/>
<path fill-rule="evenodd" clip-rule="evenodd" d="M300 196.333C300 195.965 300.298 195.667 300.667 195.667H311.333C311.702 195.667 312 195.965 312 196.333C312 196.702 311.702 197 311.333 197V201.667C311.333 202.403 310.736 203 310 203H309.079L310.596 206.035C310.761 206.364 310.627 206.765 310.298 206.93C309.969 207.094 309.568 206.961 309.404 206.631L307.588 203H304.412L302.596 206.631C302.432 206.961 302.031 207.094 301.702 206.93C301.373 206.765 301.239 206.364 301.404 206.035L302.921 203H302C301.264 203 300.667 202.403 300.667 201.667V197C300.298 197 300 196.702 300 196.333ZM302 197V201.667H303.987C303.996 201.666 304.005 201.666 304.014 201.667H307.986C307.995 201.666 308.004 201.666 308.013 201.667H310V197H302Z" fill="#616E90"/>
</g>
<defs>
<clipPath id="clip0_124_1683">
<rect width="432" height="217" fill="white"/>
</clipPath>
</defs>
</svg>
