<svg width="374" height="237" viewBox="0 0 374 237" fill="none" xmlns="http://www.w3.org/2000/svg">
<path d="M276.387 0.5H86.167C79.7021 0.5 74.4612 5.74089 74.4612 12.2059V102.926C74.4612 109.391 79.7021 114.632 86.167 114.632H276.387C282.852 114.632 288.093 109.391 288.093 102.926V12.2059C288.093 5.74089 282.852 0.5 276.387 0.5Z" fill="white" stroke="#DDE1E7"/>
<path d="M168.108 15.1323H141.77C140.154 15.1323 138.843 16.4425 138.843 18.0588V20.9853C138.843 22.6015 140.154 23.9117 141.77 23.9117H168.108C169.724 23.9117 171.034 22.6015 171.034 20.9853V18.0588C171.034 16.4425 169.724 15.1323 168.108 15.1323Z" fill="#31CAA8"/>
<path d="M214.931 15.1323H188.593C186.977 15.1323 185.667 16.4425 185.667 18.0588V20.9853C185.667 22.6015 186.977 23.9117 188.593 23.9117H214.931C216.548 23.9117 217.858 22.6015 217.858 20.9853V18.0588C217.858 16.4425 216.548 15.1323 214.931 15.1323Z" fill="#31CAA8"/>
<path d="M261.755 15.1323H235.417C233.8 15.1323 232.49 16.4425 232.49 18.0588V20.9853C232.49 22.6015 233.8 23.9117 235.417 23.9117H261.755C263.371 23.9117 264.681 22.6015 264.681 20.9853V18.0588C264.681 16.4425 263.371 15.1323 261.755 15.1323Z" fill="#31CAA8"/>
<path d="M124.211 34.1543H97.8729C96.2567 34.1543 94.9465 35.4645 94.9465 37.0808V40.0072C94.9465 41.6235 96.2567 42.9337 97.8729 42.9337H124.211C125.827 42.9337 127.138 41.6235 127.138 40.0072V37.0808C127.138 35.4645 125.827 34.1543 124.211 34.1543Z" fill="#31CAA8"/>
<path d="M124.211 53.1763H97.8729C96.2567 53.1763 94.9465 54.4866 94.9465 56.1028V59.0293C94.9465 60.6455 96.2567 61.9557 97.8729 61.9557H124.211C125.827 61.9557 127.138 60.6455 127.138 59.0293V56.1028C127.138 54.4866 125.827 53.1763 124.211 53.1763Z" fill="#31CAA8"/>
<path d="M124.211 72.1984H97.8729C96.2567 72.1984 94.9465 73.5086 94.9465 75.1248V78.0513C94.9465 79.6675 96.2567 80.9778 97.8729 80.9778H124.211C125.827 80.9778 127.138 79.6675 127.138 78.0513V75.1248C127.138 73.5086 125.827 72.1984 124.211 72.1984Z" fill="#31CAA8"/>
<path d="M124.211 91.2204H97.8729C96.2567 91.2204 94.9465 92.5306 94.9465 94.1469V97.0733C94.9465 98.6896 96.2567 99.9998 97.8729 99.9998H124.211C125.827 99.9998 127.138 98.6896 127.138 97.0733V94.1469C127.138 92.5306 125.827 91.2204 124.211 91.2204Z" fill="#31CAA8"/>
<path d="M160.792 34.1543H149.086C147.47 34.1543 146.159 35.4645 146.159 37.0808V40.0072C146.159 41.6235 147.47 42.9337 149.086 42.9337H160.792C162.408 42.9337 163.718 41.6235 163.718 40.0072V37.0808C163.718 35.4645 162.408 34.1543 160.792 34.1543Z" fill="#DDE1E7"/>
<path d="M207.615 34.1543H195.909C194.293 34.1543 192.983 35.4645 192.983 37.0808V40.0072C192.983 41.6235 194.293 42.9337 195.909 42.9337H207.615C209.232 42.9337 210.542 41.6235 210.542 40.0072V37.0808C210.542 35.4645 209.232 34.1543 207.615 34.1543Z" fill="#DDE1E7"/>
<path d="M254.439 34.1543H242.733C241.117 34.1543 239.806 35.4645 239.806 37.0808V40.0072C239.806 41.6235 241.117 42.9337 242.733 42.9337H254.439C256.055 42.9337 257.365 41.6235 257.365 40.0072V37.0808C257.365 35.4645 256.055 34.1543 254.439 34.1543Z" fill="#DDE1E7"/>
<path d="M160.792 53.1763H149.086C147.47 53.1763 146.159 54.4866 146.159 56.1028V59.0293C146.159 60.6455 147.47 61.9557 149.086 61.9557H160.792C162.408 61.9557 163.718 60.6455 163.718 59.0293V56.1028C163.718 54.4866 162.408 53.1763 160.792 53.1763Z" fill="#DDE1E7"/>
<path d="M207.615 53.1763H195.909C194.293 53.1763 192.983 54.4866 192.983 56.1028V59.0293C192.983 60.6455 194.293 61.9557 195.909 61.9557H207.615C209.232 61.9557 210.542 60.6455 210.542 59.0293V56.1028C210.542 54.4866 209.232 53.1763 207.615 53.1763Z" fill="#DDE1E7"/>
<path d="M254.439 53.1763H242.733C241.117 53.1763 239.806 54.4866 239.806 56.1028V59.0293C239.806 60.6455 241.117 61.9557 242.733 61.9557H254.439C256.055 61.9557 257.365 60.6455 257.365 59.0293V56.1028C257.365 54.4866 256.055 53.1763 254.439 53.1763Z" fill="#DDE1E7"/>
<path d="M160.792 72.1984H149.086C147.47 72.1984 146.159 73.5086 146.159 75.1248V78.0513C146.159 79.6675 147.47 80.9778 149.086 80.9778H160.792C162.408 80.9778 163.718 79.6675 163.718 78.0513V75.1248C163.718 73.5086 162.408 72.1984 160.792 72.1984Z" fill="#DDE1E7"/>
<path d="M207.615 72.1984H195.909C194.293 72.1984 192.983 73.5086 192.983 75.1248V78.0513C192.983 79.6675 194.293 80.9778 195.909 80.9778H207.615C209.232 80.9778 210.542 79.6675 210.542 78.0513V75.1248C210.542 73.5086 209.232 72.1984 207.615 72.1984Z" fill="#DDE1E7"/>
<path d="M254.439 72.1984H242.733C241.117 72.1984 239.806 73.5086 239.806 75.1248V78.0513C239.806 79.6675 241.117 80.9778 242.733 80.9778H254.439C256.055 80.9778 257.365 79.6675 257.365 78.0513V75.1248C257.365 73.5086 256.055 72.1984 254.439 72.1984Z" fill="#DDE1E7"/>
<path d="M160.792 91.2204H149.086C147.47 91.2204 146.159 92.5306 146.159 94.1469V97.0733C146.159 98.6896 147.47 99.9998 149.086 99.9998H160.792C162.408 99.9998 163.718 98.6896 163.718 97.0733V94.1469C163.718 92.5306 162.408 91.2204 160.792 91.2204Z" fill="#DDE1E7"/>
<path d="M207.615 91.2204H195.909C194.293 91.2204 192.983 92.5306 192.983 94.1469V97.0733C192.983 98.6896 194.293 99.9998 195.909 99.9998H207.615C209.232 99.9998 210.542 98.6896 210.542 97.0733V94.1469C210.542 92.5306 209.232 91.2204 207.615 91.2204Z" fill="#DDE1E7"/>
<path d="M254.439 91.2204H242.733C241.117 91.2204 239.806 92.5306 239.806 94.1469V97.0733C239.806 98.6896 241.117 99.9998 242.733 99.9998H254.439C256.055 99.9998 257.365 98.6896 257.365 97.0733V94.1469C257.365 92.5306 256.055 91.2204 254.439 91.2204Z" fill="#DDE1E7"/>
<path d="M0.5 91.8832V219.266" stroke="#CCD1DB" stroke-linecap="square"/>
<path d="M0.5 217.741H178.989" stroke="#CCD1DB" stroke-linecap="square"/>
<path d="M2.02551 124.682H178.989" stroke="#DDE1E7" stroke-dasharray="3 2"/>
<path d="M2.02551 158.244H178.989" stroke="#DDE1E7" stroke-dasharray="3 2"/>
<path d="M2.02551 191.806H178.989" stroke="#DDE1E7" stroke-dasharray="3 2"/>
<path d="M8.12775 173.5L30.5533 188.755L68.6919 159.007L112.78 174.644L177.463 106.376" stroke="#005BD7" stroke-width="2" stroke-linecap="round" stroke-linejoin="round"/>
<path d="M8.12771 177.314C10.234 177.314 11.9416 175.606 11.9416 173.5C11.9416 171.393 10.234 169.686 8.12771 169.686C6.02137 169.686 4.31384 171.393 4.31384 173.5C4.31384 175.606 6.02137 177.314 8.12771 177.314Z" fill="white" stroke="#005BD7" stroke-width="1.5"/>
<path d="M30.5532 192.569C32.6595 192.569 34.367 190.862 34.367 188.755C34.367 186.649 32.6595 184.941 30.5532 184.941C28.4468 184.941 26.7393 186.649 26.7393 188.755C26.7393 190.862 28.4468 192.569 30.5532 192.569Z" fill="white" stroke="#005BD7" stroke-width="1.5"/>
<path d="M68.6919 162.821C70.7982 162.821 72.5057 161.113 72.5057 159.007C72.5057 156.901 70.7982 155.193 68.6919 155.193C66.5855 155.193 64.878 156.901 64.878 159.007C64.878 161.113 66.5855 162.821 68.6919 162.821Z" fill="white" stroke="#005BD7" stroke-width="1.5"/>
<path d="M112.78 178.458C114.886 178.458 116.594 176.75 116.594 174.644C116.594 172.538 114.886 170.83 112.78 170.83C110.674 170.83 108.966 172.538 108.966 174.644C108.966 176.75 110.674 178.458 112.78 178.458Z" fill="white" stroke="#005BD7" stroke-width="1.5"/>
<path d="M177.463 110.19C179.57 110.19 181.277 108.482 181.277 106.376C181.277 104.269 179.57 102.562 177.463 102.562C175.357 102.562 173.649 104.269 173.649 106.376C173.649 108.482 175.357 110.19 177.463 110.19Z" fill="white" stroke="#005BD7" stroke-width="1.5"/>
<path d="M11.1788 157.176L29.6379 178.076L67.3188 147.108L111.56 168.008L175.938 123.157" stroke="#8001D8" stroke-width="2" stroke-linecap="round" stroke-linejoin="round"/>
<path d="M11.1788 160.99C13.2851 160.99 14.9927 159.283 14.9927 157.176C14.9927 155.07 13.2851 153.363 11.1788 153.363C9.07245 153.363 7.36493 155.07 7.36493 157.176C7.36493 159.283 9.07245 160.99 11.1788 160.99Z" fill="white" stroke="#8001D8" stroke-width="1.5"/>
<path d="M29.6379 181.89C31.7442 181.89 33.4518 180.183 33.4518 178.076C33.4518 175.97 31.7442 174.263 29.6379 174.263C27.5316 174.263 25.824 175.97 25.824 178.076C25.824 180.183 27.5316 181.89 29.6379 181.89Z" fill="white" stroke="#8001D8" stroke-width="1.5"/>
<path d="M67.3189 150.922C69.4252 150.922 71.1327 149.214 71.1327 147.108C71.1327 145.002 69.4252 143.294 67.3189 143.294C65.2125 143.294 63.505 145.002 63.505 147.108C63.505 149.214 65.2125 150.922 67.3189 150.922Z" fill="white" stroke="#8001D8" stroke-width="1.5"/>
<path d="M111.56 171.822C113.666 171.822 115.374 170.114 115.374 168.008C115.374 165.902 113.666 164.194 111.56 164.194C109.453 164.194 107.746 165.902 107.746 168.008C107.746 170.114 109.453 171.822 111.56 171.822Z" fill="white" stroke="#8001D8" stroke-width="1.5"/>
<path d="M175.938 126.971C178.044 126.971 179.751 125.263 179.751 123.157C179.751 121.05 178.044 119.343 175.938 119.343C173.831 119.343 172.124 121.05 172.124 123.157C172.124 125.263 173.831 126.971 175.938 126.971Z" fill="white" stroke="#8001D8" stroke-width="1.5"/>
<path d="M11.1788 164.499L29.6379 207.062L68.6918 137.802L111.56 192.722L175.938 91.1204" stroke="#31CAA8" stroke-width="2" stroke-linecap="round" stroke-linejoin="round"/>
<path d="M11.1788 168.313C13.2851 168.313 14.9927 166.605 14.9927 164.499C14.9927 162.393 13.2851 160.685 11.1788 160.685C9.07245 160.685 7.36493 162.393 7.36493 164.499C7.36493 166.605 9.07245 168.313 11.1788 168.313Z" fill="white" stroke="#31CAA8" stroke-width="1.5"/>
<path d="M29.6379 210.876C31.7442 210.876 33.4518 209.168 33.4518 207.062C33.4518 204.955 31.7442 203.248 29.6379 203.248C27.5316 203.248 25.824 204.955 25.824 207.062C25.824 209.168 27.5316 210.876 29.6379 210.876Z" fill="white" stroke="#31CAA8" stroke-width="1.5"/>
<path d="M68.6919 141.616C70.7982 141.616 72.5057 139.908 72.5057 137.802C72.5057 135.696 70.7982 133.988 68.6919 133.988C66.5855 133.988 64.878 135.696 64.878 137.802C64.878 139.908 66.5855 141.616 68.6919 141.616Z" fill="white" stroke="#31CAA8" stroke-width="1.5"/>
<path d="M111.56 196.536C113.666 196.536 115.374 194.828 115.374 192.722C115.374 190.615 113.666 188.908 111.56 188.908C109.453 188.908 107.746 190.615 107.746 192.722C107.746 194.828 109.453 196.536 111.56 196.536Z" fill="white" stroke="#31CAA8" stroke-width="1.5"/>
<path d="M175.938 94.9342C178.044 94.9342 179.751 93.2267 179.751 91.1204C179.751 89.014 178.044 87.3065 175.938 87.3065C173.831 87.3065 172.124 89.014 172.124 91.1204C172.124 93.2267 173.831 94.9342 175.938 94.9342Z" fill="white" stroke="#31CAA8" stroke-width="1.5"/>
<path d="M226.658 72.1984V234.611" stroke="#CCD1DB" stroke-linecap="square"/>
<path d="M343.747 72.1984H232.324C230.238 72.1984 228.547 73.8894 228.547 75.9754V81.641C228.547 83.727 230.238 85.418 232.324 85.418H343.747C345.833 85.418 347.524 83.727 347.524 81.641V75.9754C347.524 73.8894 345.833 72.1984 343.747 72.1984Z" fill="#005BD7"/>
<path d="M370.186 87.3065H232.324C230.238 87.3065 228.547 88.9976 228.547 91.0836V96.7492C228.547 98.8352 230.238 100.526 232.324 100.526H370.186C372.272 100.526 373.963 98.8352 373.963 96.7492V91.0836C373.963 88.9976 372.272 87.3065 370.186 87.3065Z" fill="#8001D8"/>
<path d="M334.304 102.415H232.324C230.238 102.415 228.547 104.106 228.547 106.192V111.857C228.547 113.943 230.238 115.634 232.324 115.634H334.304C336.39 115.634 338.081 113.943 338.081 111.857V106.192C338.081 104.106 336.39 102.415 334.304 102.415Z" fill="#31CAA8"/>
<path d="M302.199 132.631H232.324C230.238 132.631 228.547 134.322 228.547 136.408V142.074C228.547 144.16 230.238 145.851 232.324 145.851H302.199C304.285 145.851 305.976 144.16 305.976 142.074V136.408C305.976 134.322 304.285 132.631 302.199 132.631Z" fill="#005BD7"/>
<path d="M319.196 147.739H232.324C230.238 147.739 228.547 149.43 228.547 151.516V157.182C228.547 159.268 230.238 160.959 232.324 160.959H319.196C321.282 160.959 322.973 159.268 322.973 157.182V151.516C322.973 149.43 321.282 147.739 319.196 147.739Z" fill="#8001D8"/>
<path d="M334.304 162.848H232.324C230.238 162.848 228.547 164.539 228.547 166.625V172.29C228.547 174.376 230.238 176.067 232.324 176.067H334.304C336.39 176.067 338.081 174.376 338.081 172.29V166.625C338.081 164.539 336.39 162.848 334.304 162.848Z" fill="#31CAA8"/>
<path d="M349.413 193.064H232.324C230.238 193.064 228.547 194.755 228.547 196.841V202.507C228.547 204.593 230.238 206.284 232.324 206.284H349.413C351.499 206.284 353.19 204.593 353.19 202.507V196.841C353.19 194.755 351.499 193.064 349.413 193.064Z" fill="#005BD7"/>
<path d="M332.416 208.172H232.324C230.238 208.172 228.547 209.863 228.547 211.949V217.615C228.547 219.701 230.238 221.392 232.324 221.392H332.416C334.502 221.392 336.193 219.701 336.193 217.615V211.949C336.193 209.863 334.502 208.172 332.416 208.172Z" fill="#8001D8"/>
<path d="M370.186 223.28H232.324C230.238 223.28 228.547 224.971 228.547 227.057V232.723C228.547 234.809 230.238 236.5 232.324 236.5H370.186C372.272 236.5 373.963 234.809 373.963 232.723V227.057C373.963 224.971 372.272 223.28 370.186 223.28Z" fill="#31CAA8"/>
</svg>
