<svg width="317" height="175" viewBox="0 0 317 175" fill="none" xmlns="http://www.w3.org/2000/svg">
<rect y="0.392044" width="201" height="174" rx="8" fill="#F8F9F9"/>
<path d="M169.129 18.392H10.6278C8.07192 18.392 6 20.464 6 23.0198V136.978C6 139.534 8.07192 141.606 10.6278 141.606H169.129C171.684 141.606 173.756 139.534 173.756 136.978V23.0198C173.756 20.464 171.684 18.392 169.129 18.392Z" fill="white" stroke="#E2E8F0" stroke-width="0.81412"/>
<path d="M84.6719 25.3337H52.2775C51.6386 25.3337 51.1206 25.8517 51.1206 26.4906V28.226C51.1206 28.865 51.6386 29.383 52.2775 29.383H84.6719C85.3108 29.383 85.8288 28.865 85.8288 28.226V26.4906C85.8288 25.8517 85.3108 25.3337 84.6719 25.3337Z" fill="#10B981"/>
<path d="M124.008 25.3337H91.6135C90.9745 25.3337 90.4565 25.8517 90.4565 26.4906V28.226C90.4565 28.865 90.9745 29.383 91.6135 29.383H124.008C124.647 29.383 125.165 28.865 125.165 28.226V26.4906C125.165 25.8517 124.647 25.3337 124.008 25.3337Z" fill="#10B981"/>
<path d="M163.344 25.3337H130.949C130.31 25.3337 129.792 25.8517 129.792 26.4906V28.226C129.792 28.865 130.31 29.383 130.949 29.383H163.344C163.983 29.383 164.501 28.865 164.501 28.226V26.4906C164.501 25.8517 163.983 25.3337 163.344 25.3337Z" fill="#10B981"/>
<path d="M45.3355 38.06H12.9411C12.3022 38.06 11.7842 38.578 11.7842 39.217V40.9524C11.7842 41.5913 12.3022 42.1093 12.9411 42.1093H45.3355C45.9744 42.1093 46.4924 41.5913 46.4924 40.9524V39.217C46.4924 38.578 45.9744 38.06 45.3355 38.06Z" fill="#10B981"/>
<path d="M66.1608 38.06H52.2775C51.6386 38.06 51.1206 38.578 51.1206 39.217V40.9524C51.1206 41.5913 51.6386 42.1093 52.2775 42.1093H66.1608C66.7998 42.1093 67.3178 41.5913 67.3178 40.9524V39.217C67.3178 38.578 66.7998 38.06 66.1608 38.06Z" fill="#E2E8F0"/>
<path d="M105.497 38.06H91.6135C90.9745 38.06 90.4565 38.578 90.4565 39.217V40.9524C90.4565 41.5913 90.9745 42.1093 91.6135 42.1093H105.497C106.136 42.1093 106.654 41.5913 106.654 40.9524V39.217C106.654 38.578 106.136 38.06 105.497 38.06Z" fill="#E2E8F0"/>
<path d="M144.833 38.06H130.949C130.31 38.06 129.792 38.578 129.792 39.217V40.9524C129.792 41.5913 130.31 42.1093 130.949 42.1093H144.833C145.472 42.1093 145.99 41.5913 145.99 40.9524V39.217C145.99 38.578 145.472 38.06 144.833 38.06Z" fill="#E2E8F0"/>
<path d="M45.3355 50.7864H12.9411C12.3022 50.7864 11.7842 51.3044 11.7842 51.9433V53.6787C11.7842 54.3177 12.3022 54.8357 12.9411 54.8357H45.3355C45.9744 54.8357 46.4924 54.3177 46.4924 53.6787V51.9433C46.4924 51.3044 45.9744 50.7864 45.3355 50.7864Z" fill="#10B981"/>
<path d="M66.1608 50.7864H52.2775C51.6386 50.7864 51.1206 51.3044 51.1206 51.9433V53.6787C51.1206 54.3177 51.6386 54.8357 52.2775 54.8357H66.1608C66.7998 54.8357 67.3178 54.3177 67.3178 53.6787V51.9433C67.3178 51.3044 66.7998 50.7864 66.1608 50.7864Z" fill="#E2E8F0"/>
<path d="M105.497 50.7864H91.6135C90.9745 50.7864 90.4565 51.3044 90.4565 51.9433V53.6787C90.4565 54.3177 90.9745 54.8357 91.6135 54.8357H105.497C106.136 54.8357 106.654 54.3177 106.654 53.6787V51.9433C106.654 51.3044 106.136 50.7864 105.497 50.7864Z" fill="#E2E8F0"/>
<path d="M144.833 50.7864H130.949C130.31 50.7864 129.792 51.3044 129.792 51.9433V53.6787C129.792 54.3177 130.31 54.8357 130.949 54.8357H144.833C145.472 54.8357 145.99 54.3177 145.99 53.6787V51.9433C145.99 51.3044 145.472 50.7864 144.833 50.7864Z" fill="#E2E8F0"/>
<path d="M45.3355 63.5127H12.9411C12.3022 63.5127 11.7842 64.0307 11.7842 64.6697V66.4051C11.7842 67.044 12.3022 67.562 12.9411 67.562H45.3355C45.9744 67.562 46.4924 67.044 46.4924 66.4051V64.6697C46.4924 64.0307 45.9744 63.5127 45.3355 63.5127Z" fill="#10B981"/>
<path d="M66.1608 63.5127H52.2775C51.6386 63.5127 51.1206 64.0307 51.1206 64.6697V66.4051C51.1206 67.044 51.6386 67.562 52.2775 67.562H66.1608C66.7998 67.562 67.3178 67.044 67.3178 66.4051V64.6697C67.3178 64.0307 66.7998 63.5127 66.1608 63.5127Z" fill="#E2E8F0"/>
<path d="M105.497 63.5127H91.6135C90.9745 63.5127 90.4565 64.0307 90.4565 64.6697V66.4051C90.4565 67.044 90.9745 67.562 91.6135 67.562H105.497C106.136 67.562 106.654 67.044 106.654 66.4051V64.6697C106.654 64.0307 106.136 63.5127 105.497 63.5127Z" fill="#E2E8F0"/>
<path d="M144.833 63.5127H130.949C130.31 63.5127 129.792 64.0307 129.792 64.6697V66.4051C129.792 67.044 130.31 67.562 130.949 67.562H144.833C145.472 67.562 145.99 67.044 145.99 66.4051V64.6697C145.99 64.0307 145.472 63.5127 144.833 63.5127Z" fill="#E2E8F0"/>
<path d="M45.3355 76.2391H12.9411C12.3022 76.2391 11.7842 76.757 11.7842 77.396V79.1314C11.7842 79.7704 12.3022 80.2884 12.9411 80.2884H45.3355C45.9744 80.2884 46.4924 79.7704 46.4924 79.1314V77.396C46.4924 76.757 45.9744 76.2391 45.3355 76.2391Z" fill="#10B981"/>
<path d="M66.1608 76.2391H52.2775C51.6386 76.2391 51.1206 76.757 51.1206 77.396V79.1314C51.1206 79.7704 51.6386 80.2884 52.2775 80.2884H66.1608C66.7998 80.2884 67.3178 79.7704 67.3178 79.1314V77.396C67.3178 76.757 66.7998 76.2391 66.1608 76.2391Z" fill="#E2E8F0"/>
<path d="M105.497 76.2391H91.6135C90.9745 76.2391 90.4565 76.757 90.4565 77.396V79.1314C90.4565 79.7704 90.9745 80.2884 91.6135 80.2884H105.497C106.136 80.2884 106.654 79.7704 106.654 79.1314V77.396C106.654 76.757 106.136 76.2391 105.497 76.2391Z" fill="#E2E8F0"/>
<path d="M144.833 76.2391H130.949C130.31 76.2391 129.792 76.757 129.792 77.396V79.1314C129.792 79.7704 130.31 80.2884 130.949 80.2884H144.833C145.472 80.2884 145.99 79.7704 145.99 79.1314V77.396C145.99 76.757 145.472 76.2391 144.833 76.2391Z" fill="#E2E8F0"/>
<path d="M45.3355 88.9654H12.9411C12.3022 88.9654 11.7842 89.4834 11.7842 90.1224V91.8578C11.7842 92.4967 12.3022 93.0147 12.9411 93.0147H45.3355C45.9744 93.0147 46.4924 92.4967 46.4924 91.8578V90.1224C46.4924 89.4834 45.9744 88.9654 45.3355 88.9654Z" fill="#10B981"/>
<path d="M66.1608 88.9654H52.2775C51.6386 88.9654 51.1206 89.4834 51.1206 90.1223V91.8578C51.1206 92.4967 51.6386 93.0147 52.2775 93.0147H66.1608C66.7998 93.0147 67.3178 92.4967 67.3178 91.8578V90.1223C67.3178 89.4834 66.7998 88.9654 66.1608 88.9654Z" fill="#E2E8F0"/>
<path d="M105.497 88.9654H91.6135C90.9745 88.9654 90.4565 89.4834 90.4565 90.1223V91.8578C90.4565 92.4967 90.9745 93.0147 91.6135 93.0147H105.497C106.136 93.0147 106.654 92.4967 106.654 91.8578V90.1223C106.654 89.4834 106.136 88.9654 105.497 88.9654Z" fill="#E2E8F0"/>
<path d="M144.833 88.9654H130.949C130.31 88.9654 129.792 89.4834 129.792 90.1223V91.8578C129.792 92.4967 130.31 93.0147 130.949 93.0147H144.833C145.472 93.0147 145.99 92.4967 145.99 91.8578V90.1223C145.99 89.4834 145.472 88.9654 144.833 88.9654Z" fill="#E2E8F0"/>
<path d="M45.3355 101.692H12.9411C12.3022 101.692 11.7842 102.21 11.7842 102.849V104.584C11.7842 105.223 12.3022 105.741 12.9411 105.741H45.3355C45.9744 105.741 46.4924 105.223 46.4924 104.584V102.849C46.4924 102.21 45.9744 101.692 45.3355 101.692Z" fill="#10B981"/>
<path d="M66.1608 101.692H52.2775C51.6386 101.692 51.1206 102.21 51.1206 102.849V104.584C51.1206 105.223 51.6386 105.741 52.2775 105.741H66.1608C66.7998 105.741 67.3178 105.223 67.3178 104.584V102.849C67.3178 102.21 66.7998 101.692 66.1608 101.692Z" fill="#E2E8F0"/>
<path d="M105.497 101.692H91.6135C90.9745 101.692 90.4565 102.21 90.4565 102.849V104.584C90.4565 105.223 90.9745 105.741 91.6135 105.741H105.497C106.136 105.741 106.654 105.223 106.654 104.584V102.849C106.654 102.21 106.136 101.692 105.497 101.692Z" fill="#E2E8F0"/>
<path d="M144.833 101.692H130.949C130.31 101.692 129.792 102.21 129.792 102.849V104.584C129.792 105.223 130.31 105.741 130.949 105.741H144.833C145.472 105.741 145.99 105.223 145.99 104.584V102.849C145.99 102.21 145.472 101.692 144.833 101.692Z" fill="#E2E8F0"/>
<path d="M45.3355 114.418H12.9411C12.3022 114.418 11.7842 114.936 11.7842 115.575V117.31C11.7842 117.949 12.3022 118.467 12.9411 118.467H45.3355C45.9744 118.467 46.4924 117.949 46.4924 117.31V115.575C46.4924 114.936 45.9744 114.418 45.3355 114.418Z" fill="#10B981"/>
<path d="M66.1608 114.418H52.2775C51.6386 114.418 51.1206 114.936 51.1206 115.575V117.31C51.1206 117.949 51.6386 118.467 52.2775 118.467H66.1608C66.7998 118.467 67.3178 117.949 67.3178 117.31V115.575C67.3178 114.936 66.7998 114.418 66.1608 114.418Z" fill="#E2E8F0"/>
<path d="M105.497 114.418H91.6135C90.9745 114.418 90.4565 114.936 90.4565 115.575V117.31C90.4565 117.949 90.9745 118.467 91.6135 118.467H105.497C106.136 118.467 106.654 117.949 106.654 117.31V115.575C106.654 114.936 106.136 114.418 105.497 114.418Z" fill="#E2E8F0"/>
<path d="M144.833 114.418H130.949C130.31 114.418 129.792 114.936 129.792 115.575V117.31C129.792 117.949 130.31 118.467 130.949 118.467H144.833C145.472 118.467 145.99 117.949 145.99 117.31V115.575C145.99 114.936 145.472 114.418 144.833 114.418Z" fill="#E2E8F0"/>
<path d="M45.3355 127.144H12.9411C12.3022 127.144 11.7842 127.662 11.7842 128.301V130.037C11.7842 130.676 12.3022 131.194 12.9411 131.194H45.3355C45.9744 131.194 46.4924 130.676 46.4924 130.037V128.301C46.4924 127.662 45.9744 127.144 45.3355 127.144Z" fill="#10B981"/>
<path d="M66.1608 127.144H52.2775C51.6386 127.144 51.1206 127.662 51.1206 128.301V130.037C51.1206 130.676 51.6386 131.194 52.2775 131.194H66.1608C66.7998 131.194 67.3178 130.676 67.3178 130.037V128.301C67.3178 127.662 66.7998 127.144 66.1608 127.144Z" fill="#E2E8F0"/>
<path d="M105.497 127.144H91.6135C90.9745 127.144 90.4565 127.662 90.4565 128.301V130.037C90.4565 130.676 90.9745 131.194 91.6135 131.194H105.497C106.136 131.194 106.654 130.676 106.654 130.037V128.301C106.654 127.662 106.136 127.144 105.497 127.144Z" fill="#E2E8F0"/>
<path d="M144.833 127.144H130.949C130.31 127.144 129.792 127.662 129.792 128.301V130.037C129.792 130.676 130.31 131.194 130.949 131.194H144.833C145.472 131.194 145.99 130.676 145.99 130.037V128.301C145.99 127.662 145.472 127.144 144.833 127.144Z" fill="#E2E8F0"/>
<path d="M155.324 127.794C155.324 127.157 155.843 126.644 156.474 126.644H164.971C165.607 126.644 166.123 127.161 166.124 127.795C166.124 128.431 165.607 128.947 164.971 128.947H159.255L168.906 138.594C169.353 139.04 169.344 139.785 168.909 140.222L168.907 140.223C168.457 140.671 167.728 140.671 167.279 140.223H167.278L157.628 130.575V136.288C157.628 136.924 157.108 137.436 156.474 137.436C155.842 137.436 155.324 136.922 155.324 136.288V127.794Z" fill="#005BD7" stroke="#005BD7"/>
<path d="M179.058 152.015C178.628 151.576 178.616 150.835 179.062 150.39L179.149 150.311C179.602 149.942 180.271 149.968 180.692 150.39L190.34 160.037L190.342 154.326C190.342 153.69 190.857 153.174 191.493 153.174C192.13 153.174 192.646 153.69 192.646 154.327V162.817C192.646 163.45 192.132 163.967 191.493 163.967H182.999C182.366 163.967 181.848 163.453 181.848 162.817C181.848 162.181 182.363 161.666 182.999 161.666H188.712L179.062 152.019L179.058 152.015Z" fill="#005BD7" stroke="#005BD7"/>
<path d="M309.941 0.407059H217.131C213.534 0.407059 210.618 3.32301 210.618 6.92002V73.6778C210.618 77.2748 213.534 80.1908 217.131 80.1908H309.941C313.538 80.1908 316.454 77.2748 316.454 73.6778V6.92002C316.454 3.32301 313.538 0.407059 309.941 0.407059Z" fill="white" stroke="#E2E8F0" stroke-width="0.81412"/>
<path fill-rule="evenodd" clip-rule="evenodd" d="M263.657 12.8115L263.431 12.81C279.209 12.81 292 25.1173 292 40.299C292 55.4471 279.266 67.7334 263.536 67.7879L263.536 50.9892C263.539 50.9892 263.541 50.9892 263.544 50.9892C269.617 50.9892 274.541 46.2519 274.541 40.4081C274.541 34.6008 269.679 29.8862 263.658 29.8276L263.657 12.8115Z" fill="#8001D8"/>
<path fill-rule="evenodd" clip-rule="evenodd" d="M263.808 12.8115L263.807 29.8276C257.703 29.8862 252.773 34.6008 252.773 40.4081C252.773 46.2519 257.765 50.9892 263.923 50.9892C263.924 50.9892 263.925 50.9892 263.926 50.9892L263.925 67.7879C247.98 67.7306 235.072 55.4454 235.072 40.299C235.072 25.1173 248.04 12.81 264.037 12.81L263.808 12.8115Z" fill="#005BD7"/>
<path d="M309.941 87.5179H217.131C213.534 87.5179 210.618 90.4338 210.618 94.0308V167.302C210.618 170.899 213.534 173.815 217.131 173.815H309.941C313.538 173.815 316.454 170.899 316.454 167.302V94.0308C316.454 90.4338 313.538 87.5179 309.941 87.5179Z" fill="white" stroke="#E2E8F0" stroke-width="0.81412"/>
<path d="M222.582 104.659V98.1461H223.959V101.018H224.045L226.388 98.1461H228.039L225.622 101.062L228.067 104.659H226.42L224.636 101.981L223.959 102.808V104.659H222.582ZM228.756 104.659V98.1461H231.326C231.82 98.1461 232.24 98.2405 232.588 98.4292C232.936 98.6157 233.201 98.8754 233.383 99.2083C233.568 99.539 233.66 99.9206 233.66 100.353C233.66 100.786 233.566 101.167 233.38 101.498C233.193 101.829 232.923 102.086 232.569 102.271C232.217 102.455 231.791 102.547 231.291 102.547H229.653V101.444H231.068C231.333 101.444 231.551 101.398 231.723 101.307C231.897 101.214 232.026 101.086 232.111 100.922C232.198 100.757 232.241 100.567 232.241 100.353C232.241 100.137 232.198 99.9482 232.111 99.7871C232.026 99.6238 231.897 99.4977 231.723 99.4086C231.549 99.3175 231.329 99.2719 231.062 99.2719H230.133V104.659H228.756ZM235.931 98.1461V104.659H234.554V98.1461H235.931Z" fill="#191C23"/>
<path d="M234.452 150.907C232.509 150.907 230.782 150.574 229.27 149.908C227.768 149.243 226.58 148.316 225.708 147.129C224.835 145.941 224.372 144.569 224.318 143.013H229.392C229.437 143.759 229.684 144.412 230.134 144.969C230.584 145.518 231.182 145.946 231.929 146.251C232.675 146.557 233.512 146.71 234.439 146.71C235.428 146.71 236.305 146.539 237.07 146.197C237.835 145.847 238.433 145.361 238.865 144.74C239.297 144.119 239.508 143.404 239.499 142.594C239.508 141.758 239.292 141.02 238.851 140.381C238.41 139.743 237.772 139.243 236.935 138.884C236.107 138.524 235.109 138.344 233.939 138.344H231.497V134.484H233.939C234.902 134.484 235.743 134.318 236.463 133.985C237.191 133.652 237.763 133.184 238.176 132.582C238.59 131.97 238.793 131.264 238.784 130.463C238.793 129.68 238.617 129.001 238.257 128.425C237.907 127.841 237.407 127.386 236.76 127.062C236.121 126.739 235.37 126.577 234.506 126.577C233.66 126.577 232.878 126.73 232.158 127.036C231.438 127.341 230.858 127.778 230.417 128.344C229.976 128.902 229.743 129.568 229.716 130.342H224.898C224.934 128.794 225.379 127.436 226.234 126.266C227.098 125.088 228.249 124.17 229.689 123.513C231.128 122.848 232.743 122.515 234.533 122.515C236.377 122.515 237.979 122.861 239.337 123.554C240.704 124.238 241.761 125.16 242.508 126.32C243.255 127.481 243.628 128.763 243.628 130.166C243.637 131.723 243.178 133.027 242.252 134.08C241.334 135.132 240.129 135.82 238.635 136.144V136.36C240.578 136.63 242.067 137.35 243.102 138.519C244.145 139.68 244.663 141.124 244.654 142.851C244.654 144.398 244.213 145.784 243.331 147.007C242.459 148.222 241.253 149.175 239.715 149.868C238.185 150.561 236.431 150.907 234.452 150.907ZM259.11 150.907C257.103 150.907 255.322 150.57 253.766 149.895C252.218 149.22 251.004 148.298 250.122 147.129C249.25 145.95 248.818 144.614 248.827 143.121C248.818 141.96 249.07 140.894 249.583 139.923C250.095 138.951 250.788 138.141 251.661 137.494C252.542 136.837 253.523 136.419 254.602 136.239V136.05C253.181 135.735 252.03 135.011 251.148 133.877C250.275 132.735 249.843 131.417 249.852 129.923C249.843 128.502 250.239 127.233 251.04 126.118C251.841 125.002 252.938 124.125 254.333 123.486C255.727 122.839 257.319 122.515 259.11 122.515C260.882 122.515 262.461 122.839 263.846 123.486C265.24 124.125 266.338 125.002 267.139 126.118C267.948 127.233 268.353 128.502 268.353 129.923C268.353 131.417 267.908 132.735 267.017 133.877C266.136 135.011 264.998 135.735 263.603 136.05V136.239C264.683 136.419 265.654 136.837 266.518 137.494C267.391 138.141 268.083 138.951 268.596 139.923C269.118 140.894 269.379 141.96 269.379 143.121C269.379 144.614 268.938 145.95 268.056 147.129C267.175 148.298 265.96 149.22 264.413 149.895C262.874 150.57 261.107 150.907 259.11 150.907ZM259.11 147.048C260.144 147.048 261.044 146.872 261.808 146.521C262.573 146.161 263.167 145.658 263.59 145.01C264.012 144.362 264.228 143.616 264.237 142.77C264.228 141.888 263.999 141.11 263.549 140.435C263.108 139.752 262.501 139.216 261.727 138.83C260.963 138.443 260.09 138.249 259.11 138.249C258.12 138.249 257.238 138.443 256.465 138.83C255.691 139.216 255.079 139.752 254.629 140.435C254.189 141.11 253.973 141.888 253.982 142.77C253.973 143.616 254.18 144.362 254.602 145.01C255.025 145.649 255.619 146.148 256.384 146.508C257.157 146.868 258.066 147.048 259.11 147.048ZM259.11 134.457C259.955 134.457 260.702 134.286 261.35 133.945C262.006 133.603 262.524 133.126 262.901 132.514C263.279 131.902 263.473 131.196 263.482 130.396C263.473 129.604 263.284 128.911 262.915 128.317C262.546 127.715 262.033 127.251 261.377 126.928C260.72 126.595 259.964 126.428 259.11 126.428C258.237 126.428 257.468 126.595 256.802 126.928C256.145 127.251 255.633 127.715 255.264 128.317C254.904 128.911 254.728 129.604 254.737 130.396C254.728 131.196 254.908 131.902 255.277 132.514C255.655 133.117 256.172 133.594 256.829 133.945C257.495 134.286 258.255 134.457 259.11 134.457ZM288.591 145.347V143.89C288.591 142.819 288.816 141.834 289.266 140.935C289.725 140.035 290.39 139.311 291.263 138.762C292.136 138.213 293.193 137.939 294.434 137.939C295.712 137.939 296.782 138.213 297.646 138.762C298.51 139.302 299.162 140.022 299.603 140.921C300.052 141.821 300.277 142.81 300.277 143.89V145.347C300.277 146.418 300.052 147.403 299.603 148.303C299.153 149.202 298.492 149.926 297.619 150.475C296.755 151.024 295.694 151.298 294.434 151.298C293.175 151.298 292.109 151.024 291.236 150.475C290.364 149.926 289.702 149.202 289.252 148.303C288.812 147.403 288.591 146.418 288.591 145.347ZM292.113 143.89V145.347C292.113 146.058 292.284 146.71 292.626 147.304C292.968 147.898 293.571 148.195 294.434 148.195C295.307 148.195 295.905 147.902 296.229 147.317C296.562 146.724 296.728 146.067 296.728 145.347V143.89C296.728 143.17 296.571 142.513 296.256 141.92C295.941 141.317 295.334 141.016 294.434 141.016C293.589 141.016 292.99 141.317 292.64 141.92C292.289 142.513 292.113 143.17 292.113 143.89ZM274.544 129.532V128.075C274.544 126.995 274.773 126.005 275.232 125.106C275.691 124.206 276.356 123.486 277.229 122.947C278.102 122.398 279.159 122.124 280.4 122.124C281.669 122.124 282.735 122.398 283.598 122.947C284.471 123.486 285.128 124.206 285.569 125.106C286.009 126.005 286.23 126.995 286.23 128.075V129.532C286.23 130.612 286.005 131.601 285.555 132.501C285.114 133.391 284.457 134.107 283.585 134.646C282.712 135.186 281.651 135.456 280.4 135.456C279.132 135.456 278.061 135.186 277.189 134.646C276.325 134.107 275.668 133.387 275.218 132.487C274.769 131.588 274.544 130.603 274.544 129.532ZM278.093 128.075V129.532C278.093 130.252 278.259 130.908 278.592 131.502C278.934 132.087 279.537 132.379 280.4 132.379C281.264 132.379 281.858 132.087 282.181 131.502C282.514 130.908 282.681 130.252 282.681 129.532V128.075C282.681 127.355 282.523 126.698 282.208 126.104C281.894 125.502 281.291 125.2 280.4 125.2C279.546 125.2 278.947 125.502 278.605 126.104C278.264 126.707 278.093 127.364 278.093 128.075ZM276.082 150.529L295.082 122.893H298.456L279.456 150.529H276.082Z" fill="#33415C"/>
</svg>
