<svg width="345" height="224" viewBox="0 0 345 224" fill="none" xmlns="http://www.w3.org/2000/svg">
<path d="M328.461 212.643H30.9491C27.9434 212.643 25.5068 214.37 25.5068 216.5V219.071C25.5068 221.202 27.9434 222.928 30.9491 222.928H328.461C331.466 222.928 333.903 221.202 333.903 219.071V216.5C333.903 214.37 331.466 212.643 328.461 212.643Z" fill="#E6E8ED" stroke="#E6E8ED"/>
<path d="M333.926 13.3572H28.7134C23.0473 13.3572 18.4541 17.9622 18.4541 23.6429V204.929C18.4541 210.609 23.0473 215.214 28.7134 215.214H333.926C339.592 215.214 344.186 210.609 344.186 204.929V23.6429C344.186 17.9622 339.592 13.3572 333.926 13.3572Z" fill="white" stroke="#E6E8ED"/>
<path d="M190.296 24.9286V208.786" stroke="#E6E8ED"/>
<path d="M31.2778 134.214H187.732" stroke="#E6E8ED"/>
<path d="M33.8428 31.3572V118.786" stroke="#CCD1DB" stroke-linecap="square"/>
<path d="M33.8428 118.786H176.19" stroke="#CCD1DB" stroke-linecap="square"/>
<path d="M35.1255 62.2143H176.19" stroke="#E6E8ED" stroke-dasharray="2 2"/>
<path d="M35.1255 90.5001H176.19" stroke="#E6E8ED" stroke-dasharray="2 2"/>
<path d="M41.5371 87.9286L58.2084 98.2143L88.9862 77.6429L123.611 87.9286L174.907 41.6429" stroke="#005BD7" stroke-width="1.5" stroke-linecap="round" stroke-linejoin="round"/>
<path d="M41.5375 90.5C42.954 90.5 44.1023 89.3488 44.1023 87.9286C44.1023 86.5084 42.954 85.3572 41.5375 85.3572C40.121 85.3572 38.9727 86.5084 38.9727 87.9286C38.9727 89.3488 40.121 90.5 41.5375 90.5Z" fill="white" stroke="#005BD7" stroke-width="1.5"/>
<path d="M58.2084 100.786C59.6249 100.786 60.7732 99.6345 60.7732 98.2143C60.7732 96.7942 59.6249 95.6429 58.2084 95.6429C56.7919 95.6429 55.6436 96.7942 55.6436 98.2143C55.6436 99.6345 56.7919 100.786 58.2084 100.786Z" fill="white" stroke="#005BD7" stroke-width="1.5"/>
<path d="M88.9862 80.2143C90.4027 80.2143 91.551 79.0631 91.551 77.6429C91.551 76.2227 90.4027 75.0715 88.9862 75.0715C87.5697 75.0715 86.4214 76.2227 86.4214 77.6429C86.4214 79.0631 87.5697 80.2143 88.9862 80.2143Z" fill="white" stroke="#005BD7" stroke-width="1.5"/>
<path d="M123.611 90.5C125.028 90.5 126.176 89.3488 126.176 87.9286C126.176 86.5084 125.028 85.3572 123.611 85.3572C122.195 85.3572 121.046 86.5084 121.046 87.9286C121.046 89.3488 122.195 90.5 123.611 90.5Z" fill="white" stroke="#005BD7" stroke-width="1.5"/>
<path d="M174.908 44.2143C176.324 44.2143 177.472 43.0631 177.472 41.6429C177.472 40.2227 176.324 39.0715 174.908 39.0715C173.491 39.0715 172.343 40.2227 172.343 41.6429C172.343 43.0631 173.491 44.2143 174.908 44.2143Z" fill="white" stroke="#005BD7" stroke-width="1.5"/>
<path d="M44.1021 76.3572L58.2085 90.5L87.7039 69.9286L122.329 84.0714L173.625 53.2143" stroke="#8001D8" stroke-width="1.5" stroke-linecap="round" stroke-linejoin="round"/>
<path d="M44.1019 78.9286C45.5184 78.9286 46.6667 77.7774 46.6667 76.3572C46.6667 74.937 45.5184 73.7858 44.1019 73.7858C42.6854 73.7858 41.5371 74.937 41.5371 76.3572C41.5371 77.7774 42.6854 78.9286 44.1019 78.9286Z" fill="white" stroke="#8001D8" stroke-width="1.5"/>
<path d="M58.2084 93.0714C59.6249 93.0714 60.7732 91.9202 60.7732 90.5C60.7732 89.0799 59.6249 87.9286 58.2084 87.9286C56.7919 87.9286 55.6436 89.0799 55.6436 90.5C55.6436 91.9202 56.7919 93.0714 58.2084 93.0714Z" fill="white" stroke="#8001D8" stroke-width="1.5"/>
<path d="M87.704 72.5C89.1205 72.5 90.2688 71.3488 90.2688 69.9286C90.2688 68.5084 89.1205 67.3572 87.704 67.3572C86.2875 67.3572 85.1392 68.5084 85.1392 69.9286C85.1392 71.3488 86.2875 72.5 87.704 72.5Z" fill="white" stroke="#8001D8" stroke-width="1.5"/>
<path d="M122.329 86.6429C123.745 86.6429 124.894 85.4917 124.894 84.0715C124.894 82.6513 123.745 81.5001 122.329 81.5001C120.912 81.5001 119.764 82.6513 119.764 84.0715C119.764 85.4917 120.912 86.6429 122.329 86.6429Z" fill="white" stroke="#8001D8" stroke-width="1.5"/>
<path d="M173.625 55.7857C175.042 55.7857 176.19 54.6345 176.19 53.2143C176.19 51.7942 175.042 50.6429 173.625 50.6429C172.209 50.6429 171.061 51.7942 171.061 53.2143C171.061 54.6345 172.209 55.7857 173.625 55.7857Z" fill="white" stroke="#8001D8" stroke-width="1.5"/>
<path d="M44.1021 81.5L58.2085 109.786L88.9863 63.5L122.329 100.786L174.908 31.3572" stroke="#31CAA8" stroke-width="1.5" stroke-linecap="round" stroke-linejoin="round"/>
<path d="M44.1019 84.0714C45.5184 84.0714 46.6667 82.9202 46.6667 81.5C46.6667 80.0799 45.5184 78.9286 44.1019 78.9286C42.6854 78.9286 41.5371 80.0799 41.5371 81.5C41.5371 82.9202 42.6854 84.0714 44.1019 84.0714Z" fill="white" stroke="#31CAA8" stroke-width="1.5"/>
<path d="M58.2084 112.357C59.6249 112.357 60.7732 111.206 60.7732 109.786C60.7732 108.366 59.6249 107.214 58.2084 107.214C56.7919 107.214 55.6436 108.366 55.6436 109.786C55.6436 111.206 56.7919 112.357 58.2084 112.357Z" fill="white" stroke="#31CAA8" stroke-width="1.5"/>
<path d="M88.9862 66.0714C90.4027 66.0714 91.551 64.9202 91.551 63.5C91.551 62.0799 90.4027 60.9286 88.9862 60.9286C87.5697 60.9286 86.4214 62.0799 86.4214 63.5C86.4214 64.9202 87.5697 66.0714 88.9862 66.0714Z" fill="white" stroke="#31CAA8" stroke-width="1.5"/>
<path d="M122.329 103.357C123.745 103.357 124.894 102.206 124.894 100.786C124.894 99.3656 123.745 98.2143 122.329 98.2143C120.912 98.2143 119.764 99.3656 119.764 100.786C119.764 102.206 120.912 103.357 122.329 103.357Z" fill="white" stroke="#31CAA8" stroke-width="1.5"/>
<path d="M174.908 33.9286C176.324 33.9286 177.472 32.7774 177.472 31.3572C177.472 29.937 176.324 28.7858 174.908 28.7858C173.491 28.7858 172.343 29.937 172.343 31.3572C172.343 32.7774 173.491 33.9286 174.908 33.9286Z" fill="white" stroke="#31CAA8" stroke-width="1.5"/>
<path d="M78.7269 138.071H68.4676C67.0511 138.071 65.9028 139.223 65.9028 140.643V141.929C65.9028 143.349 67.0511 144.5 68.4676 144.5H78.7269C80.1434 144.5 81.2917 143.349 81.2917 141.929V140.643C81.2917 139.223 80.1434 138.071 78.7269 138.071Z" fill="#31CAA8"/>
<path d="M97.9632 138.071H87.704C86.2875 138.071 85.1392 139.223 85.1392 140.643V141.929C85.1392 143.349 86.2875 144.5 87.704 144.5H97.9632C99.3797 144.5 100.528 143.349 100.528 141.929V140.643C100.528 139.223 99.3797 138.071 97.9632 138.071Z" fill="#31CAA8"/>
<path d="M117.2 138.071H106.94C105.524 138.071 104.375 139.223 104.375 140.643V141.929C104.375 143.349 105.524 144.5 106.94 144.5H117.2C118.616 144.5 119.764 143.349 119.764 141.929V140.643C119.764 139.223 118.616 138.071 117.2 138.071Z" fill="#31CAA8"/>
<path d="M56.9261 150.929H36.4076C34.9911 150.929 33.8428 152.08 33.8428 153.5V154.786C33.8428 156.206 34.9911 157.357 36.4076 157.357H56.9261C58.3426 157.357 59.4909 156.206 59.4909 154.786V153.5C59.4909 152.08 58.3426 150.929 56.9261 150.929Z" fill="#31CAA8"/>
<path d="M56.9261 161.214H36.4076C34.9911 161.214 33.8428 162.366 33.8428 163.786V165.071C33.8428 166.492 34.9911 167.643 36.4076 167.643H56.9261C58.3426 167.643 59.4909 166.492 59.4909 165.071V163.786C59.4909 162.366 58.3426 161.214 56.9261 161.214Z" fill="#31CAA8"/>
<path d="M56.9261 171.5H36.4076C34.9911 171.5 33.8428 172.651 33.8428 174.071V175.357C33.8428 176.777 34.9911 177.929 36.4076 177.929H56.9261C58.3426 177.929 59.4909 176.777 59.4909 175.357V174.071C59.4909 172.651 58.3426 171.5 56.9261 171.5Z" fill="#31CAA8"/>
<path d="M56.9261 181.786H36.4076C34.9911 181.786 33.8428 182.937 33.8428 184.357V185.643C33.8428 187.063 34.9911 188.214 36.4076 188.214H56.9261C58.3426 188.214 59.4909 187.063 59.4909 185.643V184.357C59.4909 182.937 58.3426 181.786 56.9261 181.786Z" fill="#31CAA8"/>
<path d="M78.7269 150.929H68.4676C67.0511 150.929 65.9028 152.08 65.9028 153.5V154.786C65.9028 156.206 67.0511 157.357 68.4676 157.357H78.7269C80.1434 157.357 81.2917 156.206 81.2917 154.786V153.5C81.2917 152.08 80.1434 150.929 78.7269 150.929Z" fill="#E6E8ED"/>
<path d="M97.9632 150.929H87.704C86.2875 150.929 85.1392 152.08 85.1392 153.5V154.786C85.1392 156.206 86.2875 157.357 87.704 157.357H97.9632C99.3797 157.357 100.528 156.206 100.528 154.786V153.5C100.528 152.08 99.3797 150.929 97.9632 150.929Z" fill="#E6E8ED"/>
<path d="M117.2 150.929H106.94C105.524 150.929 104.375 152.08 104.375 153.5V154.786C104.375 156.206 105.524 157.357 106.94 157.357H117.2C118.616 157.357 119.764 156.206 119.764 154.786V153.5C119.764 152.08 118.616 150.929 117.2 150.929Z" fill="#E6E8ED"/>
<path d="M78.7269 161.214H68.4676C67.0511 161.214 65.9028 162.366 65.9028 163.786V165.071C65.9028 166.492 67.0511 167.643 68.4676 167.643H78.7269C80.1434 167.643 81.2917 166.492 81.2917 165.071V163.786C81.2917 162.366 80.1434 161.214 78.7269 161.214Z" fill="#E6E8ED"/>
<path d="M97.9632 161.214H87.704C86.2875 161.214 85.1392 162.366 85.1392 163.786V165.071C85.1392 166.492 86.2875 167.643 87.704 167.643H97.9632C99.3797 167.643 100.528 166.492 100.528 165.071V163.786C100.528 162.366 99.3797 161.214 97.9632 161.214Z" fill="#E6E8ED"/>
<path d="M117.2 161.214H106.94C105.524 161.214 104.375 162.366 104.375 163.786V165.071C104.375 166.492 105.524 167.643 106.94 167.643H117.2C118.616 167.643 119.764 166.492 119.764 165.071V163.786C119.764 162.366 118.616 161.214 117.2 161.214Z" fill="#E6E8ED"/>
<path d="M78.7269 171.5H68.4676C67.0511 171.5 65.9028 172.651 65.9028 174.071V175.357C65.9028 176.777 67.0511 177.929 68.4676 177.929H78.7269C80.1434 177.929 81.2917 176.777 81.2917 175.357V174.071C81.2917 172.651 80.1434 171.5 78.7269 171.5Z" fill="#E6E8ED"/>
<path d="M97.9632 171.5H87.704C86.2875 171.5 85.1392 172.651 85.1392 174.071V175.357C85.1392 176.777 86.2875 177.929 87.704 177.929H97.9632C99.3797 177.929 100.528 176.777 100.528 175.357V174.071C100.528 172.651 99.3797 171.5 97.9632 171.5Z" fill="#E6E8ED"/>
<path d="M117.2 171.5H106.94C105.524 171.5 104.375 172.651 104.375 174.071V175.357C104.375 176.777 105.524 177.929 106.94 177.929H117.2C118.616 177.929 119.764 176.777 119.764 175.357V174.071C119.764 172.651 118.616 171.5 117.2 171.5Z" fill="#E6E8ED"/>
<path d="M78.7269 181.786H68.4676C67.0511 181.786 65.9028 182.937 65.9028 184.357V185.643C65.9028 187.063 67.0511 188.214 68.4676 188.214H78.7269C80.1434 188.214 81.2917 187.063 81.2917 185.643V184.357C81.2917 182.937 80.1434 181.786 78.7269 181.786Z" fill="#E6E8ED"/>
<path d="M97.9632 181.786H87.704C86.2875 181.786 85.1392 182.937 85.1392 184.357V185.643C85.1392 187.063 86.2875 188.214 87.704 188.214H97.9632C99.3797 188.214 100.528 187.063 100.528 185.643V184.357C100.528 182.937 99.3797 181.786 97.9632 181.786Z" fill="#E6E8ED"/>
<path d="M117.2 181.786H106.94C105.524 181.786 104.375 182.937 104.375 184.357V185.643C104.375 187.063 105.524 188.214 106.94 188.214H117.2C118.616 188.214 119.764 187.063 119.764 185.643V184.357C119.764 182.937 118.616 181.786 117.2 181.786Z" fill="#E6E8ED"/>
<path d="M192.861 31.3572V206.214" stroke="#CCD1DB" stroke-linecap="square"/>
<path d="M286.477 37.7858H196.708C195.292 37.7858 194.144 38.937 194.144 40.3572V44.2143C194.144 45.6345 195.292 46.7858 196.708 46.7858H286.477C287.893 46.7858 289.042 45.6345 289.042 44.2143V40.3572C289.042 38.937 287.893 37.7858 286.477 37.7858Z" fill="#005BD7"/>
<path d="M306.995 48.0715H196.708C195.292 48.0715 194.144 49.2227 194.144 50.6429V54.5C194.144 55.9202 195.292 57.0715 196.708 57.0715H306.995C308.412 57.0715 309.56 55.9202 309.56 54.5V50.6429C309.56 49.2227 308.412 48.0715 306.995 48.0715Z" fill="#8001D8"/>
<path d="M278.782 58.3572H196.708C195.292 58.3572 194.144 59.5084 194.144 60.9286V64.7857C194.144 66.2059 195.292 67.3572 196.708 67.3572H278.782C280.199 67.3572 281.347 66.2059 281.347 64.7857V60.9286C281.347 59.5084 280.199 58.3572 278.782 58.3572Z" fill="#31CAA8"/>
<path d="M253.134 84.0715H196.708C195.292 84.0715 194.144 85.2227 194.144 86.6429V90.5C194.144 91.9202 195.292 93.0715 196.708 93.0715H253.134C254.551 93.0715 255.699 91.9202 255.699 90.5V86.6429C255.699 85.2227 254.551 84.0715 253.134 84.0715Z" fill="#005BD7"/>
<path d="M267.241 94.3572H196.708C195.292 94.3572 194.144 95.5084 194.144 96.9286V100.786C194.144 102.206 195.292 103.357 196.708 103.357H267.241C268.657 103.357 269.806 102.206 269.806 100.786V96.9286C269.806 95.5084 268.657 94.3572 267.241 94.3572Z" fill="#8001D8"/>
<path d="M278.782 104.643H196.708C195.292 104.643 194.144 105.794 194.144 107.214V111.071C194.144 112.492 195.292 113.643 196.708 113.643H278.782C280.199 113.643 281.347 112.492 281.347 111.071V107.214C281.347 105.794 280.199 104.643 278.782 104.643Z" fill="#31CAA8"/>
<path d="M290.324 130.357H196.708C195.292 130.357 194.144 131.508 194.144 132.929V136.786C194.144 138.206 195.292 139.357 196.708 139.357H290.324C291.741 139.357 292.889 138.206 292.889 136.786V132.929C292.889 131.508 291.741 130.357 290.324 130.357Z" fill="#005BD7"/>
<path d="M277.5 140.643H196.708C195.292 140.643 194.144 141.794 194.144 143.214V147.071C194.144 148.492 195.292 149.643 196.708 149.643H277.5C278.917 149.643 280.065 148.492 280.065 147.071V143.214C280.065 141.794 278.917 140.643 277.5 140.643Z" fill="#8001D8"/>
<path d="M306.995 150.929H196.708C195.292 150.929 194.144 152.08 194.144 153.5V157.357C194.144 158.777 195.292 159.929 196.708 159.929H306.995C308.412 159.929 309.56 158.777 309.56 157.357V153.5C309.56 152.08 308.412 150.929 306.995 150.929Z" fill="#31CAA8"/>
<path d="M21.0185 41.6429C32.3506 41.6429 41.537 32.4327 41.537 21.0714C41.537 9.71014 32.3506 0.5 21.0185 0.5C9.68645 0.5 0.5 9.71014 0.5 21.0714C0.5 32.4327 9.68645 41.6429 21.0185 41.6429Z" fill="white" stroke="#E6E8ED"/>
<path d="M11.9819 11.7866C20.9314 7.83704 27.2902 14.0325 27.2902 14.0325L32.4192 8.22426C30.7967 7.24331 27.1594 5.64282 23.1033 5.64282C19.309 5.64282 15.1221 7.06261 11.9819 11.7866Z" fill="#149678"/>
<path d="M10.5273 32.7119C13.903 35.6289 18.4039 36.9712 22.8525 36.3517C26.5422 35.8354 30.7291 34.0542 33.1103 31.2921L26.9085 27.3425C24.2132 31.3695 18.3516 35.0093 10.5273 32.7119Z" fill="#8001D8"/>
<path d="M5.20406 23.0833C6.43396 27.9106 10.5162 32.5055 17.0058 31.1374C14.4675 28.401 8.47506 21.0698 9.28627 14.3838C9.60029 11.7508 10.9349 9.4533 13.2376 7.56885C8.03021 10.6666 3.68631 17.0943 5.20406 23.0833Z" fill="#005BD7"/>
</svg>
