<svg width="299" height="215" viewBox="0 0 299 215" fill="none" xmlns="http://www.w3.org/2000/svg">
<path d="M256.65 201.343H20.6074C18.2227 201.343 16.2896 203.398 16.2896 205.932V208.992C16.2896 211.526 18.2227 213.581 20.6074 213.581H256.65C259.034 213.581 260.967 211.526 260.967 208.992V205.932C260.967 203.398 259.034 201.343 256.65 201.343Z" fill="#E6E8ED" stroke="#E6E8ED"/>
<path d="M271.824 0.407074H8.10698C3.85452 0.407074 0.407227 3.85437 0.407227 8.10683V197.713C0.407227 201.966 3.85452 205.413 8.10698 205.413H271.824C276.076 205.413 279.523 201.966 279.523 197.713V8.10683C279.523 3.85437 276.076 0.407074 271.824 0.407074Z" fill="white" stroke="#E2E8F0" stroke-width="0.81412"/>
<g clip-path="url(#clip0_125_4187)">
<path d="M27.2246 25.2645V177.817" stroke="#CBD5E1" stroke-width="0.723354" stroke-linecap="square"/>
<path d="M26.5728 177.817H253.573" stroke="#CBD5E1" stroke-width="0.723354" stroke-linecap="square"/>
<path d="M56.3322 58.9023H45.9055C44.4659 58.9023 43.2988 60.1032 43.2988 61.5846V175.135C43.2988 176.617 44.4659 177.817 45.9055 177.817H56.3322C57.7719 177.817 58.9389 176.617 58.9389 175.135V61.5846C58.9389 60.1032 57.7719 58.9023 56.3322 58.9023Z" fill="#005BD7"/>
<path d="M71.5378 34.7616H61.1111C59.6714 34.7616 58.5044 35.9625 58.5044 37.4439V175.135C58.5044 176.617 59.6714 177.817 61.1111 177.817H71.5378C72.9774 177.817 74.1445 176.617 74.1445 175.135V37.4439C74.1445 35.9625 72.9774 34.7616 71.5378 34.7616Z" fill="#8001D8"/>
<path d="M87.1779 68.7374H76.7512C75.3116 68.7374 74.1445 69.9383 74.1445 71.4197V175.135C74.1445 176.617 75.3116 177.817 76.7512 177.817H87.1779C88.6176 177.817 89.7846 176.617 89.7846 175.135V71.4197C89.7846 69.9383 88.6176 68.7374 87.1779 68.7374Z" fill="#31CAA8"/>
<path d="M131.491 99.1367H121.065C119.625 99.1367 118.458 100.338 118.458 101.819V175.135C118.458 176.617 119.625 177.817 121.065 177.817H131.491C132.931 177.817 134.098 176.617 134.098 175.135V101.819C134.098 100.338 132.931 99.1367 131.491 99.1367Z" fill="#005BD7"/>
<path d="M146.697 83.9371H136.27C134.831 83.9371 133.664 85.138 133.664 86.6194V175.135C133.664 176.617 134.831 177.817 136.27 177.817H146.697C148.137 177.817 149.304 176.617 149.304 175.135V86.6194C149.304 85.138 148.137 83.9371 146.697 83.9371Z" fill="#8001D8"/>
<path d="M161.903 68.7374H151.476C150.037 68.7374 148.87 69.9383 148.87 71.4197V175.135C148.87 176.617 150.037 177.817 151.476 177.817H161.903C163.343 177.817 164.51 176.617 164.51 175.135V71.4197C164.51 69.9383 163.343 68.7374 161.903 68.7374Z" fill="#31CAA8"/>
<path d="M207.52 51.7495H197.093C195.653 51.7495 194.486 52.9504 194.486 54.4318V175.135C194.486 176.617 195.653 177.817 197.093 177.817H207.52C208.959 177.817 210.126 176.617 210.126 175.135V54.4318C210.126 52.9504 208.959 51.7495 207.52 51.7495Z" fill="#005BD7"/>
<path d="M222.725 68.7374H212.299C210.859 68.7374 209.692 69.9383 209.692 71.4197V175.135C209.692 176.617 210.859 177.817 212.299 177.817H222.725C224.165 177.817 225.332 176.617 225.332 175.135V71.4197C225.332 69.9383 224.165 68.7374 222.725 68.7374Z" fill="#8001D8"/>
<path d="M237.496 34.7616H227.07C225.63 34.7616 224.463 35.9625 224.463 37.4439V175.135C224.463 176.617 225.63 177.817 227.07 177.817H237.496C238.936 177.817 240.103 176.617 240.103 175.135V37.4439C240.103 35.9625 238.936 34.7616 237.496 34.7616Z" fill="#31CAA8"/>
</g>
<g filter="url(#filter0_d_125_4187)">
<rect x="224.007" y="139.901" width="69" height="40" rx="8" fill="#B18107"/>
<path d="M236.827 166.001C236.127 166.001 235.547 165.441 235.547 164.721C235.547 164.001 236.127 163.441 236.827 163.441C237.527 163.441 238.107 164.001 238.107 164.721C238.107 165.441 237.527 166.001 236.827 166.001ZM241.331 169.541V155.441H242.991V157.201C243.591 156.181 245.011 155.261 246.531 155.261C249.271 155.261 251.291 157.261 251.291 160.521V160.681C251.291 163.881 249.411 166.081 246.531 166.081C244.811 166.081 243.591 165.221 242.991 164.181V169.541H241.331ZM246.371 164.701C248.451 164.701 249.571 163.301 249.571 160.761V160.601C249.571 157.961 248.111 156.641 246.351 156.641C244.411 156.641 242.931 157.921 242.931 160.601V160.761C242.931 163.441 244.331 164.701 246.371 164.701ZM253.87 169.541V155.441H255.53V157.201C256.13 156.181 257.55 155.261 259.07 155.261C261.81 155.261 263.83 157.261 263.83 160.521V160.681C263.83 163.881 261.95 166.081 259.07 166.081C257.35 166.081 256.13 165.221 255.53 164.181V169.541H253.87ZM258.91 164.701C260.99 164.701 262.11 163.301 262.11 160.761V160.601C262.11 157.961 260.65 156.641 258.89 156.641C256.95 156.641 255.47 157.921 255.47 160.601V160.761C255.47 163.441 256.87 164.701 258.91 164.701ZM269.589 166.041C267.689 166.041 266.769 164.921 266.769 163.281V156.841H265.269V155.441H266.769V153.061H268.429V155.441H270.869V156.841H268.429V163.121C268.429 164.141 268.889 164.641 269.729 164.641C270.249 164.641 270.649 164.561 271.009 164.421V165.821C270.669 165.941 270.269 166.041 269.589 166.041ZM272.399 165.901L276.139 160.521L272.639 155.441H274.579L277.139 159.241L279.679 155.441H281.479L278.019 160.401L281.839 165.901H279.879L277.059 161.681L274.179 165.901H272.399Z" fill="white"/>
</g>
<defs>
<filter id="filter0_d_125_4187" x="218.007" y="139.901" width="81" height="52" filterUnits="userSpaceOnUse" color-interpolation-filters="sRGB">
<feFlood flood-opacity="0" result="BackgroundImageFix"/>
<feColorMatrix in="SourceAlpha" type="matrix" values="0 0 0 0 0 0 0 0 0 0 0 0 0 0 0 0 0 0 127 0" result="hardAlpha"/>
<feOffset dy="6"/>
<feGaussianBlur stdDeviation="3"/>
<feComposite in2="hardAlpha" operator="out"/>
<feColorMatrix type="matrix" values="0 0 0 0 0.2 0 0 0 0 0.254902 0 0 0 0 0.360784 0 0 0 0.08 0"/>
<feBlend mode="normal" in2="BackgroundImageFix" result="effect1_dropShadow_125_4187"/>
<feBlend mode="normal" in="SourceGraphic" in2="effect1_dropShadow_125_4187" result="shape"/>
</filter>
<clipPath id="clip0_125_4187">
<rect width="227" height="153" fill="white" transform="translate(26.5728 25.2645)"/>
</clipPath>
</defs>
</svg>
