<?xml version="1.0" encoding="utf-8"?>
<!-- Generator: Adobe Illustrator 27.2.0, SVG Export Plug-In . SVG Version: 6.00 Build 0)  -->
<svg version="1.1" id="Layer_1" xmlns="http://www.w3.org/2000/svg" xmlns:xlink="http://www.w3.org/1999/xlink" x="0px" y="0px"
	 viewBox="0 0 612 334" style="enable-background:new 0 0 612 334;" xml:space="preserve">
<style type="text/css">
	.st0{fill:url(#Rectangle_00000039827912863586168650000008264607616978672018_);}
	.st1{fill:#FFFFFF;}
	.st2{fill:#FAFAFA;}
	.st3{fill:none;}
	.st4{fill:none;stroke:#D7D7D7;stroke-linecap:square;stroke-miterlimit:10;}
	.st5{fill:none;stroke:#D3D3D3;stroke-linecap:square;stroke-miterlimit:10;}
	.st6{fill:#D3D3D3;}
	.st7{fill:#0263A7;}
	.st8{fill:#137F65;}
	.st9{fill:#72257F;}
	.st10{fill:#EFEFEF;}
	.st11{fill:#E5E4E4;}
	.st12{enable-background:new    ;}
	.st13{fill:#C6C5C5;}
	.st14{fill:none;stroke:#FFFFFF;stroke-width:2;stroke-linecap:square;stroke-miterlimit:10;}
	.st15{fill:none;stroke:#E9DBED;stroke-width:2;stroke-miterlimit:10;}
	.st16{fill:none;stroke:#72257F;stroke-width:2;stroke-miterlimit:10;}
	.st17{fill:none;stroke:#E1E9E9;stroke-width:2;stroke-miterlimit:10;}
	.st18{fill:none;stroke:#E5E4E4;stroke-miterlimit:10;}
	.st19{fill:#CCE1F0;}
	.st20{fill:#E9DBED;}
	.st21{fill:none;stroke:#D3D3D3;stroke-linejoin:round;stroke-miterlimit:10;}
	.st22{fill:#6D7279;}
	.st23{fill:none;stroke:#FFFFFF;stroke-linecap:square;stroke-miterlimit:10;}
</style>
<g>
	
		<linearGradient id="Rectangle_00000159453313337511757900000009681194180836082329_" gradientUnits="userSpaceOnUse" x1="2.4186" y1="620.7622" x2="1.0384" y2="620.5382" gradientTransform="matrix(295.24 0 0 -59.537 -69.312 37104.1602)">
		<stop  offset="0" style="stop-color:#E6E9EB"/>
		<stop  offset="1" style="stop-color:#D4D7D9"/>
	</linearGradient>
	<path id="Rectangle" style="fill:url(#Rectangle_00000159453313337511757900000009681194180836082329_);" d="M271.6,43h292.7
		c1.7,0,3,1.3,3,3v214.5c0,1.7-1.4,3-3,3H271.6c-1.7,0-3-1.3-3-3V46C268.6,44.4,269.9,43,271.6,43z"/>
	<path id="Rectangle-2" class="st1" d="M270.3,59.3h295.2l0,0v199.6c0,1.7-1.3,3-3,3H273.3c-1.7,0-3-1.3-3-3V59.3L270.3,59.3z"/>
	<rect id="Rectangle-3" x="341.3" y="74.9" class="st2" width="223" height="187"/>
	<g id="dashboard-screenshot2" transform="translate(389.348 86.25)">
		<rect id="Rectangle_2" x="25.3" y="-0.1" class="st1" width="147.5" height="126.4"/>
		<rect id="Mask-5" x="27.3" y="14.4" class="st3" width="141.7" height="106.1"/>
	</g>
	<g id="Group_4" transform="translate(322.844 215.769)">
		<g id="dashboard-screenshot2_copy_2">
			<rect id="Rectangle_2-2" x="25.3" y="-0.1" class="st1" width="213" height="44.4"/>
			<rect id="Mask-6" x="29.2" y="4.7" class="st3" width="204.3" height="37.6"/>
		</g>
		<path id="Line_Copy_6" class="st4" d="M43.6,35.5l188.2-0.4"/>
		<path id="Line_Copy_6-2" class="st5" d="M164.8,31.2v12.3"/>
		<path id="Line_Copy_11" class="st5" d="M188.7,31.2v12.3"/>
		<path id="Line_Copy_12" class="st5" d="M212.7,31.2v12.3"/>
		<path id="Line_Copy_7" class="st5" d="M139.6,31.2v12.3"/>
		<path id="Line_Copy_8" class="st5" d="M114.6,31.2v12.3"/>
		<path id="Line_Copy_9" class="st5" d="M90.7,31.2v12.3"/>
		<path id="Line_Copy_10" class="st5" d="M65.3,31.2v12.3"/>
		<rect id="Rectangle_Copy_4" x="31.3" y="8.3" class="st6" width="43.7" height="2.8"/>
	</g>
	<rect id="Rectangle_2-3" x="348.3" y="85.9" class="st1" width="61" height="46"/>
	<rect id="Mask-7" x="349" y="91.3" class="st3" width="58.9" height="38.9"/>
	<rect id="Rectangle_2-4" x="348.3" y="139.9" class="st1" width="61" height="73"/>
	<rect id="Mask-8" x="349" y="147.6" class="st3" width="58.9" height="60.3"/>
	<path id="Line" class="st5" d="M426.2,142.4h129"/>
	<path id="Line_Copy" class="st5" d="M426.2,160.7h129"/>
	<path id="Line_Copy_2" class="st5" d="M426.2,178.9h129"/>
	<path id="Line_Copy_3" class="st5" d="M426.2,198.8h129"/>
	<rect id="Rectangle-4" x="431.2" y="179.9" class="st7" width="7" height="19"/>
	<rect id="Rectangle_Copy_5" x="461.2" y="170.9" class="st7" width="6" height="28"/>
	<rect id="Rectangle_Copy_8" x="493.2" y="180.9" class="st7" width="7" height="18"/>
	<rect id="Rectangle_Copy_31" x="526.2" y="180.9" class="st7" width="7" height="18"/>
	<rect id="Rectangle_Copy_3" x="439.2" y="125.9" class="st8" width="6" height="73"/>
	<rect id="Rectangle_Copy_6" x="468.2" y="155.9" class="st8" width="8" height="43"/>
	<rect id="Rectangle_Copy_9" x="501.2" y="147.9" class="st8" width="8" height="51"/>
	<rect id="Rectangle_Copy_33" x="534.2" y="147.9" class="st8" width="6" height="51"/>
	<rect id="Rectangle_Copy_4-2" x="446.2" y="188.9" class="st9" width="6" height="10"/>
	<rect id="Rectangle_Copy_7" x="477.2" y="174.9" class="st9" width="6" height="24"/>
	<rect id="Rectangle_Copy_10" x="510.2" y="155.9" class="st9" width="7" height="43"/>
	<rect id="Rectangle_Copy_34" x="541.2" y="155.9" class="st9" width="7" height="43"/>
	<rect id="Rectangle-5" x="421.3" y="93.9" class="st6" width="43" height="4"/>
	<rect id="Rectangle_Copy_26" x="356.3" y="93.9" class="st6" width="44" height="4"/>
	<rect id="Rectangle_Copy_27" x="356.3" y="147.9" class="st6" width="44" height="3"/>
	<rect id="Rectangle_Copy_6-2" x="421.3" y="102.9" class="st6" width="79" height="2"/>
	<rect id="Rectangle_Copy_28" x="356.3" y="153.9" class="st6" width="50" height="2"/>
	<rect id="Rectangle_Copy_29" x="354.3" y="161.9" class="st6" width="32" height="2"/>
	<rect id="Rectangle_Copy_69" x="421.3" y="105.9" class="st6" width="66" height="2"/>
	<rect id="Rectangle_Copy_70" x="356.3" y="156.9" class="st6" width="40" height="2"/>
	<rect id="Rectangle_Copy_71" x="354.3" y="165.9" class="st6" width="38" height="1"/>
	<path id="Rectangle-6" class="st10" d="M274,79.5h60.4c0.3,0,0.5,0.2,0.5,0.5v8.9c0,0.3-0.2,0.5-0.5,0.5H274
		c-0.3,0-0.5-0.2-0.5-0.5V80C273.5,79.7,273.8,79.5,274,79.5z"/>
	<path id="Rectangle_Copy_2" class="st10" d="M274,94.5h60.4c0.3,0,0.5,0.2,0.5,0.5v8.9c0,0.3-0.2,0.5-0.5,0.5H274
		c-0.3,0-0.5-0.2-0.5-0.5V95C273.5,94.7,273.8,94.5,274,94.5z"/>
	<rect id="Rectangle-7" x="277.6" y="82.3" class="st6" width="51.6" height="3.6"/>
	<rect id="Rectangle_Copy_32" x="278" y="98.1" class="st6" width="35.8" height="3.6"/>
	<path id="Rectangle-8" class="st10" d="M274,109.4h60.4c0.3,0,0.5,0.2,0.5,0.5v8.6c0,0.3-0.2,0.5-0.5,0.5H274
		c-0.3,0-0.5-0.2-0.5-0.5v-8.6C273.5,109.6,273.8,109.4,274,109.4z"/>
	<path id="Rectangle_Copy_2-2" class="st10" d="M274,124.6h60.4c0.3,0,0.5,0.2,0.5,0.5v8.6c0,0.3-0.2,0.5-0.5,0.5H274
		c-0.3,0-0.5-0.2-0.5-0.5v-8.6C273.5,124.8,273.8,124.6,274,124.6z"/>
	<rect id="Rectangle-9" x="277.6" y="112.6" class="st6" width="51.6" height="3.2"/>
	<rect id="Rectangle_Copy_32-2" x="278" y="127.8" class="st6" width="35.8" height="3.2"/>
	<rect id="Rectangle-10" x="268.3" y="59.9" class="st11" width="296" height="15"/>
	<rect id="Rectangle-11" x="275.3" y="62.9" class="st2" width="47" height="12"/>
	<rect id="Rectangle_Copy_40" x="323.3" y="62.9" class="st6" width="49" height="12"/>
	<rect id="Rectangle_Copy_48" x="373.3" y="62.9" class="st6" width="48" height="12"/>
	<rect id="Rectangle_Copy_56" x="422.3" y="62.9" class="st6" width="48" height="12"/>
	<g class="st12">
		<path class="st7" d="M357.5,113.6c0.6,0.6,1.4,0.9,2.2,0.9c1,0,1.5-0.4,1.5-1c0-0.6-0.5-0.9-1.6-0.9c-0.3,0-0.9,0-1,0v-1.5
			c0.1,0,0.7,0,1,0c0.9,0,1.5-0.3,1.5-0.9c0-0.6-0.6-1-1.5-1c-0.8,0-1.5,0.3-2,0.8l-0.8-1.1c0.6-0.7,1.7-1.3,3.1-1.3
			c1.9,0,3,0.8,3,2.2c0,1-0.9,1.7-1.8,1.8c0.8,0.1,1.9,0.7,1.9,1.9c0,1.4-1.2,2.4-3.2,2.4c-1.5,0-2.6-0.6-3.2-1.3L357.5,113.6z"/>
		<path class="st7" d="M365.5,111.8c-0.9-0.3-1.6-0.9-1.6-1.9c0-1.5,1.6-2.1,3.1-2.1c1.5,0,3.1,0.6,3.1,2.1c0,1-0.7,1.6-1.6,1.9
			c1,0.3,1.7,1.1,1.7,2.1c0,1.5-1.5,2.2-3.2,2.2c-1.7,0-3.2-0.7-3.2-2.2C363.8,112.8,364.6,112.1,365.5,111.8z M367,112.5
			c-0.5,0.1-1.5,0.4-1.5,1.1c0,0.6,0.6,1,1.5,1c0.8,0,1.5-0.4,1.5-1C368.5,112.9,367.5,112.6,367,112.5z M367,109.2
			c-0.8,0-1.4,0.3-1.4,0.9c0,0.6,0.9,0.9,1.4,1c0.5-0.1,1.3-0.3,1.3-1C368.4,109.6,367.8,109.2,367,109.2z"/>
		<path class="st7" d="M373,107.8c1.2,0,2,0.9,2,2c0,1.1-0.8,2-2,2c-1.2,0-2-0.9-2-2C371,108.7,371.8,107.8,373,107.8z M373,108.7
			c-0.5,0-0.9,0.4-0.9,1.1c0,0.6,0.4,1,0.9,1c0.6,0,0.9-0.4,0.9-1C373.9,109.1,373.5,108.7,373,108.7z M377.3,107.9h0.9l-5.1,8h-0.9
			L377.3,107.9z M377.4,112c1.2,0,2,0.9,2,2c0,1.1-0.8,2-2,2c-1.2,0-2-0.9-2-2C375.4,112.9,376.2,112,377.4,112z M377.4,113
			c-0.6,0-0.9,0.4-0.9,1.1c0,0.6,0.4,1,0.9,1s1-0.4,1-1C378.4,113.4,377.9,113,377.4,113z"/>
	</g>
	<path id="Combined_Shape" class="st7" d="M379.5,174.4c4.4,0,8.7,1.7,11.9,4.7c1.5,1.4,2.7,3.1,3.6,5v2.2h-10.8
		c-1.3-1.3-3-2.1-4.8-2.1c-3.5-0.1-6.4,2.7-6.5,6.2c0,1.7,0.7,3.2,1.9,4.4c1.2,1.2,2.8,1.8,4.5,1.8v10c-4.4,0-8.6-1.7-11.8-4.7
		c-6.3-6-6.6-15.9-0.7-22.2c0.2-0.2,0.4-0.5,0.7-0.7C370.8,176.1,375,174.4,379.5,174.4z"/>
	<circle id="Oval" class="st13" cx="277.3" cy="50.9" r="2"/>
	<ellipse id="Oval_Copy" class="st13" cx="284.3" cy="51.4" rx="3" ry="2.5"/>
	<circle id="Oval_Copy_2" class="st13" cx="291.3" cy="50.9" r="2"/>
	<path id="Line_3" class="st14" d="M168.8,270.7l-124.1,1.2"/>
	<path id="Path_5" class="st15" d="M54.6,233.8l12.9,29.8l27.1-48.5l29.7,38.5l44.7-71.2"/>
	<path id="Path_5_Copy_2" class="st16" d="M54.6,227.6l12.9,14.5l26.1-21.5l30.7,14.5l44.7-31.2"/>
	<path id="Path_5_Copy" class="st17" d="M49.6,239.6l15.9,10.8l26.9-21l31,11l45.6-48.1"/>
	<g id="Rectangle-12" transform="translate(60 118)">
		<path class="st1" d="M26.3-0.1h153c0.6,0,1,0.4,1,1v79c0,0.6-0.4,1-1,1h-153c-0.6,0-1-0.4-1-1v-79C25.3,0.3,25.8-0.1,26.3-0.1z"/>
		<path class="st18" d="M26.3,0.4h153c0.3,0,0.5,0.2,0.5,0.5v79c0,0.3-0.2,0.5-0.5,0.5h-153c-0.3,0-0.5-0.2-0.5-0.5v-79
			C25.8,0.6,26.1,0.4,26.3,0.4z"/>
	</g>
	<path id="Rectangle-13" class="st6" d="M139.4,141.6h10.2c0.3,0,0.5,0.2,0.5,0.5v4.6c0,0.3-0.2,0.5-0.5,0.5h-10.2
		c-0.3,0-0.5-0.2-0.5-0.5v-4.6C138.9,141.8,139.1,141.6,139.4,141.6z"/>
	<path id="Rectangle_Copy" class="st6" d="M175.1,141.6h10.2c0.3,0,0.5,0.2,0.5,0.5v4.6c0,0.3-0.2,0.5-0.5,0.5h-10.2
		c-0.3,0-0.5-0.2-0.5-0.5v-4.6C174.6,141.8,174.8,141.6,175.1,141.6z"/>
	<path id="Rectangle_Copy_2-3" class="st6" d="M210.8,141.6H221c0.3,0,0.5,0.2,0.5,0.5v4.6c0,0.3-0.2,0.5-0.5,0.5h-10.2
		c-0.3,0-0.5-0.2-0.5-0.5v-4.6C210.3,141.8,210.5,141.6,210.8,141.6z"/>
	<path id="Rectangle_Copy_3-2" class="st6" d="M139.4,156.2h10.2c0.3,0,0.5,0.2,0.5,0.5v4.6c0,0.3-0.2,0.5-0.5,0.5h-10.2
		c-0.3,0-0.5-0.2-0.5-0.5v-4.6C138.9,156.4,139.1,156.2,139.4,156.2z"/>
	<path id="Rectangle_Copy_11" class="st6" d="M175.1,156.2h10.2c0.3,0,0.5,0.2,0.5,0.5v4.6c0,0.3-0.2,0.5-0.5,0.5h-10.2
		c-0.3,0-0.5-0.2-0.5-0.5v-4.6C174.6,156.4,174.8,156.2,175.1,156.2z"/>
	<path id="Rectangle_Copy_13" class="st6" d="M210.8,156.2H221c0.3,0,0.5,0.2,0.5,0.5v4.6c0,0.3-0.2,0.5-0.5,0.5h-10.2
		c-0.3,0-0.5-0.2-0.5-0.5v-4.6C210.3,156.4,210.5,156.2,210.8,156.2z"/>
	<path id="Rectangle_Copy_9-2" class="st6" d="M139.4,169.5h10.2c0.3,0,0.5,0.2,0.5,0.5v4.6c0,0.3-0.2,0.5-0.5,0.5h-10.2
		c-0.3,0-0.5-0.2-0.5-0.5V170C138.9,169.7,139.1,169.5,139.4,169.5z"/>
	<path id="Rectangle_Copy_12" class="st6" d="M175.1,169.5h10.2c0.3,0,0.5,0.2,0.5,0.5v4.6c0,0.3-0.2,0.5-0.5,0.5h-10.2
		c-0.3,0-0.5-0.2-0.5-0.5V170C174.6,169.7,174.8,169.5,175.1,169.5z"/>
	<path id="Rectangle_Copy_38" class="st6" d="M210.8,169.5H221c0.3,0,0.5,0.2,0.5,0.5v4.6c0,0.3-0.2,0.5-0.5,0.5h-10.2
		c-0.3,0-0.5-0.2-0.5-0.5V170C210.3,169.7,210.5,169.5,210.8,169.5z"/>
	<path id="Rectangle_Copy_10-2" class="st6" d="M139.4,183.4h10.2c0.3,0,0.5,0.2,0.5,0.5v4.6c0,0.3-0.2,0.5-0.5,0.5h-10.2
		c-0.3,0-0.5-0.2-0.5-0.5v-4.6C138.9,183.6,139.1,183.4,139.4,183.4z"/>
	<path id="Rectangle_Copy_37" class="st6" d="M175.1,183.4h10.2c0.3,0,0.5,0.2,0.5,0.5v4.6c0,0.3-0.2,0.5-0.5,0.5h-10.2
		c-0.3,0-0.5-0.2-0.5-0.5v-4.6C174.6,183.6,174.8,183.4,175.1,183.4z"/>
	<path id="Rectangle_Copy_39" class="st6" d="M210.8,183.4H221c0.3,0,0.5,0.2,0.5,0.5v4.6c0,0.3-0.2,0.5-0.5,0.5h-10.2
		c-0.3,0-0.5-0.2-0.5-0.5v-4.6C210.3,183.6,210.5,183.4,210.8,183.4z"/>
	<path id="Rectangle_Copy_4-3" class="st8" d="M132.4,127.6h23.5c0.3,0,0.5,0.2,0.5,0.5v4.6c0,0.3-0.2,0.5-0.5,0.5h-23.5
		c-0.3,0-0.5-0.2-0.5-0.5v-4.6C131.9,127.8,132.1,127.6,132.4,127.6z"/>
	<path id="Rectangle_Copy_7-2" class="st8" d="M101.5,141.6h23.5c0.3,0,0.5,0.2,0.5,0.5v4.6c0,0.3-0.2,0.5-0.5,0.5h-23.5
		c-0.3,0-0.5-0.2-0.5-0.5v-4.6C101,141.8,101.3,141.6,101.5,141.6z"/>
	<path id="Rectangle_Copy_8-2" class="st8" d="M101.5,156.2h23.5c0.3,0,0.5,0.2,0.5,0.5v4.6c0,0.3-0.2,0.5-0.5,0.5h-23.5
		c-0.3,0-0.5-0.2-0.5-0.5v-4.6C101,156.4,101.3,156.2,101.5,156.2z"/>
	<path id="Rectangle_Copy_35" class="st8" d="M101.5,169.5h23.5c0.3,0,0.5,0.2,0.5,0.5v4.6c0,0.3-0.2,0.5-0.5,0.5h-23.5
		c-0.3,0-0.5-0.2-0.5-0.5V170C101,169.7,101.3,169.5,101.5,169.5z"/>
	<path id="Rectangle_Copy_36" class="st8" d="M101.5,183.4h23.5c0.3,0,0.5,0.2,0.5,0.5v4.6c0,0.3-0.2,0.5-0.5,0.5h-23.5
		c-0.3,0-0.5-0.2-0.5-0.5v-4.6C101,183.6,101.3,183.4,101.5,183.4z"/>
	<path id="Rectangle_Copy_5-2" class="st8" d="M167.4,127.6h23.5c0.3,0,0.5,0.2,0.5,0.5v4.6c0,0.3-0.2,0.5-0.5,0.5h-23.5
		c-0.3,0-0.5-0.2-0.5-0.5v-4.6C166.9,127.8,167.1,127.6,167.4,127.6z"/>
	<path id="Rectangle_Copy_6-3" class="st8" d="M203.1,127.6h23.5c0.3,0,0.5,0.2,0.5,0.5v4.6c0,0.3-0.2,0.5-0.5,0.5h-23.5
		c-0.3,0-0.5-0.2-0.5-0.5v-4.6C202.6,127.8,202.8,127.6,203.1,127.6z"/>
	<rect id="Rectangle_Copy_17" x="221.8" y="169.2" class="st19" width="68" height="9"/>
	<rect id="Rectangle_Copy_20" x="221.8" y="214.2" class="st19" width="45" height="9"/>
	<rect id="Rectangle_Copy_23" x="221.8" y="259.2" class="st19" width="72" height="8"/>
	<rect id="Rectangle_Copy_18" x="221.8" y="179.2" class="st9" width="81" height="8"/>
	<rect id="Rectangle_Copy_21" x="221.8" y="224.2" class="st9" width="53" height="8"/>
	<rect id="Rectangle_Copy_24" x="221.8" y="268.2" class="st9" width="61" height="8"/>
	<rect id="Rectangle_Copy_19" x="221.8" y="188.2" class="st20" width="61" height="8"/>
	<rect id="Rectangle_Copy_22" x="221.8" y="233.2" class="st20" width="61" height="8"/>
	<rect id="Rectangle_Copy_25" x="221.8" y="277.2" class="st20" width="81" height="8"/>
	<path id="Line_3-2" class="st14" d="M221.4,164.6l0,126.4"/>
	<g id="Group_17_Copy_2" transform="translate(20.969 111.13)">
		<g id="Rectangle-14">
			<path class="st1" d="M27.3-0.1h45.8c1.1,0,2,0.9,2,2v21.7c0,1.1-0.9,2-2,2H27.3c-1.1,0-2-0.9-2-2V1.9C25.3,0.8,26.2-0.1,27.3-0.1
				z"/>
			<path class="st21" d="M27.3,0.4h45.8c0.8,0,1.5,0.7,1.5,1.5v21.7c0,0.8-0.7,1.5-1.5,1.5H27.3c-0.8,0-1.5-0.7-1.5-1.5V1.9
				C25.8,1.1,26.5,0.4,27.3,0.4z"/>
		</g>
	</g>
	<g id="Group_7-2" transform="translate(20.969 131.066)">
		<path id="Fill_1" class="st1" d="M50.1,19L50.1,19c-1,1.8-3,3.7-5.2,3.8c-0.1,0-0.1,0-0.2,0h-5.1h-0.6h-0.6c-1,0-2-0.1-2.9-0.3
			c-1.1-0.4-2.1-1.1-2.9-2c-0.2-0.2-0.4-0.4-0.7-0.6L26.9,15c-1.1-1-1.2-2.8-0.1-3.9c0,0,0.1-0.1,0.1-0.1l0.1-0.1
			c1.2-1.1,3-1.1,4.2,0c0.1,0.1,0.3,0.1,0.4,0.1c0.1-0.1,0.2-0.2,0.2-0.3V2.9C32,1.6,33,0.6,34.3,0.7c1,0,1.9,0.8,2.1,1.8v1.7
			c0,0,0,0.1,0,0.1l0,0.1v0.2c0,0.2,0.2,0.4,0.4,0.4c0.2,0,0.4-0.2,0.4-0.4V2.9c0-0.1,0-0.3,0-0.4V2.1c0.1-1.3,1.1-2.2,2.4-2.2
			c1.2,0.1,2.1,1,2.2,2.2V5c0,0.1,0,0.2,0.1,0.3c0.1,0.2,0.3,0.3,0.5,0.2c0.1-0.1,0.2-0.2,0.2-0.3V2.8c0-1.1,0.9-1.9,2-1.9
			c1,0,1.8,0.8,1.9,1.9v1.4c0,0.2,0,0.3-0.1,0.5v1.1c0,0.1,0.1,0.3,0.2,0.3c0.2,0.1,0.4,0.1,0.5,0c0.1-0.1,0.1-0.2,0.1-0.2l0-1.5
			c0.2-0.7,0.9-1.2,1.6-1.2c0.9,0,1.6,0.7,1.7,1.6v5.9c0,0,0,0.1,0,0.1v5.5c0,0.2,0,0.3,0,0.5C50.6,17.5,50.5,18.3,50.1,19"/>
		<path id="Fill_1-2" class="st22" d="M38.4,23.5c-1,0-2.1-0.1-3.1-0.3c-1.2-0.4-2.4-1.2-3.2-2.2c-0.2-0.2-0.4-0.4-0.6-0.6l-5-4.7
			c-1.3-1.2-1.4-3.3-0.2-4.6c0.1-0.1,0.1-0.1,0.2-0.2l0.1-0.1c0.7-0.7,1.6-1,2.6-1c0.6,0,1.1,0.1,1.6,0.3l0.3,0.2V3.5
			c0.1-1.6,1.4-2.9,3-2.8c0.8,0,1.6,0.3,2.1,0.8l0.2,0.2l0.2-0.3c0.8-1.5,2.7-2,4.2-1.2c0.5,0.3,0.9,0.7,1.2,1.3l0.1,0.3l0.2-0.2
			c0.5-0.5,1.2-0.7,1.9-0.7c1.3,0,2.5,0.9,2.7,2.3l0,0.4l0.3-0.2C47.7,3.1,48.2,3,48.6,3c1.3,0,2.3,1,2.4,2.2v4.4c0,0,0,0.1,0,0.1
			v6.5c0,0.2,0,0.3,0,0.5h0.2l-0.2,0c0.1,0.9-0.1,1.8-0.5,2.6c-1,1.8-3.1,3.9-5.8,4.1h-0.1h-0.1L38.4,23.5z M29.1,10.5
			c-0.8,0-1.5,0.3-2.1,0.8l-0.1,0.1c-1.1,1-1.1,2.6-0.2,3.7c0.1,0.1,0.1,0.1,0.2,0.2l5,4.7c0.2,0.2,0.4,0.4,0.6,0.6
			c0.8,0.9,1.7,1.6,2.8,2c0.9,0.2,1.9,0.3,2.9,0.3h0.6h0.6h5c0,0,0.1,0,0.1,0h0.1c2.2-0.1,4.1-2,5.1-3.7c0.3-0.7,0.5-1.5,0.4-2.3
			c0-0.2,0-0.3,0-0.5V11c0,0,0-0.1,0-0.1V5.3c0-0.9-0.8-1.6-1.6-1.5c-0.7,0-1.4,0.5-1.6,1.2l0,1.4c0,0.2-0.2,0.4-0.4,0.4
			c-0.1,0-0.2,0-0.3-0.1c-0.1-0.1-0.2-0.2-0.2-0.3v-1c0-0.2,0-0.3,0.1-0.5V3.4c-0.1-1.1-1-1.9-2-1.8c-1,0.1-1.7,0.8-1.8,1.8v2.2
			c0,0.2-0.2,0.4-0.4,0.3c-0.1,0-0.3-0.1-0.4-0.2c-0.1-0.1-0.1-0.2-0.1-0.3V2.7c-0.1-1.2-1.2-2.2-2.4-2.1c-1.1,0.1-2,1-2.1,2.1v0.4
			c0,0.1,0,0.3,0,0.4v1.7c0,0.2-0.2,0.4-0.4,0.4c-0.2,0-0.3-0.2-0.4-0.4V5l0-0.1c0,0,0-0.1,0-0.1V3.1c-0.2-1-1.2-1.8-2.2-1.7
			c-1.2,0-2.2,0.9-2.3,2.1v7.6c0,0.1-0.1,0.3-0.2,0.3c0,0-0.1,0-0.1,0c-0.1,0-0.2,0-0.3-0.1C30.6,10.8,29.9,10.5,29.1,10.5z"/>
	</g>
	<g class="st12">
		<path class="st22" d="M67.1,125.3l-0.6-1.5h-3.4l-0.6,1.5h-0.9l2.7-6.7h1l2.7,6.7H67.1z M64.8,119.4l-1.4,3.7h2.9L64.8,119.4z"/>
		<path class="st22" d="M69.2,126c0.4,0.5,0.9,0.7,1.6,0.7c0.8,0,1.5-0.4,1.5-1.4v-0.7c-0.4,0.5-0.9,0.9-1.6,0.9
			c-1.3,0-2.1-0.9-2.1-2.5c0-1.5,0.9-2.5,2.1-2.5c0.6,0,1.2,0.3,1.6,0.8v-0.7h0.7v4.7c0,1.6-1.1,2.1-2.3,2.1c-0.8,0-1.4-0.2-1.9-0.7
			L69.2,126z M72.3,121.8c-0.3-0.4-0.8-0.8-1.4-0.8c-1,0-1.5,0.8-1.5,1.8c0,1.1,0.6,1.8,1.5,1.8c0.6,0,1.2-0.4,1.4-0.8V121.8z"/>
		<path class="st22" d="M76.7,120.3c1.5,0,2.3,1.1,2.3,2.6v0.2h-3.9c0.1,0.9,0.7,1.7,1.7,1.7c0.5,0,1.1-0.2,1.5-0.6l0.4,0.5
			c-0.5,0.5-1.1,0.7-1.9,0.7c-1.4,0-2.5-1-2.5-2.5C74.3,121.5,75.3,120.3,76.7,120.3z M75.1,122.6h3.2c0-0.7-0.5-1.6-1.6-1.6
			C75.6,121,75.1,121.8,75.1,122.6z"/>
	</g>
	<path id="Combined_Shape-2" class="st9" d="M379.4,206.8L379.4,206.8l-0.1-9.9h0.2c3.5,0.1,6.4-2.7,6.5-6.2c0-1.7-0.7-3.2-1.9-4.4
		c-1.2-1.2-2.9-1.8-4.5-1.8v-10c4.4,0,8.6,1.7,11.8,4.7c6.3,6,6.6,15.9,0.7,22.2c-0.2,0.2-0.4,0.5-0.7,0.7
		C388.1,205.2,383.8,206.9,379.4,206.8z"/>
	<path id="Line_2" class="st23" d="M379.9,174.3V207"/>
</g>
</svg>
