<svg width="300" height="241" viewBox="0 0 300 241" fill="none" xmlns="http://www.w3.org/2000/svg">
<path fill-rule="evenodd" clip-rule="evenodd" d="M269.329 2.5C269.605 2.5 269.855 2.61193 270.036 2.79289C270.217 2.97386 270.329 3.22386 270.329 3.5V169.269H30.4045V3.5C30.4045 3.22386 30.5165 2.97386 30.6974 2.79289C30.8784 2.61193 31.1284 2.5 31.4045 2.5H269.329Z" fill="#F9F9F9" stroke="#D3D3D3" stroke-width="4"/>
<path d="M262.775 9H38.7749C38.2226 9 37.7749 9.44772 37.7749 10V161C37.7749 161.552 38.2226 162 38.7749 162H262.775C263.327 162 263.775 161.552 263.775 161V10C263.775 9.44772 263.327 9 262.775 9Z" fill="#F1F1F1" stroke="#E5E5E5"/>
<path d="M164.8 99.0661V63.0738H174.882V99.0661H164.8Z" fill="#0062A6"/>
<path d="M204.768 99.2375V70.7864H214.85V99.2375H204.768Z" fill="#0062A6"/>
<path d="M174.522 99.2375V57.7607H184.604V99.2375H174.522Z" fill="#722580"/>
<path d="M214.85 99.2375V67.3586H224.933V99.2375H214.85Z" fill="#722580"/>
<path d="M184.244 99.0661V64.445H194.326V99.0661H184.244Z" fill="#107F65"/>
<path d="M224.573 99.0661V64.445H234.655V99.0661H224.573Z" fill="#107F65"/>
<path d="M248.636 26.4585H56.197V37.7509H248.636V26.4585Z" fill="#989898"/>
<path d="M263.161 9.3808H38.4777C37.9254 9.3808 37.4777 9.82851 37.4777 10.3808V21.0253C37.4777 21.5776 37.9254 22.0253 38.4777 22.0253H263.161C263.713 22.0253 264.161 21.5776 264.161 21.0253V10.3808C264.161 9.82851 263.713 9.3808 263.161 9.3808Z" fill="#E5E5E5"/>
<path d="M136.619 54.7979H56.197V60.2674H136.619V54.7979Z" fill="#D8D8D8"/>
<path d="M107.563 66.6485H56.197V72.118H107.563V66.6485Z" fill="#D8D8D8"/>
<path d="M107.563 90.3496H56.197V95.8191H107.563V90.3496Z" fill="#D8D8D8"/>
<path d="M126.242 78.499H56.197V83.9685H126.242V78.499Z" fill="#D8D8D8"/>
<path d="M241.779 116.33H56.197V121.799H241.779V116.33Z" fill="#D8D8D8"/>
<path d="M174.73 128.18H56.197V133.65H174.73V128.18Z" fill="#D8D8D8"/>
<path d="M217.833 140.031H56.197V145.5H217.833V140.031Z" fill="#D8D8D8"/>
<path fill-rule="evenodd" clip-rule="evenodd" d="M10.2749 170.083H289.275C290.379 170.083 291.275 170.979 291.275 172.083V180.5C291.275 183.261 289.036 185.5 286.275 185.5H13.2749C10.5135 185.5 8.2749 183.261 8.2749 180.5V172.083C8.2749 170.979 9.17033 170.083 10.2749 170.083Z" fill="#D3D3D3"/>
<path d="M264.765 209.718C283.54 209.718 298.76 194.498 298.76 175.723C298.76 156.948 283.54 141.728 264.765 141.728C245.99 141.728 230.77 156.948 230.77 175.723C230.77 194.498 245.99 209.718 264.765 209.718Z" fill="white" stroke="#D3D3D3"/>
<path fill-rule="evenodd" clip-rule="evenodd" d="M280.422 191.126H250.188C248.798 191.124 247.666 189.992 247.664 188.602V166.414L280.422 166.415C281.812 166.415 282.944 167.547 282.946 168.937V188.603C282.944 189.992 281.812 191.124 280.422 191.126ZM259.409 161.859L262.195 165.17H247.664V161.859H259.409ZM280.422 165.17H263.823L260.177 160.835C260.057 160.695 259.883 160.614 259.7 160.614H247.041C246.876 160.614 246.72 160.678 246.601 160.797C246.484 160.915 246.419 161.071 246.419 161.238V188.602C246.42 190.677 248.111 192.368 250.188 192.371H280.422C282.498 192.368 284.19 190.677 284.191 188.602V168.937C284.19 166.861 282.498 165.171 280.422 165.17Z" fill="#722580"/>
<path d="M264.765 154.678C274.6 154.678 282.572 146.706 282.572 136.871C282.572 127.037 274.6 119.064 264.765 119.064C254.931 119.064 246.958 127.037 246.958 136.871C246.958 146.706 254.931 154.678 264.765 154.678Z" fill="white" stroke="#D3D3D3"/>
<mask id="mask0_21_1346" style="mask-type:luminance" maskUnits="userSpaceOnUse" x="255" y="129" width="20" height="5">
<path d="M255.052 129.468H274.248V133.554H255.052V129.468Z" fill="white"/>
</mask>
<g mask="url(#mask0_21_1346)">
<path fill-rule="evenodd" clip-rule="evenodd" d="M270.615 129.468H258.686C256.682 129.468 255.052 131.092 255.052 133.089C255.052 133.346 255.261 133.554 255.519 133.554C255.777 133.554 255.986 133.346 255.986 133.089C255.986 131.606 257.197 130.399 258.686 130.399H270.615C272.103 130.399 273.314 131.606 273.314 133.089C273.314 133.346 273.523 133.554 273.781 133.554C274.039 133.554 274.248 133.346 274.248 133.089C274.248 131.092 272.619 129.468 270.615 129.468Z" fill="#444444"/>
</g>
<path fill-rule="evenodd" clip-rule="evenodd" d="M264.607 132.961C264.43 132.803 264.166 132.812 264.001 132.985L259.926 137.245C259.75 137.429 259.749 137.727 259.924 137.912C260.099 138.096 260.383 138.096 260.558 137.913L263.867 134.453V144.739C263.867 144.999 264.068 145.21 264.315 145.21C264.563 145.21 264.764 144.999 264.764 144.739V134.341L268.767 137.937C268.851 138.014 268.955 138.05 269.058 138.05C269.185 138.05 269.311 137.994 269.399 137.885C269.56 137.687 269.538 137.39 269.35 137.221L264.607 132.961Z" fill="#444444"/>
<path d="M287.462 205.401H242.068C241.342 205.401 240.753 206.367 240.753 207.559V237.777C240.753 238.969 241.342 239.936 242.068 239.936H287.462C288.189 239.936 288.778 238.969 288.778 237.777V207.559C288.778 206.367 288.189 205.401 287.462 205.401Z" fill="#F1F1F1" stroke="#BBBBBB"/>
<path d="M251.318 227.416V216.744H255.606C256.139 216.744 256.614 216.829 257.03 217C257.446 217.171 257.792 217.405 258.07 217.704C258.358 217.992 258.576 218.333 258.726 218.728C258.875 219.112 258.95 219.523 258.95 219.96C258.95 220.397 258.875 220.813 258.726 221.208C258.576 221.592 258.358 221.933 258.07 222.232C257.782 222.52 257.43 222.749 257.014 222.92C256.598 223.091 256.128 223.176 255.606 223.176H252.646V227.416H251.318ZM255.446 221.992C256.086 221.992 256.598 221.805 256.982 221.432C257.376 221.059 257.574 220.568 257.574 219.96C257.574 219.352 257.376 218.861 256.982 218.488C256.598 218.115 256.086 217.928 255.446 217.928H252.646V221.992H255.446ZM260.708 227.416V216.744H264.356C265.188 216.744 265.94 216.883 266.612 217.16C267.284 217.427 267.855 217.8 268.324 218.28C268.804 218.76 269.172 219.325 269.428 219.976C269.695 220.627 269.828 221.331 269.828 222.088C269.828 222.845 269.695 223.549 269.428 224.2C269.172 224.851 268.804 225.416 268.324 225.896C267.855 226.365 267.284 226.739 266.612 227.016C265.94 227.283 265.188 227.416 264.356 227.416H260.708ZM264.356 226.232C265.007 226.232 265.583 226.125 266.084 225.912C266.596 225.688 267.028 225.389 267.38 225.016C267.732 224.643 267.999 224.205 268.18 223.704C268.362 223.203 268.452 222.664 268.452 222.088C268.452 221.512 268.362 220.973 268.18 220.472C267.999 219.96 267.732 219.517 267.38 219.144C267.039 218.771 266.612 218.477 266.1 218.264C265.599 218.04 265.018 217.928 264.356 217.928H262.036V226.232H264.356ZM271.912 227.416V216.744H278.904V217.928H273.24V221.368H278.792V222.552H273.24V227.416H271.912Z" fill="#6D7278"/>
<path d="M34.7847 209.718C53.5597 209.718 68.7798 194.498 68.7798 175.723C68.7798 156.948 53.5597 141.728 34.7847 141.728C16.0097 141.728 0.789551 156.948 0.789551 175.723C0.789551 194.498 16.0097 209.718 34.7847 209.718Z" fill="white" stroke="#D3D3D3"/>
<path fill-rule="evenodd" clip-rule="evenodd" d="M49.9023 191.126H19.6678C18.2779 191.124 17.1461 189.992 17.144 188.602V166.414L49.9023 166.415C51.2922 166.415 52.424 167.547 52.4261 168.937V188.603C52.424 189.992 51.2922 191.124 49.9023 191.126ZM28.8887 161.859L31.6749 165.17H17.144V161.859H28.8887ZM49.9016 165.17H33.3029L29.6566 160.835C29.5372 160.695 29.3627 160.614 29.1797 160.614H16.5212C16.3561 160.614 16.1995 160.678 16.0808 160.797C15.9636 160.915 15.8985 161.071 15.8985 161.238V188.602C15.8999 190.677 17.5908 192.368 19.6678 192.371H49.9016C51.9778 192.368 53.6694 190.677 53.6709 188.602V168.937C53.6694 166.861 51.9778 165.171 49.9016 165.17Z" fill="#107F65"/>
<path d="M34.7847 154.678C44.6192 154.678 52.5917 146.706 52.5917 136.871C52.5917 127.037 44.6192 119.064 34.7847 119.064C24.9502 119.064 16.9777 127.037 16.9777 136.871C16.9777 146.706 24.9502 154.678 34.7847 154.678Z" fill="white" stroke="#D3D3D3"/>
<mask id="mask1_21_1346" style="mask-type:luminance" maskUnits="userSpaceOnUse" x="25" y="129" width="20" height="5">
<path d="M25.1869 129.468H44.3826V133.554H25.1869V129.468Z" fill="white"/>
</mask>
<g mask="url(#mask1_21_1346)">
<path fill-rule="evenodd" clip-rule="evenodd" d="M40.7493 129.468H28.8205C26.8162 129.468 25.1868 131.092 25.1868 133.089C25.1868 133.346 25.3961 133.554 25.6537 133.554C25.9117 133.554 26.1206 133.346 26.1206 133.089C26.1206 131.606 27.3318 130.399 28.8205 130.399H40.7493C42.2376 130.399 43.4488 131.606 43.4488 133.089C43.4488 133.346 43.658 133.554 43.9157 133.554C44.1737 133.554 44.3826 133.346 44.3826 133.089C44.3826 131.092 42.7532 129.468 40.7493 129.468Z" fill="#444444"/>
</g>
<path fill-rule="evenodd" clip-rule="evenodd" d="M34.7419 132.961C34.5646 132.803 34.3007 132.812 34.1352 132.985L30.061 137.245C29.8851 137.429 29.8838 137.727 30.0587 137.912C30.2337 138.096 30.5173 138.096 30.6926 137.913L34.0018 134.453V144.739C34.0018 144.999 34.2026 145.21 34.4498 145.21C34.6974 145.21 34.8982 144.999 34.8982 144.739V134.341L38.9018 137.937C38.9858 138.014 39.0898 138.05 39.1925 138.05C39.3198 138.05 39.446 137.994 39.5333 137.885C39.6946 137.687 39.6723 137.39 39.4846 137.221L34.7419 132.961Z" fill="#444444"/>
<path d="M59.4833 205.401H10.086C9.29528 205.401 8.65424 206.367 8.65424 207.559V237.777C8.65424 238.969 9.29528 239.936 10.086 239.936H59.4833C60.2741 239.936 60.9151 238.969 60.9151 237.777V207.559C60.9151 206.367 60.2741 205.401 59.4833 205.401Z" fill="#F1F1F1" stroke="#BBBBBB"/>
<path d="M24.2056 227.168L20.7976 222.624L17.3896 227.168H15.7736L19.9336 221.696L16.0136 216.496H17.6296L20.7976 220.768L23.9496 216.496H25.5656L21.6616 221.68L25.8056 227.168H24.2056ZM27.2671 227.168V216.496H28.5951V225.984H33.5551V227.168H27.2671ZM38.8794 227.36C37.9407 227.36 37.1354 227.206 36.4634 226.896C35.7914 226.576 35.2314 226.166 34.7834 225.664L35.5674 224.656C35.738 224.848 35.9407 225.04 36.1754 225.232C36.41 225.414 36.666 225.574 36.9434 225.712C37.2314 225.851 37.5407 225.963 37.8714 226.048C38.202 226.134 38.554 226.176 38.9274 226.176C39.4074 226.176 39.8074 226.118 40.1274 226C40.4474 225.883 40.7034 225.739 40.8954 225.568C41.0874 225.387 41.226 225.19 41.3114 224.976C41.3967 224.752 41.4394 224.539 41.4394 224.336C41.4394 223.995 41.3487 223.712 41.1674 223.488C40.986 223.264 40.746 223.078 40.4474 222.928C40.1594 222.768 39.8234 222.64 39.4394 222.544C39.066 222.438 38.6767 222.331 38.2714 222.224C37.8767 222.107 37.4874 221.979 37.1034 221.84C36.73 221.702 36.394 221.526 36.0954 221.312C35.8074 221.088 35.5727 220.816 35.3914 220.496C35.21 220.176 35.1194 219.776 35.1194 219.296C35.1194 218.859 35.21 218.459 35.3914 218.096C35.5834 217.734 35.8394 217.424 36.1594 217.168C36.49 216.902 36.8794 216.699 37.3274 216.56C37.7754 216.411 38.2607 216.336 38.7834 216.336C39.6047 216.336 40.33 216.464 40.9594 216.72C41.5887 216.976 42.1274 217.344 42.5754 217.824L41.7754 218.8C41.37 218.352 40.9007 218.027 40.3674 217.824C39.834 217.622 39.274 217.52 38.6874 217.52C38.0474 217.52 37.5194 217.675 37.1034 217.984C36.698 218.294 36.4954 218.704 36.4954 219.216C36.4954 219.515 36.586 219.76 36.7674 219.952C36.9487 220.144 37.1834 220.31 37.4714 220.448C37.77 220.587 38.106 220.71 38.4794 220.816C38.8634 220.912 39.2527 221.019 39.6474 221.136C40.0527 221.243 40.442 221.371 40.8154 221.52C41.1994 221.67 41.5354 221.862 41.8234 222.096C42.122 222.331 42.362 222.619 42.5434 222.96C42.7247 223.302 42.8154 223.723 42.8154 224.224C42.8154 224.608 42.746 224.992 42.6074 225.376C42.4687 225.75 42.2394 226.086 41.9194 226.384C41.61 226.672 41.2047 226.907 40.7034 227.088C40.202 227.27 39.594 227.36 38.8794 227.36ZM52.1744 227.168L48.7664 222.624L45.3584 227.168H43.7424L47.9024 221.696L43.9824 216.496H45.5984L48.7664 220.768L51.9184 216.496H53.5344L49.6304 221.68L53.7744 227.168H52.1744Z" fill="#6D7278"/>
<path d="M149.775 210.797C168.55 210.797 183.77 195.577 183.77 176.802C183.77 158.027 168.55 142.807 149.775 142.807C131 142.807 115.78 158.027 115.78 176.802C115.78 195.577 131 210.797 149.775 210.797Z" fill="white" stroke="#D3D3D3"/>
<path fill-rule="evenodd" clip-rule="evenodd" d="M164.893 191.126H134.658C133.268 191.124 132.136 189.992 132.134 188.602V166.414L164.893 166.415C166.282 166.415 167.414 167.547 167.416 168.937V188.603C167.414 189.992 166.282 191.124 164.893 191.126ZM143.879 161.859L146.665 165.17H132.134V161.859H143.879ZM164.892 165.17H148.293L144.647 160.835C144.527 160.695 144.353 160.614 144.17 160.614H131.511C131.346 160.614 131.19 160.678 131.071 160.797C130.954 160.915 130.889 161.071 130.889 161.238V188.602C130.89 190.677 132.581 192.368 134.658 192.371H164.892C166.968 192.368 168.66 190.677 168.661 188.602V168.937C168.66 166.861 166.968 165.171 164.892 165.17Z" fill="#0062A6"/>
<path d="M149.775 154.678C159.609 154.678 167.582 146.706 167.582 136.871C167.582 127.037 159.609 119.064 149.775 119.064C139.94 119.064 131.968 127.037 131.968 136.871C131.968 146.706 139.94 154.678 149.775 154.678Z" fill="white" stroke="#D3D3D3"/>
<mask id="mask2_21_1346" style="mask-type:luminance" maskUnits="userSpaceOnUse" x="140" y="129" width="20" height="5">
<path d="M140.177 129.468H159.373V133.554H140.177V129.468Z" fill="white"/>
</mask>
<g mask="url(#mask2_21_1346)">
<path fill-rule="evenodd" clip-rule="evenodd" d="M155.739 129.468H143.811C141.806 129.468 140.177 131.092 140.177 133.089C140.177 133.346 140.386 133.554 140.644 133.554C140.902 133.554 141.111 133.346 141.111 133.089C141.111 131.606 142.322 130.399 143.811 130.399H155.739C157.228 130.399 158.439 131.606 158.439 133.089C158.439 133.346 158.648 133.554 158.906 133.554C159.164 133.554 159.373 133.346 159.373 133.089C159.373 131.092 157.743 129.468 155.739 129.468Z" fill="#444444"/>
</g>
<path fill-rule="evenodd" clip-rule="evenodd" d="M149.732 132.961C149.555 132.803 149.291 132.812 149.125 132.985L145.051 137.245C144.875 137.429 144.874 137.727 145.049 137.912C145.224 138.096 145.507 138.096 145.683 137.913L148.992 134.453V144.739C148.992 144.999 149.193 145.21 149.44 145.21C149.688 145.21 149.888 144.999 149.888 144.739V134.341L153.892 137.937C153.976 138.014 154.08 138.05 154.183 138.05C154.31 138.05 154.436 137.994 154.524 137.885C154.685 137.687 154.663 137.39 154.475 137.221L149.732 132.961Z" fill="#444444"/>
<path d="M178.146 205.401H121.404C120.496 205.401 119.759 206.367 119.759 207.559V237.777C119.759 238.969 120.496 239.936 121.404 239.936H178.146C179.054 239.936 179.79 238.969 179.79 237.777V207.559C179.79 206.367 179.054 205.401 178.146 205.401Z" fill="#F1F1F1" stroke="#BBBBBB"/>
<path d="M128.679 227.416V216.744H132.327C133.159 216.744 133.911 216.883 134.583 217.16C135.255 217.427 135.826 217.8 136.295 218.28C136.775 218.76 137.143 219.325 137.399 219.976C137.666 220.627 137.799 221.331 137.799 222.088C137.799 222.845 137.666 223.549 137.399 224.2C137.143 224.851 136.775 225.416 136.295 225.896C135.826 226.365 135.255 226.739 134.583 227.016C133.911 227.283 133.159 227.416 132.327 227.416H128.679ZM132.327 226.232C132.978 226.232 133.554 226.125 134.055 225.912C134.567 225.688 134.999 225.389 135.351 225.016C135.703 224.643 135.97 224.205 136.151 223.704C136.333 223.203 136.423 222.664 136.423 222.088C136.423 221.512 136.333 220.973 136.151 220.472C135.97 219.96 135.703 219.517 135.351 219.144C135.01 218.771 134.583 218.477 134.071 218.264C133.57 218.04 132.989 217.928 132.327 217.928H130.007V226.232H132.327ZM144.746 227.608C143.957 227.608 143.237 227.469 142.586 227.192C141.936 226.915 141.376 226.531 140.906 226.04C140.448 225.539 140.09 224.952 139.834 224.28C139.578 223.608 139.45 222.877 139.45 222.088C139.45 221.299 139.578 220.568 139.834 219.896C140.09 219.224 140.448 218.643 140.906 218.152C141.376 217.651 141.936 217.261 142.586 216.984C143.237 216.707 143.957 216.568 144.746 216.568C145.536 216.568 146.256 216.707 146.906 216.984C147.557 217.261 148.112 217.651 148.57 218.152C149.04 218.643 149.402 219.224 149.658 219.896C149.914 220.568 150.042 221.299 150.042 222.088C150.042 222.877 149.914 223.608 149.658 224.28C149.402 224.952 149.04 225.539 148.57 226.04C148.112 226.531 147.557 226.915 146.906 227.192C146.256 227.469 145.536 227.608 144.746 227.608ZM144.746 226.424C145.344 226.424 145.882 226.317 146.362 226.104C146.842 225.88 147.253 225.576 147.594 225.192C147.936 224.797 148.197 224.339 148.378 223.816C148.57 223.283 148.666 222.707 148.666 222.088C148.666 221.469 148.57 220.893 148.378 220.36C148.197 219.827 147.936 219.368 147.594 218.984C147.253 218.6 146.842 218.301 146.362 218.088C145.882 217.864 145.344 217.752 144.746 217.752C144.149 217.752 143.605 217.864 143.114 218.088C142.634 218.301 142.224 218.6 141.882 218.984C141.541 219.368 141.28 219.827 141.098 220.36C140.917 220.893 140.826 221.469 140.826 222.088C140.826 222.707 140.917 223.283 141.098 223.816C141.28 224.339 141.541 224.797 141.882 225.192C142.224 225.576 142.634 225.88 143.114 226.104C143.605 226.317 144.149 226.424 144.746 226.424ZM157.173 227.608C156.405 227.608 155.685 227.475 155.013 227.208C154.351 226.941 153.77 226.568 153.269 226.088C152.778 225.597 152.389 225.016 152.101 224.344C151.823 223.661 151.685 222.909 151.685 222.088C151.685 221.267 151.823 220.52 152.101 219.848C152.389 219.165 152.778 218.584 153.269 218.104C153.77 217.613 154.351 217.235 155.013 216.968C155.685 216.701 156.405 216.568 157.173 216.568C157.642 216.568 158.074 216.621 158.469 216.728C158.874 216.835 159.242 216.984 159.573 217.176C159.914 217.368 160.218 217.592 160.485 217.848C160.762 218.104 161.007 218.381 161.221 218.68L160.101 219.304C159.791 218.856 159.375 218.488 158.853 218.2C158.341 217.901 157.781 217.752 157.173 217.752C156.586 217.752 156.042 217.859 155.541 218.072C155.039 218.285 154.602 218.584 154.229 218.968C153.866 219.352 153.578 219.811 153.365 220.344C153.162 220.867 153.061 221.448 153.061 222.088C153.061 222.717 153.162 223.299 153.365 223.832C153.578 224.365 153.866 224.824 154.229 225.208C154.602 225.592 155.039 225.891 155.541 226.104C156.042 226.317 156.586 226.424 157.173 226.424C157.781 226.424 158.341 226.28 158.853 225.992C159.375 225.704 159.791 225.331 160.101 224.872L161.237 225.496C160.789 226.104 160.234 226.611 159.573 227.016C158.922 227.411 158.122 227.608 157.173 227.608ZM170.305 227.416L166.897 222.872L163.489 227.416H161.873L166.033 221.944L162.113 216.744H163.729L166.897 221.016L170.049 216.744H171.665L167.761 221.928L171.905 227.416H170.305Z" fill="#6D7278"/>
</svg>
