<svg width="323" height="267" viewBox="0 0 323 267" fill="none" xmlns="http://www.w3.org/2000/svg">
<path d="M219.75 86.5H1.75C1.19772 86.5 0.75 86.9477 0.75 87.5V265.5C0.75 266.052 1.19772 266.5 1.75 266.5H219.75C220.302 266.5 220.75 266.052 220.75 265.5V87.5C220.75 86.9477 220.302 86.5 219.75 86.5Z" fill="#F1F1F1" stroke="#E5E5E5"/>
<path d="M90.75 122H75.75C75.4739 122 75.25 122.224 75.25 122.5V129.5C75.25 129.776 75.4739 130 75.75 130H90.75C91.0261 130 91.25 129.776 91.25 129.5V122.5C91.25 122.224 91.0261 122 90.75 122Z" fill="#D3D3D3"/>
<path d="M141.75 122H126.75C126.474 122 126.25 122.224 126.25 122.5V129.5C126.25 129.776 126.474 130 126.75 130H141.75C142.026 130 142.25 129.776 142.25 129.5V122.5C142.25 122.224 142.026 122 141.75 122Z" fill="#D3D3D3"/>
<path d="M192.75 122H177.75C177.474 122 177.25 122.224 177.25 122.5V129.5C177.25 129.776 177.474 130 177.75 130H192.75C193.026 130 193.25 129.776 193.25 129.5V122.5C193.25 122.224 193.026 122 192.75 122Z" fill="#D3D3D3"/>
<path d="M90.75 143H75.75C75.4739 143 75.25 143.224 75.25 143.5V150.5C75.25 150.776 75.4739 151 75.75 151H90.75C91.0261 151 91.25 150.776 91.25 150.5V143.5C91.25 143.224 91.0261 143 90.75 143Z" fill="#D3D3D3"/>
<path d="M141.75 143H126.75C126.474 143 126.25 143.224 126.25 143.5V150.5C126.25 150.776 126.474 151 126.75 151H141.75C142.026 151 142.25 150.776 142.25 150.5V143.5C142.25 143.224 142.026 143 141.75 143Z" fill="#D3D3D3"/>
<path d="M192.75 143H177.75C177.474 143 177.25 143.224 177.25 143.5V150.5C177.25 150.776 177.474 151 177.75 151H192.75C193.026 151 193.25 150.776 193.25 150.5V143.5C193.25 143.224 193.026 143 192.75 143Z" fill="#D3D3D3"/>
<path d="M90.75 162H75.75C75.4739 162 75.25 162.224 75.25 162.5V169.5C75.25 169.776 75.4739 170 75.75 170H90.75C91.0261 170 91.25 169.776 91.25 169.5V162.5C91.25 162.224 91.0261 162 90.75 162Z" fill="#D3D3D3"/>
<path d="M141.75 162H126.75C126.474 162 126.25 162.224 126.25 162.5V169.5C126.25 169.776 126.474 170 126.75 170H141.75C142.026 170 142.25 169.776 142.25 169.5V162.5C142.25 162.224 142.026 162 141.75 162Z" fill="#D3D3D3"/>
<path d="M192.75 162H177.75C177.474 162 177.25 162.224 177.25 162.5V169.5C177.25 169.776 177.474 170 177.75 170H192.75C193.026 170 193.25 169.776 193.25 169.5V162.5C193.25 162.224 193.026 162 192.75 162Z" fill="#D3D3D3"/>
<path d="M90.75 182H75.75C75.4739 182 75.25 182.224 75.25 182.5V189.5C75.25 189.776 75.4739 190 75.75 190H90.75C91.0261 190 91.25 189.776 91.25 189.5V182.5C91.25 182.224 91.0261 182 90.75 182Z" fill="#D3D3D3"/>
<path d="M90.75 201H75.75C75.4739 201 75.25 201.224 75.25 201.5V208.5C75.25 208.776 75.4739 209 75.75 209H90.75C91.0261 209 91.25 208.776 91.25 208.5V201.5C91.25 201.224 91.0261 201 90.75 201Z" fill="#D3D3D3"/>
<path d="M90.75 222H75.75C75.4739 222 75.25 222.224 75.25 222.5V229.5C75.25 229.776 75.4739 230 75.75 230H90.75C91.0261 230 91.25 229.776 91.25 229.5V222.5C91.25 222.224 91.0261 222 90.75 222Z" fill="#D3D3D3"/>
<path d="M90.75 243H75.75C75.4739 243 75.25 243.224 75.25 243.5V250.5C75.25 250.776 75.4739 251 75.75 251H90.75C91.0261 251 91.25 250.776 91.25 250.5V243.5C91.25 243.224 91.0261 243 90.75 243Z" fill="#D3D3D3"/>
<path d="M141.75 182H126.75C126.474 182 126.25 182.224 126.25 182.5V189.5C126.25 189.776 126.474 190 126.75 190H141.75C142.026 190 142.25 189.776 142.25 189.5V182.5C142.25 182.224 142.026 182 141.75 182Z" fill="#D3D3D3"/>
<path d="M141.75 201H126.75C126.474 201 126.25 201.224 126.25 201.5V208.5C126.25 208.776 126.474 209 126.75 209H141.75C142.026 209 142.25 208.776 142.25 208.5V201.5C142.25 201.224 142.026 201 141.75 201Z" fill="#D3D3D3"/>
<path d="M141.75 222H126.75C126.474 222 126.25 222.224 126.25 222.5V229.5C126.25 229.776 126.474 230 126.75 230H141.75C142.026 230 142.25 229.776 142.25 229.5V222.5C142.25 222.224 142.026 222 141.75 222Z" fill="#D3D3D3"/>
<path d="M141.75 243H126.75C126.474 243 126.25 243.224 126.25 243.5V250.5C126.25 250.776 126.474 251 126.75 251H141.75C142.026 251 142.25 250.776 142.25 250.5V243.5C142.25 243.224 142.026 243 141.75 243Z" fill="#D3D3D3"/>
<path d="M192.75 182H177.75C177.474 182 177.25 182.224 177.25 182.5V189.5C177.25 189.776 177.474 190 177.75 190H192.75C193.026 190 193.25 189.776 193.25 189.5V182.5C193.25 182.224 193.026 182 192.75 182Z" fill="#D3D3D3"/>
<path d="M192.75 201H177.75C177.474 201 177.25 201.224 177.25 201.5V208.5C177.25 208.776 177.474 209 177.75 209H192.75C193.026 209 193.25 208.776 193.25 208.5V201.5C193.25 201.224 193.026 201 192.75 201Z" fill="#D3D3D3"/>
<path d="M192.75 222H177.75C177.474 222 177.25 222.224 177.25 222.5V229.5C177.25 229.776 177.474 230 177.75 230H192.75C193.026 230 193.25 229.776 193.25 229.5V222.5C193.25 222.224 193.026 222 192.75 222Z" fill="#D3D3D3"/>
<path d="M192.75 243H177.75C177.474 243 177.25 243.224 177.25 243.5V250.5C177.25 250.776 177.474 251 177.75 251H192.75C193.026 251 193.25 250.776 193.25 250.5V243.5C193.25 243.224 193.026 243 192.75 243Z" fill="#D3D3D3"/>
<path d="M99.75 102H65.75C65.4739 102 65.25 102.224 65.25 102.5V109.5C65.25 109.776 65.4739 110 65.75 110H99.75C100.026 110 100.25 109.776 100.25 109.5V102.5C100.25 102.224 100.026 102 99.75 102Z" fill="#107F65"/>
<path d="M55.75 122H21.75C21.4739 122 21.25 122.224 21.25 122.5V129.5C21.25 129.776 21.4739 130 21.75 130H55.75C56.0261 130 56.25 129.776 56.25 129.5V122.5C56.25 122.224 56.0261 122 55.75 122Z" fill="#107F65"/>
<path d="M55.75 143H21.75C21.4739 143 21.25 143.224 21.25 143.5V150.5C21.25 150.776 21.4739 151 21.75 151H55.75C56.0261 151 56.25 150.776 56.25 150.5V143.5C56.25 143.224 56.0261 143 55.75 143Z" fill="#107F65"/>
<path d="M55.75 162H21.75C21.4739 162 21.25 162.224 21.25 162.5V169.5C21.25 169.776 21.4739 170 21.75 170H55.75C56.0261 170 56.25 169.776 56.25 169.5V162.5C56.25 162.224 56.0261 162 55.75 162Z" fill="#107F65"/>
<path d="M55.75 182H21.75C21.4739 182 21.25 182.224 21.25 182.5V189.5C21.25 189.776 21.4739 190 21.75 190H55.75C56.0261 190 56.25 189.776 56.25 189.5V182.5C56.25 182.224 56.0261 182 55.75 182Z" fill="#107F65"/>
<path d="M55.75 201H21.75C21.4739 201 21.25 201.224 21.25 201.5V208.5C21.25 208.776 21.4739 209 21.75 209H55.75C56.0261 209 56.25 208.776 56.25 208.5V201.5C56.25 201.224 56.0261 201 55.75 201Z" fill="#107F65"/>
<path d="M55.75 222H21.75C21.4739 222 21.25 222.224 21.25 222.5V229.5C21.25 229.776 21.4739 230 21.75 230H55.75C56.0261 230 56.25 229.776 56.25 229.5V222.5C56.25 222.224 56.0261 222 55.75 222Z" fill="#107F65"/>
<path d="M55.75 243H21.75C21.4739 243 21.25 243.224 21.25 243.5V250.5C21.25 250.776 21.4739 251 21.75 251H55.75C56.0261 251 56.25 250.776 56.25 250.5V243.5C56.25 243.224 56.0261 243 55.75 243Z" fill="#107F65"/>
<path d="M149.75 102H115.75C115.474 102 115.25 102.224 115.25 102.5V109.5C115.25 109.776 115.474 110 115.75 110H149.75C150.026 110 150.25 109.776 150.25 109.5V102.5C150.25 102.224 150.026 102 149.75 102Z" fill="#107F65"/>
<path d="M200.75 102H166.75C166.474 102 166.25 102.224 166.25 102.5V109.5C166.25 109.776 166.474 110 166.75 110H200.75C201.026 110 201.25 109.776 201.25 109.5V102.5C201.25 102.224 201.026 102 200.75 102Z" fill="#107F65"/>
<path d="M235.25 214H167.25C166.698 214 166.25 214.448 166.25 215V257C166.25 257.552 166.698 258 167.25 258H235.25C235.802 258 236.25 257.552 236.25 257V215C236.25 214.448 235.802 214 235.25 214Z" fill="#107F65"/>
<path d="M185.55 240.2C185.243 240.2 184.983 240.093 184.77 239.88C184.557 239.667 184.45 239.407 184.45 239.1C184.45 238.793 184.557 238.533 184.77 238.32C184.983 238.107 185.243 238 185.55 238C185.857 238 186.117 238.107 186.33 238.32C186.543 238.533 186.65 238.793 186.65 239.1C186.65 239.407 186.543 239.667 186.33 239.88C186.117 240.093 185.857 240.2 185.55 240.2ZM195.619 240L192.719 236.04L189.819 240H188.099L191.799 235.04L188.299 230.34H190.039L192.719 234.02L195.399 230.34H197.139L193.639 235.04L197.359 240H195.619ZM199.086 240V226.66H200.586V240H199.086ZM206.638 240.24C205.838 240.24 205.111 240.12 204.458 239.88C203.805 239.627 203.231 239.24 202.738 238.72L203.518 237.64C203.838 238.013 204.278 238.34 204.838 238.62C205.411 238.887 206.031 239.02 206.698 239.02C207.445 239.02 208.011 238.867 208.398 238.56C208.785 238.24 208.978 237.84 208.978 237.36C208.978 236.973 208.831 236.68 208.538 236.48C208.245 236.267 207.871 236.093 207.418 235.96C206.978 235.827 206.498 235.707 205.978 235.6C205.471 235.48 204.991 235.32 204.538 235.12C204.098 234.907 203.731 234.633 203.438 234.3C203.145 233.953 202.998 233.48 202.998 232.88C202.998 232.507 203.078 232.153 203.238 231.82C203.398 231.473 203.631 231.173 203.938 230.92C204.245 230.667 204.618 230.467 205.058 230.32C205.511 230.173 206.025 230.1 206.598 230.1C207.425 230.1 208.131 230.24 208.718 230.52C209.305 230.787 209.791 231.113 210.178 231.5L209.478 232.54C209.185 232.193 208.785 231.907 208.278 231.68C207.785 231.44 207.225 231.32 206.598 231.32C205.931 231.32 205.405 231.467 205.018 231.76C204.645 232.053 204.458 232.413 204.458 232.84C204.458 233.187 204.605 233.453 204.898 233.64C205.191 233.827 205.558 233.987 205.998 234.12C206.451 234.24 206.931 234.36 207.438 234.48C207.958 234.587 208.438 234.747 208.878 234.96C209.331 235.173 209.705 235.467 209.998 235.84C210.291 236.2 210.438 236.693 210.438 237.32C210.438 237.72 210.358 238.1 210.198 238.46C210.038 238.82 209.798 239.133 209.478 239.4C209.158 239.653 208.758 239.853 208.278 240C207.811 240.16 207.265 240.24 206.638 240.24ZM219.135 240L216.235 236.04L213.335 240H211.615L215.315 235.04L211.815 230.34H213.555L216.235 234.02L218.915 230.34H220.655L217.155 235.04L220.875 240H219.135Z" fill="white"/>
<path d="M309.75 0.5H91.75C91.1977 0.5 90.75 0.947715 90.75 1.5V179.5C90.75 180.052 91.1977 180.5 91.75 180.5H309.75C310.302 180.5 310.75 180.052 310.75 179.5V1.5C310.75 0.947715 310.302 0.5 309.75 0.5Z" fill="#F1F1F1" stroke="#E5E5E5"/>
<path d="M211.528 103.062V63.5785H220.304V103.062H211.528Z" fill="#0062A6"/>
<path d="M246.317 103.25V72.0393H255.093V103.25H246.317Z" fill="#0062A6"/>
<path d="M219.991 103.25V57.75H228.766V103.25H219.991Z" fill="#722580"/>
<path d="M255.093 103.25V68.2789H263.868V103.25H255.093Z" fill="#722580"/>
<path d="M228.453 103.062V65.0826H237.228V103.062H228.453Z" fill="#107F65"/>
<path d="M263.555 103.062V65.0826H272.33V103.062H263.555Z" fill="#107F65"/>
<path d="M284.5 23.4117H117V35.7995H284.5V23.4117Z" fill="#989898"/>
<path d="M187 54.5H117V60.5H187V54.5Z" fill="#D8D8D8"/>
<path d="M161.71 67.5H117V73.5H161.71V67.5Z" fill="#D8D8D8"/>
<path d="M161.71 93.5H117V99.5H161.71V93.5Z" fill="#D8D8D8"/>
<path d="M177.968 80.5H117V86.5H177.968V80.5Z" fill="#D8D8D8"/>
<path d="M278.531 122H117V128H278.531V122Z" fill="#D8D8D8"/>
<path d="M220.172 135H117V141H220.172V135Z" fill="#D8D8D8"/>
<path d="M257.689 148H117V154H257.689V148Z" fill="#D8D8D8"/>
<path d="M321.25 128H253.25C252.698 128 252.25 128.448 252.25 129V171C252.25 171.552 252.698 172 253.25 172H321.25C321.802 172 322.25 171.552 322.25 171V129C322.25 128.448 321.802 128 321.25 128Z" fill="#107F65"/>
<path d="M267.55 154.2C267.243 154.2 266.983 154.093 266.77 153.88C266.557 153.667 266.45 153.407 266.45 153.1C266.45 152.793 266.557 152.533 266.77 152.32C266.983 152.107 267.243 152 267.55 152C267.857 152 268.117 152.107 268.33 152.32C268.543 152.533 268.65 152.793 268.65 153.1C268.65 153.407 268.543 153.667 268.33 153.88C268.117 154.093 267.857 154.2 267.55 154.2ZM276.119 154.24C275.453 154.24 274.839 154.093 274.279 153.8C273.719 153.507 273.246 153.087 272.859 152.54V157.68H271.359V144.34H272.859V145.78C273.206 145.287 273.666 144.887 274.239 144.58C274.813 144.26 275.439 144.1 276.119 144.1C276.759 144.1 277.339 144.22 277.859 144.46C278.393 144.687 278.846 145.02 279.219 145.46C279.606 145.887 279.899 146.413 280.099 147.04C280.313 147.667 280.419 148.373 280.419 149.16C280.419 149.947 280.313 150.653 280.099 151.28C279.899 151.907 279.606 152.44 279.219 152.88C278.846 153.32 278.393 153.66 277.859 153.9C277.339 154.127 276.759 154.24 276.119 154.24ZM275.739 152.9C276.219 152.9 276.653 152.807 277.039 152.62C277.426 152.433 277.753 152.173 278.019 151.84C278.286 151.507 278.486 151.113 278.619 150.66C278.766 150.193 278.839 149.693 278.839 149.16C278.839 148.627 278.766 148.133 278.619 147.68C278.486 147.227 278.286 146.833 278.019 146.5C277.753 146.167 277.426 145.907 277.039 145.72C276.653 145.533 276.219 145.44 275.739 145.44C275.139 145.44 274.573 145.593 274.039 145.9C273.519 146.193 273.126 146.553 272.859 146.98V151.34C273.126 151.767 273.519 152.133 274.039 152.44C274.573 152.747 275.139 152.9 275.739 152.9ZM287.565 154.24C286.898 154.24 286.285 154.093 285.725 153.8C285.165 153.507 284.691 153.087 284.305 152.54V157.68H282.805V144.34H284.305V145.78C284.651 145.287 285.111 144.887 285.685 144.58C286.258 144.26 286.885 144.1 287.565 144.1C288.205 144.1 288.785 144.22 289.305 144.46C289.838 144.687 290.291 145.02 290.665 145.46C291.051 145.887 291.345 146.413 291.545 147.04C291.758 147.667 291.865 148.373 291.865 149.16C291.865 149.947 291.758 150.653 291.545 151.28C291.345 151.907 291.051 152.44 290.665 152.88C290.291 153.32 289.838 153.66 289.305 153.9C288.785 154.127 288.205 154.24 287.565 154.24ZM287.185 152.9C287.665 152.9 288.098 152.807 288.485 152.62C288.871 152.433 289.198 152.173 289.465 151.84C289.731 151.507 289.931 151.113 290.065 150.66C290.211 150.193 290.285 149.693 290.285 149.16C290.285 148.627 290.211 148.133 290.065 147.68C289.931 147.227 289.731 146.833 289.465 146.5C289.198 146.167 288.871 145.907 288.485 145.72C288.098 145.533 287.665 145.44 287.185 145.44C286.585 145.44 286.018 145.593 285.485 145.9C284.965 146.193 284.571 146.553 284.305 146.98V151.34C284.571 151.767 284.965 152.133 285.485 152.44C286.018 152.747 286.585 152.9 287.185 152.9ZM296.69 154.24C295.97 154.24 295.43 154.047 295.07 153.66C294.723 153.26 294.55 152.7 294.55 151.98V145.66H292.95V144.34H294.55V141.7H296.05V144.34H298.01V145.66H296.05V151.66C296.05 152.02 296.13 152.32 296.29 152.56C296.45 152.787 296.697 152.9 297.03 152.9C297.243 152.9 297.437 152.86 297.61 152.78C297.797 152.7 297.943 152.607 298.05 152.5L298.49 153.62C298.303 153.807 298.063 153.953 297.77 154.06C297.49 154.18 297.13 154.24 296.69 154.24ZM306.389 154L303.489 150.04L300.589 154H298.869L302.569 149.04L299.069 144.34H300.809L303.489 148.02L306.169 144.34H307.909L304.409 149.04L308.129 154H306.389Z" fill="white"/>
</svg>
