<?xml version="1.0" standalone="no"?>
<!DOCTYPE svg PUBLIC "-//W3C//DTD SVG 20010904//EN"
 "http://www.w3.org/TR/2001/REC-SVG-20010904/DTD/svg10.dtd">
<svg version="1.0" xmlns="http://www.w3.org/2000/svg"
 width="198.000000pt" height="198.000000pt" viewBox="0 0 198.000000 198.000000"
 preserveAspectRatio="xMidYMid meet">
<metadata>
Created by potrace 1.11, written by Peter Selinger 2001-2013
</metadata>
<g transform="translate(0.000000,198.000000) scale(0.100000,-0.100000)"
fill="#000000" stroke="none">
<path d="M1129 1975 c-2 -2 -24 -6 -48 -10 -127 -19 -286 -103 -395 -210 -72
-70 -141 -153 -134 -160 2 -2 42 9 88 25 110 37 134 41 260 45 195 7 384 -53
552 -175 l66 -48 149 170 c81 94 154 177 161 184 6 7 12 15 12 19 0 10 -158
81 -245 109 -114 37 -223 54 -351 54 -62 1 -114 -1 -115 -3z"/>
<path d="M555 1803 c-158 -116 -283 -262 -365 -428 -131 -261 -124 -513 18
-752 120 -203 313 -314 535 -307 117 4 128 11 87 55 -17 19 -73 89 -124 156
-152 202 -257 402 -308 590 -26 97 -31 291 -9 368 35 120 114 252 197 324 47
42 30 39 -31 -6z"/>
<path d="M1460 554 c-96 -141 -290 -270 -495 -331 -83 -25 -342 -25 -431 0
-86 24 -92 22 -42 -15 138 -105 295 -174 438 -196 60 -9 283 -8 345 2 141 23
376 121 475 198 55 43 130 112 130 119 0 4 -44 35 -97 70 -54 34 -134 86 -178
114 -125 81 -117 79 -145 39z"/>
</g>
</svg>
